{
.appVersion = "3099";
DisplayStrings = (
"Expletus/space Sans\012ABCDEFGHIJKLMNOPQRSTUVWXYZ\012abcdefghijklmnopqrstuvwxyz\0120123456789/space &",
HOolpg
);
classes = (
{
automatic = 1;
code = "A Aacute Acircumflex Adieresis Agrave Aring Atilde AE B C Ccedilla D Eth E Eacute Ecircumflex Edieresis Egrave F G H I Iacute Icircumflex Idieresis Igrave J K L M N Ntilde O Oacute Ocircumflex Odieresis Ograve Oslash Otilde OE P Thorn Q R S Scaron T U Uacute Ucircumflex Udieresis Ugrave V W X Y Yacute Ydieresis Z Zcaron";
name = Uppercase;
}
);
copyright = "Copyright 2019 The Expletus Sans Project Authors (https://github.com/mjlagattuta/Expletus-Sans), with Reserved Font Name 'Expletus Sans'.";
customParameters = (
{
name = openTypeOS2Panose;
value = (
0,
0,
0,
0,
0,
0,
0,
0,
0,
0
);
},
{
name = fsType;
value = (
);
},
{
name = blueFuzz;
value = 1;
},
{
name = blueScale;
value = 0.03963;
},
{
name = blueShift;
value = 7;
},
{
name = "Variable Font Origin";
value = "BAA2CE79-BA31-4701-835E-3D9478C3F4B2";
},
{
name = "Enforce Compatibility Check";
value = 1;
},
{
name = "Use Typo Metrics";
value = 1;
},
{
name = "Disable Last Change";
value = 1;
},
{
name = "Axis Mappings";
value = {
wght = {
400 = 96;
500 = 108;
600 = 123;
700 = 140;
};
};
},
{
name = licenseURL;
value = "https://scripts.sil.org/OFL";
},
{
name = license;
value = "This Font Software is licensed under the SIL Open Font License, Version 1.1. This license is available with a FAQ at: https://scripts.sil.org/OFL";
},
{
name = vendorID;
value = pyrs;
},
{
name = trademark;
value = "Expletus Sans is a trademark of Designtown.";
},
{
name = Axes;
value = (
{
Name = Weight;
Tag = wght;
}
);
}
);
date = "2018-12-14 04:20:38 +0000";
designer = "Jasper de Waard";
designerURL = "https://www.designtown.nl/";
disablesNiceNames = 1;
familyName = "Expletus Sans";
featurePrefixes = (
{
automatic = 1;
code = "languagesystem DFLT dflt;\012";
name = Languagesystems;
}
);
features = (
{
automatic = 1;

glyphs = (
{
color = 6;
glyphname = A;
layers = (
{
anchors = (
{
name = bottom;
position = "{688, 0}";
},
{
name = ogonek;
position = "{1304, 0}";
},
{
name = top;
position = "{688, 1454}";
}
);
layerId = "BAA2CE79-BA31-4701-835E-3D9478C3F4B2";
paths = (
{
closed = 1;
nodes = (
"260 0 LINE",
"380 348 LINE",
"884 348 LINE",
"856 424 OFFCURVE",
"810 492 OFFCURVE",
"714 492 CURVE SMOOTH",
"444 492 LINE",
"420 488 LINE",
"442 530 LINE",
"666 1172 LINE",
"680 1230 LINE",
"694 1172 LINE",
"1100 0 LINE",
"1304 0 LINE",
"780 1454 LINE {name = hr00;}",
"594 1454 LINE",
"70 0 LINE"
);
}
);
width = 1374;
},
{
anchors = (
{
name = bottom;
position = "{722, 0}";
},
{
name = ogonek;
position = "{1384, 0}";
},
{
name = top;
position = "{722, 1454}";
}
);
layerId = "58254875-FB9E-4C1D-8B15-704836B9A7CF";
paths = (
{
closed = 1;
nodes = (
"342 0 LINE",
"448 318 LINE {name = hr00;}",
"882 318 LINE",
"854 406 OFFCURVE",
"798 524 OFFCURVE",
"682 524 CURVE SMOOTH",
"530 524 LINE",
"500 520 LINE",
"524 560 LINE",
"694 1078 LINE",
"712 1156 LINE",
"728 1082 LINE",
"1088 0 LINE",
"1384 0 LINE",
"862 1454 LINE",
"582 1454 LINE",
"60 0 LINE"
);
}
);
width = 1444;
}
);
unicode = 0041;
userData = {
com.typemytype.robofont.guides = (
{
angle = 90;
isGlobal = 0;
magnetic = 5;
x = 255;
y = 0;
}
);
};
},
{
color = 6;
glyphname = AE;
layers = (
{
anchors = (
{
name = bottom;
position = "{976, 0}";
},
{
name = top;
position = "{976, 1454}";
}
);
layerId = "BAA2CE79-BA31-4701-835E-3D9478C3F4B2";
paths = (
{
closed = 1;
nodes = (
"240 0 LINE",
"414 348 LINE",
"936 348 LINE",
"908 424 OFFCURVE",
"862 492 OFFCURVE",
"766 492 CURVE SMOOTH",
"510 492 LINE",
"474 488 LINE",
"502 530 LINE",
"842 1210 LINE",
"872 1290 LINE",
"876 1210 LINE {name = hr00;}",
"1066 0 LINE",
"1828 0 LINE",
"1828 144 LINE",
"1220 144 LINE",
"1040 1310 LINE",
"1688 1310 LINE",
"1688 1454 LINE",
"780 1454 LINE",
"42 0 LINE"
);
},
{
closed = 1;
nodes = (
"1708 692 LINE",
"1708 832 LINE",
"1368 832 LINE",
"1272 832 OFFCURVE",
"1228 768 OFFCURVE",
"1204 692 CURVE"
);
}
);
width = 1950;
},
{
anchors = (
{
name = bottom;
position = "{976, 0}";
},
{
name = top;
position = "{976, 1454}";
}
);
layerId = "58254875-FB9E-4C1D-8B15-704836B9A7CF";
paths = (
{
closed = 1;
nodes = (
"282 0 LINE",
"436 318 LINE {name = hr00;}",
"892 318 LINE",
"864 406 OFFCURVE",
"808 524 OFFCURVE",
"692 524 CURVE SMOOTH",
"558 524 LINE",
"518 520 LINE",
"548 560 LINE",
"812 1108 LINE",
"840 1178 LINE",
"846 1104 LINE",
"1012 0 LINE",
"1830 0 LINE",
"1830 206 LINE",
"1248 206 LINE",
"1092 1248 LINE",
"1688 1248 LINE",
"1688 1454 LINE",
"744 1454 LINE",
"0 0 LINE"
);
},
{
closed = 1;
nodes = (
"1708 662 LINE",
"1708 864 LINE",
"1480 864 LINE SMOOTH",
"1342 864 OFFCURVE",
"1282 760 OFFCURVE",
"1252 662 CURVE"
);
}
);
width = 1950;
}
);
unicode = 00C6;
userData = {
com.typemytype.robofont.guides = (
{
angle = 90;
isGlobal = 0;
magnetic = 5;
x = 255;
y = 0;
}
);
};
},
{
color = 6;
glyphname = B;
layers = (
{
anchors = (
{
name = bottom;
position = "{638, 0}";
},
{
name = top;
position = "{638, 1454}";
}
);
layerId = "BAA2CE79-BA31-4701-835E-3D9478C3F4B2";
paths = (
{
closed = 1;
nodes = (
"1014 -24 OFFCURVE",
"1186 204 OFFCURVE",
"1186 410 CURVE SMOOTH {name = hr01;}",
"1186 570 OFFCURVE",
"1098 690 OFFCURVE",
"948 762 CURVE",
"892 776 LINE",
"950 804 LINE",
"1048 866 OFFCURVE",
"1100 998 OFFCURVE",
"1100 1094 CURVE {name = hr02;}",
"1100 1310 OFFCURVE",
"934 1480 OFFCURVE",
"594 1480 CURVE SMOOTH",
"450 1480 OFFCURVE",
"324 1466 OFFCURVE",
"174 1436 CURVE",
"174 0 LINE",
"364 0 LINE",
"364 692 LINE",
"594 692 LINE SMOOTH",
"810 692 OFFCURVE",
"984 602 OFFCURVE",
"984 402 CURVE SMOOTH {name = hr03;}",
"984 246 OFFCURVE",
"864 122 OFFCURVE",
"724 122 CURVE SMOOTH",
"688 122 OFFCURVE",
"666 124 OFFCURVE",
"634 128 CURVE",
"544 144 OFFCURVE",
"484 82 OFFCURVE",
"444 12 CURVE",
"562 -16 OFFCURVE",
"648 -24 OFFCURVE",
"724 -24 CURVE SMOOTH"
);
},
{
closed = 1;
nodes = (
"364 1320 LINE",
"436 1328 OFFCURVE",
"522 1332 OFFCURVE",
"594 1332 CURVE SMOOTH",
"796 1332 OFFCURVE",
"902 1230 OFFCURVE",
"902 1094 CURVE SMOOTH",
"902 946 OFFCURVE",
"794 830 OFFCURVE",
"594 830 CURVE",
"364 830 LINE"
);
}
);
width = 1286;
},
{
anchors = (
{
name = bottom;
position = "{670, 0}";
},
{
name = top;
position = "{670, 1454}";
}
);
layerId = "58254875-FB9E-4C1D-8B15-704836B9A7CF";
paths = (
{
closed = 1;
nodes = (
"1066 -22 OFFCURVE",
"1260 204 OFFCURVE",
"1260 410 CURVE SMOOTH {name = hr03;}",
"1260 554 OFFCURVE",
"1152 710 OFFCURVE",
"1006 762 CURVE",
"950 776 LINE",
"1008 804 LINE",
"1106 866 OFFCURVE",
"1174 972 OFFCURVE",
"1174 1070 CURVE {name = hr02;}",
"1174 1316 OFFCURVE",
"982 1480 OFFCURVE",
"622 1480 CURVE SMOOTH",
"478 1480 OFFCURVE",
"376 1468 OFFCURVE",
"162 1432 CURVE",
"162 0 LINE",
"442 0 LINE",
"442 668 LINE",
"622 668 LINE SMOOTH",
"820 668 OFFCURVE",
"966 570 OFFCURVE",
"966 412 CURVE SMOOTH {name = hr01;}",
"966 266 OFFCURVE",
"866 184 OFFCURVE",
"728 180 CURVE SMOOTH",
"726 180 OFFCURVE",
"722 180 OFFCURVE",
"720 180 CURVE SMOOTH",
"612 180 OFFCURVE",
"552 82 OFFCURVE",
"520 12 CURVE",
"636 -16 OFFCURVE",
"678 -22 OFFCURVE",
"752 -22 CURVE SMOOTH"
);
},
{
closed = 1;
nodes = (
"442 1264 LINE",
"514 1274 OFFCURVE",
"550 1278 OFFCURVE",
"622 1278 CURVE SMOOTH",
"812 1278 OFFCURVE",
"886 1162 OFFCURVE",
"886 1068 CURVE SMOOTH",
"886 942 OFFCURVE",
"760 856 OFFCURVE",
"622 856 CURVE",
"442 856 LINE"
);
}
);
width = 1354;
}
);
unicode = 0042;
},
{
color = 6;
glyphname = C;
layers = (
{
anchors = (
{
name = bottom;
position = "{740, 0}";
},
{
name = top;
position = "{740, 1454}";
}
);
layerId = "BAA2CE79-BA31-4701-835E-3D9478C3F4B2";
paths = (
{
closed = 1;
nodes = (
"980 -24 OFFCURVE",
"1098 2 OFFCURVE",
"1222 68 CURVE",
"1170 198 LINE",
"1060 142 OFFCURVE",
"960 120 OFFCURVE",
"868 120 CURVE",
"592 120 OFFCURVE",
"348 362 OFFCURVE",
"348 724 CURVE SMOOTH",
"348 1132 OFFCURVE",
"592 1334 OFFCURVE",
"868 1334 CURVE SMOOTH",
"960 1334 OFFCURVE",
"1054 1320 OFFCURVE",
"1170 1282 CURVE",
"1222 1412 LINE",
"1100 1458 OFFCURVE",
"980 1480 OFFCURVE",
"868 1480 CURVE SMOOTH",
"458 1480 OFFCURVE",
"144 1172 OFFCURVE",
"144 724 CURVE SMOOTH",
"144 262 OFFCURVE",
"458 -24 OFFCURVE",
"868 -24 CURVE SMOOTH {name = hr00;}"
);
}
);
width = 1304;
},
{
anchors = (
{
name = bottom;
position = "{750, 0}";
},
{
name = top;
position = "{764, 1454}";
}
);
layerId = "58254875-FB9E-4C1D-8B15-704836B9A7CF";
paths = (
{
closed = 1;
nodes = (
"982 -24 OFFCURVE",
"1104 6 OFFCURVE",
"1222 68 CURVE",
"1148 250 LINE",
"1050 204 OFFCURVE",
"962 182 OFFCURVE",
"870 182 CURVE",
"552 182 OFFCURVE",
"400 452 OFFCURVE",
"400 728 CURVE",
"400 1004 OFFCURVE",
"552 1274 OFFCURVE",
"870 1274 CURVE SMOOTH",
"962 1274 OFFCURVE",
"1032 1262 OFFCURVE",
"1150 1228 CURVE",
"1222 1412 LINE",
"1096 1460 OFFCURVE",
"982 1480 OFFCURVE",
"870 1480 CURVE SMOOTH",
"388 1480 OFFCURVE",
"96 1144 OFFCURVE",
"96 728 CURVE",
"96 306 OFFCURVE",
"376 -24 OFFCURVE",
"870 -24 CURVE {name = hr00;}"
);
}
);
width = 1204;
}
);
unicode = 0043;
},
{
color = 6;
glyphname = D;
layers = (
{
anchors = (
{
name = bottom;
position = "{714, 0}";
},
{
name = center;
position = "{418, 712}";
},
{
name = top;
position = "{714, 1454}";
}
);
layerId = "BAA2CE79-BA31-4701-835E-3D9478C3F4B2";
paths = (
{
closed = 1;
nodes = (
"1084 -24 OFFCURVE",
"1386 294 OFFCURVE",
"1386 730 CURVE SMOOTH",
"1386 1198 OFFCURVE",
"1100 1480 OFFCURVE",
"592 1480 CURVE SMOOTH",
"476 1480 OFFCURVE",
"304 1462 OFFCURVE",
"178 1432 CURVE",
"178 0 LINE {name = hr01;}",
"368 0 LINE",
"368 1320 LINE",
"432 1328 OFFCURVE",
"512 1334 OFFCURVE",
"592 1334 CURVE SMOOTH",
"986 1334 OFFCURVE",
"1182 1116 OFFCURVE",
"1182 730 CURVE SMOOTH",
"1182 396 OFFCURVE",
"982 120 OFFCURVE",
"726 120 CURVE {name = hr02;}",
"694 120 OFFCURVE",
"678 120 OFFCURVE",
"636 124 CURVE SMOOTH",
"546 132 OFFCURVE",
"486 80 OFFCURVE",
"448 10 CURVE",
"564 -18 OFFCURVE",
"638 -24 OFFCURVE",
"728 -24 CURVE"
);
}
);
width = 1426;
},
{
anchors = (
{
name = bottom;
position = "{748, 0}";
},
{
name = center;
position = "{432, 712}";
},
{
name = top;
position = "{748, 1454}";
}
);
layerId = "58254875-FB9E-4C1D-8B15-704836B9A7CF";
paths = (
{
closed = 1;
nodes = (
"1164 -24 OFFCURVE",
"1466 308 OFFCURVE",
"1466 730 CURVE SMOOTH",
"1466 1204 OFFCURVE",
"1152 1480 OFFCURVE",
"620 1480 CURVE SMOOTH",
"504 1480 OFFCURVE",
"344 1466 OFFCURVE",
"166 1428 CURVE",
"166 0 LINE",
"448 0 LINE {name = hr01;}",
"448 1258 LINE",
"510 1268 OFFCURVE",
"568 1274 OFFCURVE",
"620 1274 CURVE SMOOTH",
"1006 1274 OFFCURVE",
"1164 1044 OFFCURVE",
"1164 730 CURVE SMOOTH",
"1164 464 OFFCURVE",
"1034 188 OFFCURVE",
"734 182 CURVE SMOOTH",
"732 182 OFFCURVE",
"728 182 OFFCURVE",
"726 182 CURVE SMOOTH",
"616 182 OFFCURVE",
"556 80 OFFCURVE",
"524 10 CURVE",
"640 -20 OFFCURVE",
"682 -24 OFFCURVE",
"756 -24 CURVE {name = hr02;}"
);
}
);
width = 1494;
}
);
unicode = 0044;
},
{
color = 6;
glyphname = E;
layers = (
{
anchors = (
{
name = bottom;
position = "{616, 0}";
},
{
name = ogonek;
position = "{1036, 0}";
},
{
name = top;
position = "{608, 1454}";
},
{
name = topleft;
position = "{40, 1454}";
}
);
layerId = "BAA2CE79-BA31-4701-835E-3D9478C3F4B2";
paths = (
{
closed = 1;
nodes = (
"1036 0 LINE",
"1036 144 LINE",
"368 144 LINE",
"368 1310 LINE",
"1006 1310 LINE",
"1006 1454 LINE",
"178 1454 LINE {name = hr00;}",
"178 0 LINE"
);
},
{
closed = 1;
nodes = (
"938 692 LINE",
"938 832 LINE",
"616 832 LINE",
"520 832 OFFCURVE",
"472 768 OFFCURVE",
"444 692 CURVE"
);
}
);
width = 1154;
},
{
anchors = (
{
name = bottom;
position = "{630, 0}";
},
{
name = ogonek;
position = "{1058, 20}";
},
{
name = top;
position = "{610, 1454}";
},
{
name = topleft;
position = "{40, 1454}";
}
);
layerId = "58254875-FB9E-4C1D-8B15-704836B9A7CF";
paths = (
{
closed = 1;
nodes = (
"1070 0 LINE",
"1070 206 LINE",
"452 206 LINE",
"452 1248 LINE",
"1038 1248 LINE",
"1038 1454 LINE",
"166 1454 LINE {name = hr00;}",
"166 0 LINE"
);
},
{
closed = 1;
nodes = (
"970 662 LINE",
"970 864 LINE",
"728 864 LINE",
"612 864 OFFCURVE",
"554 750 OFFCURVE",
"528 662 CURVE"
);
}
);
width = 1176;
}
);
unicode = 0045;
},
{
color = 6;
glyphname = F;
layers = (
{
anchors = (
{
name = bottom;
position = "{274, 0}";
},
{
name = top;
position = "{592, 1454}";
}
);
layerId = "BAA2CE79-BA31-4701-835E-3D9478C3F4B2";
paths = (
{
closed = 1;
nodes = (
"368 0 LINE",
"368 1310 LINE",
"1006 1310 LINE",
"1006 1454 LINE",
"178 1454 LINE {name = hr00;}",
"178 0 LINE"
);
},
{
closed = 1;
nodes = (
"938 692 LINE",
"938 832 LINE",
"616 832 LINE",
"520 832 OFFCURVE",
"472 768 OFFCURVE",
"444 692 CURVE"
);
}
);
width = 1146;
},
{
anchors = (
{
name = bottom;
position = "{310, 0}";
},
{
name = top;
position = "{594, 1454}";
}
);
layerId = "58254875-FB9E-4C1D-8B15-704836B9A7CF";
paths = (
{
closed = 1;
nodes = (
"452 0 LINE",
"452 1248 LINE",
"1038 1248 LINE",
"1038 1454 LINE",
"166 1454 LINE {name = hr00;}",
"166 0 LINE"
);
},
{
closed = 1;
nodes = (
"970 662 LINE",
"970 864 LINE",
"728 864 LINE",
"612 864 OFFCURVE",
"554 750 OFFCURVE",
"528 662 CURVE"
);
}
);
width = 1168;
}
);
unicode = 0046;
},
{
color = 6;
glyphname = G;
layers = (
{
anchors = (
{
name = bottom;
position = "{760, 0}";
},
{
name = top;
position = "{760, 1454}";
}
);
layerId = "BAA2CE79-BA31-4701-835E-3D9478C3F4B2";
paths = (
{
closed = 1;
nodes = (
"934 -24 OFFCURVE",
"1084 -2 OFFCURVE",
"1228 74 CURVE",
"1228 674 LINE",
"1044 674 LINE",
"1044 154 LINE",
"956 126 OFFCURVE",
"878 120 OFFCURVE",
"820 120 CURVE SMOOTH",
"544 120 OFFCURVE",
"274 318 OFFCURVE",
"274 726 CURVE SMOOTH",
"274 1136 OFFCURVE",
"544 1334 OFFCURVE",
"820 1334 CURVE SMOOTH {name = hr00;}",
"912 1334 OFFCURVE",
"1022 1324 OFFCURVE",
"1164 1262 CURVE",
"1216 1392 LINE",
"1076 1458 OFFCURVE",
"934 1480 OFFCURVE",
"820 1480 CURVE SMOOTH",
"410 1480 OFFCURVE",
"70 1176 OFFCURVE",
"70 726 CURVE SMOOTH",
"70 256 OFFCURVE",
"410 -24 OFFCURVE",
"820 -24 CURVE SMOOTH"
);
}
);
width = 1290;
},
{
anchors = (
{
name = bottom;
position = "{820, 0}";
},
{
name = top;
position = "{820, 1454}";
}
);
layerId = "58254875-FB9E-4C1D-8B15-704836B9A7CF";
paths = (
{
closed = 1;
nodes = (
"988 -24 OFFCURVE",
"1178 8 OFFCURVE",
"1324 74 CURVE",
"1324 674 LINE",
"1068 674 LINE",
"1068 204 LINE",
"984 184 OFFCURVE",
"934 182 OFFCURVE",
"876 182 CURVE SMOOTH",
"558 182 OFFCURVE",
"388 450 OFFCURVE",
"388 726 CURVE SMOOTH",
"388 1016 OFFCURVE",
"564 1274 OFFCURVE",
"882 1274 CURVE SMOOTH {name = hr00;}",
"974 1274 OFFCURVE",
"1080 1258 OFFCURVE",
"1230 1200 CURVE",
"1304 1392 LINE",
"1152 1456 OFFCURVE",
"994 1480 OFFCURVE",
"882 1480 CURVE SMOOTH",
"394 1480 OFFCURVE",
"84 1146 OFFCURVE",
"84 726 CURVE SMOOTH",
"84 308 OFFCURVE",
"382 -24 OFFCURVE",
"876 -24 CURVE SMOOTH"
);
}
);
width = 1448;
}
);
unicode = 0047;
},
{
color = 6;
glyphname = H;
layers = (
{
anchors = (
{
name = bottom;
position = "{732, 0}";
},
{
name = center;
position = "{732, 728}";
},
{
name = top;
position = "{732, 1454}";
},
{
name = topleft;
position = "{40, 1454}";
}
);
layerId = "BAA2CE79-BA31-4701-835E-3D9478C3F4B2";
paths = (
{
closed = 1;
nodes = (
"1286 0 LINE",
"1286 1454 LINE",
"1096 1454 LINE",
"1096 832 LINE {name = hr00;}",
"614 832 LINE",
"520 832 OFFCURVE",
"472 768 OFFCURVE",
"444 692 CURVE",
"1096 692 LINE",
"1096 0 LINE"
);
},
{
closed = 1;
nodes = (
"368 0 LINE",
"368 1454 LINE",
"178 1454 LINE",
"178 0 LINE"
);
}
);
width = 1460;
},
{
anchors = (
{
name = bottom;
position = "{768, 0}";
},
{
name = center;
position = "{768, 728}";
},
{
name = top;
position = "{768, 1454}";
},
{
name = topleft;
position = "{40, 1454}";
}
);
layerId = "58254875-FB9E-4C1D-8B15-704836B9A7CF";
paths = (
{
closed = 1;
nodes = (
"1364 0 LINE",
"1364 1454 LINE",
"1082 1454 LINE",
"1082 866 LINE",
"728 866 LINE",
"612 866 OFFCURVE",
"554 748 OFFCURVE",
"528 660 CURVE {name = hr00;}",
"1082 660 LINE",
"1082 0 LINE"
);
},
{
closed = 1;
nodes = (
"452 0 LINE",
"452 1454 LINE",
"166 1454 LINE",
"166 0 LINE"
);
}
);
width = 1528;
}
);
unicode = 0048;
},
{
color = 6;
glyphname = I;
layers = (
{
anchors = (
{
name = bottom;
position = "{270, 0}";
},
{
name = ogonek;
position = "{362, 0}";
},
{
name = top;
position = "{270, 1454}";
},
{
name = topleft;
position = "{40, 1454}";
}
);
layerId = "BAA2CE79-BA31-4701-835E-3D9478C3F4B2";
paths = (
{
closed = 1;
nodes = (
"362 0 LINE {name = hr00;}",
"362 1454 LINE",
"178 1454 LINE",
"178 0 LINE"
);
}
);
width = 540;
},
{
anchors = (
{
name = bottom;
position = "{306, 0}";
},
{
name = ogonek;
position = "{444, 0}";
},
{
name = top;
position = "{306, 1454}";
},
{
name = topleft;
position = "{40, 1454}";
}
);
layerId = "58254875-FB9E-4C1D-8B15-704836B9A7CF";
paths = (
{
closed = 1;
nodes = (
"444 0 LINE {name = hr00;}",
"444 1454 LINE",
"166 1454 LINE",
"166 0 LINE"
);
}
);
width = 612;
}
);
unicode = 0049;
},
{
color = 6;
glyphname = J;
layers = (
{
anchors = (
{
name = bottom;
position = "{308, -362}";
},
{
name = top;
position = "{426, 1454}";
}
);
layerId = "BAA2CE79-BA31-4701-835E-3D9478C3F4B2";
paths = (
{
closed = 1;
nodes = (
"348 -228 OFFCURVE",
"522 -94 OFFCURVE",
"522 256 CURVE {name = hr00;}",
"522 1454 LINE",
"330 1454 LINE",
"330 256 LINE",
"330 -58 OFFCURVE",
"190 -148 OFFCURVE",
"-10 -314 CURVE",
"70 -416 LINE"
);
}
);
width = 688;
},
{
anchors = (
{
name = bottom;
position = "{340, -422}";
},
{
name = top;
position = "{438, 1454}";
}
);
layerId = "58254875-FB9E-4C1D-8B15-704836B9A7CF";
paths = (
{
closed = 1;
nodes = (
"416 -238 OFFCURVE",
"580 -116 OFFCURVE",
"580 256 CURVE {name = hr00;}",
"580 1454 LINE",
"296 1454 LINE",
"296 256 LINE",
"296 -20 OFFCURVE",
"180 -116 OFFCURVE",
"-20 -280 CURVE",
"108 -444 LINE"
);
}
);
width = 738;
}
);
unicode = 004A;
},
{
color = 6;
glyphname = K;
layers = (
{
anchors = (
{
name = bottom;
position = "{664, 0}";
},
{
name = top;
position = "{662, 1454}";
}
);
layerId = "BAA2CE79-BA31-4701-835E-3D9478C3F4B2";
paths = (
{
closed = 1;
nodes = (
"1282 0 LINE",
"764 866 LINE {name = hr00;}",
"1216 1454 LINE",
"1000 1454 LINE",
"534 824 LINE SMOOTH",
"454 714 OFFCURVE",
"438 566 OFFCURVE",
"474 486 CURVE",
"632 694 LINE",
"650 730 LINE",
"664 694 LINE",
"1052 0 LINE"
);
},
{
closed = 1;
nodes = (
"368 0 LINE",
"368 1454 LINE",
"178 1454 LINE",
"178 0 LINE"
);
}
);
width = 1322;
},
{
anchors = (
{
name = bottom;
position = "{710, 0}";
},
{
name = top;
position = "{710, 1454}";
}
);
layerId = "58254875-FB9E-4C1D-8B15-704836B9A7CF";
paths = (
{
closed = 1;
nodes = (
"1386 0 LINE",
"868 872 LINE {name = hr00;}",
"1316 1454 LINE",
"1002 1454 LINE",
"672 994 LINE SMOOTH",
"578 866 OFFCURVE",
"520 664 OFFCURVE",
"566 486 CURVE",
"692 648 LINE",
"716 692 LINE",
"730 644 LINE",
"1058 0 LINE"
);
},
{
closed = 1;
nodes = (
"452 0 LINE",
"452 1454 LINE",
"166 1454 LINE",
"166 0 LINE"
);
}
);
width = 1418;
}
);
unicode = 004B;
userData = {
com.typemytype.robofont.guides = (
{
angle = 0;
isGlobal = 0;
magnetic = 5;
x = 0;
y = 352;
}
);
};
},
{
color = 6;
glyphname = L;
layers = (
{
anchors = (
{
name = bottom;
position = "{578, 0}";
},
{
name = center;
position = "{274, 728}";
},
{
name = top;
position = "{274, 1454}";
},
{
name = topright;
position = "{1000, 1454}";
}
);
layerId = "BAA2CE79-BA31-4701-835E-3D9478C3F4B2";
paths = (
{
closed = 1;
nodes = (
"976 0 LINE",
"978 146 LINE",
"370 146 LINE",
"370 1454 LINE",
"178 1454 LINE {name = hr00;}",
"178 0 LINE"
);
}
);
width = 1040;
},
{
anchors = (
{
name = bottom;
position = "{570, 0}";
},
{
name = center;
position = "{308, 728}";
},
{
name = top;
position = "{308, 1454}";
},
{
name = topright;
position = "{1022, 1454}";
}
);
layerId = "58254875-FB9E-4C1D-8B15-704836B9A7CF";
paths = (
{
closed = 1;
nodes = (
"976 0 LINE",
"976 208 LINE",
"452 208 LINE",
"452 1454 LINE",
"164 1454 LINE {name = hr00;}",
"164 0 LINE"
);
}
);
width = 1062;
}
);
unicode = 004C;
},
{
color = 6;
glyphname = M;
layers = (
{
anchors = (
{
name = bottom;
position = "{950, 0}";
},
{
name = top;
position = "{950, 1454}";
}
);
layerId = "BAA2CE79-BA31-4701-835E-3D9478C3F4B2";
paths = (
{
closed = 1;
nodes = (
"318 0 LINE",
"430 1166 LINE",
"436 1250 LINE",
"462 1166 LINE",
"860 20 LINE",
"1038 20 LINE",
"1434 1164 LINE",
"1458 1250 LINE",
"1464 1164 LINE",
"1578 0 LINE",
"1760 0 LINE",
"1600 1454 LINE",
"1354 1454 LINE",
"964 286 LINE",
"950 224 LINE",
"936 286 LINE",
"546 1454 LINE",
"300 1454 LINE {name = hr00;}",
"138 0 LINE"
);
}
);
width = 1898;
},
{
anchors = (
{
name = bottom;
position = "{982, 0}";
},
{
name = top;
position = "{982, 1454}";
}
);
layerId = "58254875-FB9E-4C1D-8B15-704836B9A7CF";
paths = (
{
closed = 1;
nodes = (
"410 0 LINE",
"484 1098 LINE",
"490 1192 LINE",
"514 1098 LINE",
"834 20 LINE",
"1128 20 LINE",
"1444 1096 LINE",
"1468 1192 LINE",
"1474 1096 LINE",
"1552 0 LINE",
"1814 0 LINE",
"1678 1454 LINE",
"1314 1454 LINE",
"998 332 LINE",
"982 260 LINE",
"968 332 LINE",
"650 1454 LINE",
"288 1454 LINE {name = hr00;}",
"148 0 LINE"
);
}
);
width = 1964;
}
);
unicode = 004D;
userData = {
com.typemytype.robofont.guides = (
{
angle = 0;
isGlobal = 0;
magnetic = 5;
x = 0;
y = 191;
}
);
};
},
{
color = 6;
glyphname = N;
layers = (
{
anchors = (
{
name = bottom;
position = "{750, 0}";
},
{
name = top;
position = "{762, 1454}";
}
);
layerId = "BAA2CE79-BA31-4701-835E-3D9478C3F4B2";
paths = (
{
closed = 1;
nodes = (
"370 0 LINE",
"370 1162 LINE",
"366 1230 LINE",
"394 1162 LINE {name = hr00;}",
"1122 0 LINE",
"1292 0 LINE",
"1292 1454 LINE",
"1124 1454 LINE",
"1124 330 LINE",
"1128 260 LINE",
"1104 326 LINE",
"398 1454 LINE",
"208 1454 LINE",
"208 0 LINE"
);
}
);
width = 1498;
},
{
anchors = (
{
name = bottom;
position = "{776, 0}";
},
{
name = top;
position = "{784, 1454}";
}
);
layerId = "58254875-FB9E-4C1D-8B15-704836B9A7CF";
paths = (
{
closed = 1;
nodes = (
"432 0 LINE",
"432 1022 LINE",
"428 1090 LINE",
"460 1018 LINE {name = hr00;}",
"1102 0 LINE",
"1354 0 LINE",
"1354 1454 LINE",
"1102 1454 LINE",
"1102 476 LINE",
"1106 396 LINE",
"1078 476 LINE",
"464 1454 LINE",
"188 1454 LINE",
"188 0 LINE"
);
}
);
width = 1556;
}
);
unicode = 004E;
userData = {
com.typemytype.robofont.guides = (
{
angle = 0;
isGlobal = 0;
magnetic = 5;
x = 0;
y = 579;
},
{
angle = 0;
isGlobal = 0;
magnetic = 5;
x = 0;
y = 148;
}
);
};
},
{
color = 6;
glyphname = O;
layers = (
{
anchors = (
{
name = bottom;
position = "{764, 0}";
},
{
name = center;
position = "{764, 728}";
},
{
name = ogonek;
position = "{1424, 0}";
},
{
name = top;
position = "{764, 1454}";
},
{
name = topleft;
position = "{40, 1454}";
},
{
name = topright;
position = "{1542, 1454}";
}
);
layerId = "BAA2CE79-BA31-4701-835E-3D9478C3F4B2";
paths = (
{
closed = 1;
nodes = (
"1126 -28 OFFCURVE",
"1438 266 OFFCURVE",
"1438 728 CURVE",
"1438 1140 OFFCURVE",
"1198 1484 OFFCURVE",
"764 1484 CURVE",
"452 1484 OFFCURVE",
"90 1238 OFFCURVE",
"90 728 CURVE {name = hr00;}",
"90 256 OFFCURVE",
"390 -28 OFFCURVE",
"764 -28 CURVE SMOOTH"
);
},
{
closed = 1;
nodes = (
"494 116 OFFCURVE",
"294 366 OFFCURVE",
"294 728 CURVE",
"294 1104 OFFCURVE",
"506 1338 OFFCURVE",
"764 1338 CURVE SMOOTH",
"1022 1338 OFFCURVE",
"1234 1104 OFFCURVE",
"1234 728 CURVE",
"1234 386 OFFCURVE",
"1046 116 OFFCURVE",
"764 116 CURVE"
);
}
);
width = 1582;
},
{
anchors = (
{
name = bottom;
position = "{810, 0}";
},
{
name = center;
position = "{810, 728}";
},
{
name = ogonek;
position = "{1420, 0}";
},
{
name = top;
position = "{810, 1454}";
},
{
name = topleft;
position = "{40, 1454}";
},
{
name = topright;
position = "{1538, 1454}";
}
);
layerId = "58254875-FB9E-4C1D-8B15-704836B9A7CF";
paths = (
{
closed = 1;
nodes = (
"1274 -28 OFFCURVE",
"1532 336 OFFCURVE",
"1532 728 CURVE",
"1532 1082 OFFCURVE",
"1332 1484 OFFCURVE",
"810 1484 CURVE",
"352 1484 OFFCURVE",
"86 1146 OFFCURVE",
"86 728 CURVE",
"86 298 OFFCURVE",
"348 -28 OFFCURVE",
"810 -28 CURVE"
);
},
{
closed = 1;
nodes = (
"534 178 OFFCURVE",
"390 452 OFFCURVE",
"390 728 CURVE",
"390 1024 OFFCURVE",
"534 1278 OFFCURVE",
"810 1278 CURVE {name = hr00;}",
"1074 1278 OFFCURVE",
"1230 1042 OFFCURVE",
"1230 728 CURVE",
"1230 378 OFFCURVE",
"1030 178 OFFCURVE",
"810 178 CURVE"
);
}
);
width = 1578;
}
);
unicode = 004F;
},
{
color = 10;
glyphname = Oacute;
layers = (
{
components = (
{
name = O;
},
{
name = acutecomb.case;
transform = "{1, 0, 0, 1, 584, 0}";
}
);
layerId = "BAA2CE79-BA31-4701-835E-3D9478C3F4B2";
width = 1582;
},
{
components = (
{
name = O;
},
{
name = acutecomb.case;
transform = "{1, 0, 0, 1, 602, 0}";
}
);
layerId = "58254875-FB9E-4C1D-8B15-704836B9A7CF";
width = 1578;
},
{
associatedMasterId = "BAA2CE79-BA31-4701-835E-3D9478C3F4B2";
layerId = "AB0FDFFB-3B96-4EA9-9378-7C92630AE827";
name = "Aug 21 18, 16:19";
paths = (
{
closed = 1;
nodes = (
"1126 -28 OFFCURVE",
"1438 266 OFFCURVE",
"1438 728 CURVE",
"1438 1198 OFFCURVE",
"1142 1484 OFFCURVE",
"764 1484 CURVE SMOOTH",
"404 1484 OFFCURVE",
"90 1190 OFFCURVE",
"90 728 CURVE SMOOTH",
"90 256 OFFCURVE",
"390 -28 OFFCURVE",
"764 -28 CURVE SMOOTH"
);
},
{
closed = 1;
nodes = (
"508 116 OFFCURVE",
"294 348 OFFCURVE",
"294 728 CURVE SMOOTH",
"294 1104 OFFCURVE",
"506 1338 OFFCURVE",
"764 1338 CURVE SMOOTH",
"1022 1338 OFFCURVE",
"1234 1104 OFFCURVE",
"1234 728 CURVE",
"1234 348 OFFCURVE",
"1022 116 OFFCURVE",
"764 116 CURVE SMOOTH"
);
},
{
closed = 1;
nodes = (
"758 1516 OFFCURVE",
"832 1526 OFFCURVE",
"886 1584 CURVE",
"1062 1780 LINE {name = hr01;}",
"868 1780 LINE",
"690 1532 LINE"
);
}
);
width = 1582;
},
{
associatedMasterId = "58254875-FB9E-4C1D-8B15-704836B9A7CF";
layerId = "88CE8009-953B-4531-AF02-0CDCA0767977";
name = "Aug 21 18, 16:19";
paths = (
{
closed = 1;
nodes = (
"1182 -28 OFFCURVE",
"1484 290 OFFCURVE",
"1484 728 CURVE SMOOTH",
"1484 1168 OFFCURVE",
"1212 1484 OFFCURVE",
"762 1484 CURVE",
"320 1484 OFFCURVE",
"38 1164 OFFCURVE",
"38 728 CURVE",
"38 286 OFFCURVE",
"310 -28 OFFCURVE",
"762 -28 CURVE"
);
},
{
closed = 1;
nodes = (
"486 178 OFFCURVE",
"342 452 OFFCURVE",
"342 728 CURVE",
"342 1024 OFFCURVE",
"486 1278 OFFCURVE",
"762 1278 CURVE",
"1038 1278 OFFCURVE",
"1182 1024 OFFCURVE",
"1182 728 CURVE SMOOTH",
"1182 452 OFFCURVE",
"1038 178 OFFCURVE",
"762 178 CURVE {name = hr00;}"
);
},
{
closed = 1;
nodes = (
"728 1512 OFFCURVE",
"874 1526 OFFCURVE",
"954 1616 CURVE",
"1098 1780 LINE",
"832 1780 LINE",
"660 1530 LINE"
);
}
);
width = 1582;
}
);
unicode = 00D3;
},
{
color = 6;
glyphname = OE;
layers = (
{
anchors = (
{
name = bottom;
position = "{1096, 0}";
},
{
name = top;
position = "{1096, 1454}";
}
);
layerId = "BAA2CE79-BA31-4701-835E-3D9478C3F4B2";
paths = (
{
closed = 1;
nodes = (
"830 -28 OFFCURVE",
"952 0 OFFCURVE",
"1060 0 CURVE {name = hr01;}",
"1858 0 LINE",
"1858 144 LINE",
"1190 144 LINE",
"1190 1310 LINE",
"1828 1310 LINE",
"1828 1454 LINE",
"1060 1454 LINE",
"960 1454 OFFCURVE",
"840 1484 OFFCURVE",
"764 1484 CURVE SMOOTH {name = hr02;}",
"404 1484 OFFCURVE",
"90 1190 OFFCURVE",
"90 728 CURVE SMOOTH",
"90 256 OFFCURVE",
"390 -28 OFFCURVE",
"764 -28 CURVE"
);
},
{
closed = 1;
nodes = (
"508 116 OFFCURVE",
"294 348 OFFCURVE",
"294 728 CURVE SMOOTH",
"294 1104 OFFCURVE",
"506 1338 OFFCURVE",
"764 1338 CURVE",
"832 1338 OFFCURVE",
"926 1324 OFFCURVE",
"1000 1300 CURVE",
"1000 154 LINE",
"916 126 OFFCURVE",
"832 116 OFFCURVE",
"764 116 CURVE SMOOTH"
);
},
{
closed = 1;
nodes = (
"1760 692 LINE",
"1760 832 LINE",
"1438 832 LINE",
"1342 832 OFFCURVE",
"1294 768 OFFCURVE",
"1266 692 CURVE"
);
}
);
width = 1976;
},
{
anchors = (
{
name = bottom;
position = "{1146, 0}";
},
{
name = top;
position = "{1146, 1454}";
}
);
layerId = "58254875-FB9E-4C1D-8B15-704836B9A7CF";
paths = (
{
closed = 1;
nodes = (
"906 -28 OFFCURVE",
"996 0 OFFCURVE",
"1128 0 CURVE SMOOTH",
"1906 0 LINE",
"1906 206 LINE",
"1288 206 LINE",
"1288 1248 LINE",
"1874 1248 LINE",
"1874 1454 LINE",
"1128 1454 LINE SMOOTH {name = hr01;}",
"1006 1454 OFFCURVE",
"918 1484 OFFCURVE",
"810 1484 CURVE SMOOTH",
"368 1484 OFFCURVE",
"86 1164 OFFCURVE",
"86 728 CURVE SMOOTH",
"86 286 OFFCURVE",
"358 -28 OFFCURVE",
"810 -28 CURVE SMOOTH {name = hr02;}"
);
},
{
closed = 1;
nodes = (
"534 178 OFFCURVE",
"390 452 OFFCURVE",
"390 728 CURVE SMOOTH",
"390 1024 OFFCURVE",
"534 1278 OFFCURVE",
"810 1278 CURVE SMOOTH",
"880 1278 OFFCURVE",
"944 1266 OFFCURVE",
"1002 1244 CURVE",
"1002 210 LINE",
"944 188 OFFCURVE",
"880 178 OFFCURVE",
"810 178 CURVE SMOOTH"
);
},
{
closed = 1;
nodes = (
"1806 662 LINE",
"1806 864 LINE",
"1564 864 LINE SMOOTH",
"1448 864 OFFCURVE",
"1390 750 OFFCURVE",
"1364 662 CURVE"
);
}
);
width = 2012;
}
);
leftMetricsKey = O;
rightMetricsKey = E;
unicode = 0152;
},
{
color = 6;
glyphname = P;
layers = (
{
anchors = (
{
name = bottom;
position = "{274, 0}";
},
{
name = top;
position = "{610, 1454}";
}
);
layerId = "BAA2CE79-BA31-4701-835E-3D9478C3F4B2";
paths = (
{
closed = 1;
nodes = (
"368 0 LINE",
"368 1322 LINE",
"440 1330 OFFCURVE",
"514 1334 OFFCURVE",
"588 1334 CURVE SMOOTH",
"768 1334 OFFCURVE",
"914 1208 OFFCURVE",
"914 1040 CURVE",
"914 870 OFFCURVE",
"762 748 OFFCURVE",
"624 748 CURVE SMOOTH",
"540 748 OFFCURVE",
"478 694 OFFCURVE",
"448 626 CURVE",
"522 606 OFFCURVE",
"590 604 OFFCURVE",
"648 610 CURVE SMOOTH",
"888 630 OFFCURVE",
"1116 784 OFFCURVE",
"1116 1040 CURVE SMOOTH {name = hr00;}",
"1116 1282 OFFCURVE",
"910 1480 OFFCURVE",
"588 1480 CURVE",
"442 1480 OFFCURVE",
"328 1470 OFFCURVE",
"178 1440 CURVE",
"178 0 LINE"
);
}
);
width = 1218;
},
{
anchors = (
{
name = bottom;
position = "{310, 0}";
},
{
name = top;
position = "{646, 1454}";
}
);
layerId = "58254875-FB9E-4C1D-8B15-704836B9A7CF";
paths = (
{
closed = 1;
nodes = (
"454 0 LINE",
"454 1264 LINE",
"526 1272 OFFCURVE",
"550 1276 OFFCURVE",
"622 1276 CURVE SMOOTH",
"788 1276 OFFCURVE",
"900 1164 OFFCURVE",
"900 1026 CURVE",
"900 896 OFFCURVE",
"810 788 OFFCURVE",
"700 778 CURVE SMOOTH",
"610 770 OFFCURVE",
"558 672 OFFCURVE",
"528 596 CURVE",
"602 574 OFFCURVE",
"670 572 OFFCURVE",
"730 578 CURVE SMOOTH",
"968 600 OFFCURVE",
"1194 760 OFFCURVE",
"1194 1026 CURVE SMOOTH {name = hr00;}",
"1194 1308 OFFCURVE",
"946 1482 OFFCURVE",
"622 1482 CURVE",
"478 1482 OFFCURVE",
"382 1472 OFFCURVE",
"166 1436 CURVE",
"166 0 LINE"
);
}
);
width = 1286;
}
);
unicode = 0050;
},
{
color = 6;
glyphname = Thorn;
layers = (
{
anchors = (
{
name = bottom;
position = "{276, 0}";
},
{
name = top;
position = "{276, 1454}";
}
);
layerId = "BAA2CE79-BA31-4701-835E-3D9478C3F4B2";
paths = (
{
closed = 1;
nodes = (
"368 0 LINE",
"368 1008 LINE",
"440 1016 OFFCURVE",
"514 1020 OFFCURVE",
"588 1020 CURVE SMOOTH",
"768 1020 OFFCURVE",
"914 894 OFFCURVE",
"914 726 CURVE SMOOTH",
"914 556 OFFCURVE",
"762 434 OFFCURVE",
"624 434 CURVE SMOOTH",
"540 434 OFFCURVE",
"478 380 OFFCURVE",
"448 312 CURVE",
"522 292 OFFCURVE",
"590 290 OFFCURVE",
"648 296 CURVE SMOOTH",
"888 316 OFFCURVE",
"1116 470 OFFCURVE",
"1116 726 CURVE SMOOTH {name = hr00;}",
"1116 968 OFFCURVE",
"910 1166 OFFCURVE",
"588 1166 CURVE SMOOTH",
"508 1166 OFFCURVE",
"438 1162 OFFCURVE",
"368 1154 CURVE",
"368 1454 LINE",
"184 1454 LINE",
"184 0 LINE"
);
}
);
width = 1218;
},
{
anchors = (
{
name = bottom;
position = "{278, 0}";
},
{
name = top;
position = "{278, 1454}";
}
);
layerId = "58254875-FB9E-4C1D-8B15-704836B9A7CF";
paths = (
{
closed = 1;
nodes = (
"414 0 LINE",
"414 976 LINE",
"486 984 OFFCURVE",
"510 988 OFFCURVE",
"582 988 CURVE SMOOTH",
"748 988 OFFCURVE",
"860 876 OFFCURVE",
"860 728 CURVE SMOOTH",
"860 588 OFFCURVE",
"770 480 OFFCURVE",
"660 470 CURVE SMOOTH",
"570 462 OFFCURVE",
"518 364 OFFCURVE",
"488 288 CURVE",
"562 266 OFFCURVE",
"630 264 OFFCURVE",
"690 270 CURVE SMOOTH",
"928 292 OFFCURVE",
"1154 452 OFFCURVE",
"1154 728 CURVE SMOOTH {name = hr00;}",
"1154 1022 OFFCURVE",
"906 1194 OFFCURVE",
"582 1194 CURVE SMOOTH",
"522 1194 OFFCURVE",
"470 1192 OFFCURVE",
"414 1188 CURVE",
"414 1454 LINE",
"142 1454 LINE",
"142 0 LINE"
);
}
);
width = 1218;
}
);
unicode = 00DE;
},
{
color = 6;
glyphname = Q;
layers = (
{
anchors = (
{
name = bottom;
position = "{788, 0}";
},
{
name = top;
position = "{788, 1454}";
}
);
layerId = "BAA2CE79-BA31-4701-835E-3D9478C3F4B2";
paths = (
{
closed = 1;
nodes = (
"882 -28 OFFCURVE",
"986 6 OFFCURVE",
"1096 86 CURVE",
"1052 134 OFFCURVE",
"962 152 OFFCURVE",
"892 134 CURVE SMOOTH",
"852 124 OFFCURVE",
"822 118 OFFCURVE",
"774 118 CURVE",
"512 118 OFFCURVE",
"308 356 OFFCURVE",
"308 728 CURVE SMOOTH",
"308 1104 OFFCURVE",
"524 1338 OFFCURVE",
"780 1338 CURVE SMOOTH",
"1038 1338 OFFCURVE",
"1248 1104 OFFCURVE",
"1248 728 CURVE",
"1248 612 OFFCURVE",
"1230 492 OFFCURVE",
"1172 384 CURVE",
"1158 336 LINE",
"1132 374 LINE",
"932 582 LINE",
"824 476 LINE",
"1318 -26 LINE",
"1426 78 LINE {name = hr00;}",
"1274 232 LINE",
"1398 408 OFFCURVE",
"1452 546 OFFCURVE",
"1452 728 CURVE",
"1452 1198 OFFCURVE",
"1158 1484 OFFCURVE",
"780 1484 CURVE SMOOTH",
"420 1484 OFFCURVE",
"106 1190 OFFCURVE",
"106 728 CURVE SMOOTH",
"106 268 OFFCURVE",
"394 -28 OFFCURVE",
"774 -28 CURVE"
);
}
);
width = 1576;
},
{
anchors = (
{
name = bottom;
position = "{804, 0}";
},
{
name = top;
position = "{816, 1454}";
}
);
layerId = "58254875-FB9E-4C1D-8B15-704836B9A7CF";
paths = (
{
closed = 1;
nodes = (
"880 -28 OFFCURVE",
"984 4 OFFCURVE",
"1080 68 CURVE",
"1038 116 OFFCURVE",
"958 182 OFFCURVE",
"870 182 CURVE SMOOTH",
"846 182 OFFCURVE",
"806 178 OFFCURVE",
"788 178 CURVE {name = hr02;}",
"534 178 OFFCURVE",
"390 452 OFFCURVE",
"390 728 CURVE",
"390 1024 OFFCURVE",
"534 1278 OFFCURVE",
"810 1278 CURVE",
"1086 1278 OFFCURVE",
"1230 1024 OFFCURVE",
"1230 728 CURVE SMOOTH",
"1230 638 OFFCURVE",
"1214 536 OFFCURVE",
"1178 452 CURVE",
"1166 400 LINE",
"1140 442 LINE",
"980 606 LINE",
"828 452 LINE",
"1322 -52 LINE {name = hr01;}",
"1474 100 LINE",
"1350 228 LINE",
"1458 366 OFFCURVE",
"1532 546 OFFCURVE",
"1532 728 CURVE SMOOTH",
"1532 1168 OFFCURVE",
"1260 1484 OFFCURVE",
"810 1484 CURVE",
"368 1484 OFFCURVE",
"86 1164 OFFCURVE",
"86 728 CURVE",
"86 286 OFFCURVE",
"358 -28 OFFCURVE",
"788 -28 CURVE"
);
}
);
width = 1562;
}
);
unicode = 0051;
userData = {
com.typemytype.robofont.guides = (
{
angle = 0;
isGlobal = 0;
magnetic = 5;
x = 0;
y = 204;
}
);
};
},
{
color = 6;
glyphname = R;
layers = (
{
anchors = (
{
name = bottom;
position = "{648, 0}";
},
{
name = top;
position = "{630, 1454}";
}
);
layerId = "BAA2CE79-BA31-4701-835E-3D9478C3F4B2";
paths = (
{
closed = 1;
nodes = (
"368 0 LINE",
"368 1318 LINE",
"464 1336 OFFCURVE",
"514 1336 OFFCURVE",
"588 1336 CURVE SMOOTH",
"768 1336 OFFCURVE",
"914 1212 OFFCURVE",
"914 1054 CURVE SMOOTH",
"914 890 OFFCURVE",
"762 772 OFFCURVE",
"624 768 CURVE SMOOTH",
"540 766 OFFCURVE",
"478 714 OFFCURVE",
"448 646 CURVE",
"522 628 OFFCURVE",
"590 624 OFFCURVE",
"666 632 CURVE",
"876 552 OFFCURVE",
"866 230 OFFCURVE",
"972 0 CURVE",
"1172 0 LINE",
"1050 270 OFFCURVE",
"1066 532 OFFCURVE",
"870 664 CURVE",
"830 680 LINE",
"878 696 LINE",
"1016 766 OFFCURVE",
"1116 890 OFFCURVE",
"1116 1052 CURVE SMOOTH {name = hr00;}",
"1116 1286 OFFCURVE",
"910 1482 OFFCURVE",
"588 1482 CURVE SMOOTH",
"442 1482 OFFCURVE",
"328 1466 OFFCURVE",
"178 1436 CURVE",
"178 0 LINE"
);
}
);
width = 1296;
},
{
anchors = (
{
name = bottom;
position = "{678, 0}";
},
{
name = top;
position = "{656, 1454}";
}
);
layerId = "58254875-FB9E-4C1D-8B15-704836B9A7CF";
paths = (
{
closed = 1;
nodes = (
"454 0 LINE",
"454 1264 LINE",
"526 1272 OFFCURVE",
"550 1276 OFFCURVE",
"622 1276 CURVE SMOOTH",
"778 1276 OFFCURVE",
"900 1174 OFFCURVE",
"900 1036 CURVE SMOOTH",
"900 906 OFFCURVE",
"810 810 OFFCURVE",
"700 800 CURVE SMOOTH",
"610 792 OFFCURVE",
"558 692 OFFCURVE",
"528 616 CURVE",
"596 596 OFFCURVE",
"660 594 OFFCURVE",
"716 598 CURVE",
"866 482 OFFCURVE",
"868 204 OFFCURVE",
"962 0 CURVE",
"1256 0 LINE",
"1138 256 OFFCURVE",
"1146 504 OFFCURVE",
"984 642 CURVE",
"940 664 LINE",
"996 686 LINE",
"1114 758 OFFCURVE",
"1194 878 OFFCURVE",
"1194 1036 CURVE SMOOTH {name = hr00;}",
"1194 1318 OFFCURVE",
"936 1482 OFFCURVE",
"622 1482 CURVE SMOOTH",
"478 1482 OFFCURVE",
"382 1472 OFFCURVE",
"166 1436 CURVE",
"166 0 LINE"
);
}
);
width = 1368;
}
);
unicode = 0052;
},
{
color = 6;
glyphname = S;
layers = (
{
anchors = (
{
name = bottom;
position = "{574, 0}";
},
{
name = top;
position = "{562, 1454}";
}
);
layerId = "BAA2CE79-BA31-4701-835E-3D9478C3F4B2";
paths = (
{
closed = 1;
nodes = (
"838 -24 OFFCURVE",
"1008 164 OFFCURVE",
"1008 362 CURVE SMOOTH",
"1008 816 OFFCURVE",
"330 804 OFFCURVE",
"330 1118 CURVE SMOOTH",
"330 1234 OFFCURVE",
"412 1334 OFFCURVE",
"562 1334 CURVE {name = hr00;}",
"636 1334 OFFCURVE",
"736 1324 OFFCURVE",
"850 1290 CURVE",
"904 1420 LINE",
"768 1462 OFFCURVE",
"656 1480 OFFCURVE",
"542 1480 CURVE",
"302 1480 OFFCURVE",
"138 1318 OFFCURVE",
"138 1118 CURVE SMOOTH",
"138 666 OFFCURVE",
"810 708 OFFCURVE",
"810 366 CURVE SMOOTH",
"810 228 OFFCURVE",
"700 120 OFFCURVE",
"512 120 CURVE",
"420 120 OFFCURVE",
"290 142 OFFCURVE",
"170 196 CURVE",
"118 66 LINE",
"254 0 OFFCURVE",
"420 -24 OFFCURVE",
"534 -24 CURVE"
);
}
);
width = 1108;
},
{
anchors = (
{
name = bottom;
position = "{578, 0}";
},
{
name = top;
position = "{572, 1454}";
}
);
layerId = "58254875-FB9E-4C1D-8B15-704836B9A7CF";
paths = (
{
closed = 1;
nodes = (
"856 -26 OFFCURVE",
"1062 118 OFFCURVE",
"1062 376 CURVE SMOOTH",
"1062 840 OFFCURVE",
"380 852 OFFCURVE",
"380 1124 CURVE SMOOTH",
"380 1214 OFFCURVE",
"458 1280 OFFCURVE",
"578 1280 CURVE {name = hr00;}",
"666 1280 OFFCURVE",
"760 1266 OFFCURVE",
"878 1232 CURVE",
"952 1414 LINE",
"784 1468 OFFCURVE",
"682 1480 OFFCURVE",
"560 1480 CURVE",
"322 1480 OFFCURVE",
"120 1362 OFFCURVE",
"120 1100 CURVE SMOOTH",
"120 664 OFFCURVE",
"798 660 OFFCURVE",
"798 370 CURVE SMOOTH",
"798 266 OFFCURVE",
"694 180 OFFCURVE",
"552 180 CURVE",
"450 180 OFFCURVE",
"322 202 OFFCURVE",
"178 270 CURVE",
"102 84 LINE",
"284 0 OFFCURVE",
"438 -26 OFFCURVE",
"552 -26 CURVE"
);
}
);
width = 1154;
}
);
unicode = 0053;
},
{
color = 6;
glyphname = T;
layers = (
{
anchors = (
{
name = bottom;
position = "{544, 0}";
},
{
name = center;
position = "{544, 728}";
},
{
name = top;
position = "{544, 1454}";
}
);
layerId = "BAA2CE79-BA31-4701-835E-3D9478C3F4B2";
paths = (
{
closed = 1;
nodes = (
"636 0 LINE",
"636 1310 LINE",
"1062 1310 LINE",
"1062 1454 LINE",
"20 1454 LINE",
"20 1310 LINE {name = hr00;}",
"444 1310 LINE",
"444 0 LINE"
);
}
);
width = 1088;
},
{
anchors = (
{
name = bottom;
position = "{534, 0}";
},
{
name = center;
position = "{534, 728}";
},
{
name = top;
position = "{534, 1454}";
}
);
layerId = "58254875-FB9E-4C1D-8B15-704836B9A7CF";
paths = (
{
closed = 1;
nodes = (
"674 0 LINE",
"674 1248 LINE",
"1054 1248 LINE",
"1054 1454 LINE",
"10 1454 LINE",
"10 1248 LINE {name = hr00;}",
"390 1248 LINE",
"390 0 LINE"
);
}
);
width = 1068;
}
);
unicode = 0054;
},
{
color = 6;
glyphname = U;
layers = (
{
anchors = (
{
name = bottom;
position = "{694, 0}";
},
{
name = ogonek;
position = "{1250, 0}";
},
{
name = top;
position = "{694, 1454}";
},
{
name = topright;
position = "{1348, 1454}";
}
);
layerId = "BAA2CE79-BA31-4701-835E-3D9478C3F4B2";
paths = (
{
closed = 1;
nodes = (
"1012 -28 OFFCURVE",
"1232 198 OFFCURVE",
"1232 536 CURVE SMOOTH",
"1232 1454 LINE",
"1044 1454 LINE",
"1044 504 LINE SMOOTH",
"1044 268 OFFCURVE",
"906 116 OFFCURVE",
"694 116 CURVE SMOOTH",
"482 116 OFFCURVE",
"344 268 OFFCURVE",
"344 504 CURVE SMOOTH",
"344 1454 LINE",
"156 1454 LINE",
"156 536 LINE SMOOTH",
"156 198 OFFCURVE",
"354 -28 OFFCURVE",
"694 -28 CURVE SMOOTH {name = hr00;}"
);
}
);
width = 1388;
},
{
anchors = (
{
name = bottom;
position = "{748, 0}";
},
{
name = ogonek;
position = "{1308, 0}";
},
{
name = top;
position = "{748, 1454}";
},
{
name = topright;
position = "{1414, 1454}";
}
);
layerId = "58254875-FB9E-4C1D-8B15-704836B9A7CF";
paths = (
{
closed = 1;
nodes = (
"1106 -28 OFFCURVE",
"1328 202 OFFCURVE",
"1328 556 CURVE SMOOTH",
"1328 1454 LINE",
"1048 1454 LINE",
"1048 526 LINE SMOOTH",
"1048 308 OFFCURVE",
"918 178 OFFCURVE",
"748 178 CURVE SMOOTH",
"576 178 OFFCURVE",
"448 308 OFFCURVE",
"448 526 CURVE SMOOTH",
"448 1454 LINE",
"166 1454 LINE",
"166 556 LINE SMOOTH",
"166 178 OFFCURVE",
"390 -28 OFFCURVE",
"748 -28 CURVE SMOOTH {name = hr00;}"
);
}
);
width = 1454;
}
);
unicode = 0055;
},
{
color = 6;
glyphname = V;
layers = (
{
anchors = (
{
name = bottom;
position = "{630, 0}";
},
{
name = top;
position = "{630, 1454}";
}
);
layerId = "BAA2CE79-BA31-4701-835E-3D9478C3F4B2";
paths = (
{
closed = 1;
nodes = (
"736 0 LINE",
"1242 1454 LINE",
"1044 1454 LINE",
"654 258 LINE",
"638 194 LINE",
"624 260 LINE",
"232 1454 LINE",
"26 1454 LINE",
"536 0 LINE {name = hr00;}"
);
}
);
width = 1260;
},
{
anchors = (
{
name = bottom;
position = "{668, 0}";
},
{
name = top;
position = "{668, 1454}";
}
);
layerId = "58254875-FB9E-4C1D-8B15-704836B9A7CF";
paths = (
{
closed = 1;
nodes = (
"820 0 LINE",
"1326 1454 LINE",
"1032 1454 LINE",
"690 348 LINE",
"676 274 LINE",
"662 350 LINE",
"320 1454 LINE",
"16 1454 LINE",
"526 0 LINE {name = hr00;}"
);
}
);
width = 1334;
}
);
unicode = 0056;
userData = {
com.typemytype.robofont.guides = (
{
angle = 0;
isGlobal = 0;
magnetic = 5;
x = 0;
y = 143;
}
);
};
},
{
color = 6;
glyphname = W;
layers = (
{
anchors = (
{
name = bottom;
position = "{978, 0}";
},
{
name = top;
position = "{980, 1454}";
}
);
layerId = "BAA2CE79-BA31-4701-835E-3D9478C3F4B2";
paths = (
{
closed = 1;
nodes = (
"664 0 LINE",
"960 1136 LINE",
"976 1216 LINE",
"992 1132 LINE",
"1290 0 LINE",
"1514 0 LINE",
"1904 1454 LINE",
"1716 1454 LINE",
"1422 268 LINE",
"1404 174 LINE",
"1384 272 LINE",
"1082 1434 LINE {name = hr00;}",
"878 1434 LINE",
"568 274 LINE",
"546 176 LINE",
"530 274 LINE",
"234 1454 LINE",
"42 1454 LINE",
"432 0 LINE"
);
}
);
width = 1944;
},
{
anchors = (
{
name = bottom;
position = "{1064, 0}";
},
{
name = top;
position = "{1066, 1454}";
}
);
layerId = "58254875-FB9E-4C1D-8B15-704836B9A7CF";
paths = (
{
closed = 1;
nodes = (
"762 0 LINE",
"1046 1072 LINE",
"1062 1152 LINE",
"1080 1070 LINE",
"1364 0 LINE",
"1646 0 LINE",
"2056 1454 LINE",
"1784 1454 LINE",
"1514 384 LINE",
"1498 276 LINE",
"1478 388 LINE",
"1222 1434 LINE {name = hr00;}",
"908 1434 LINE",
"648 386 LINE",
"626 276 LINE",
"610 386 LINE",
"340 1454 LINE",
"62 1454 LINE",
"474 0 LINE"
);
}
);
width = 2118;
}
);
unicode = 0057;
userData = {
com.typemytype.robofont.guides = (
{
angle = 0;
isGlobal = 0;
magnetic = 5;
x = 0;
y = 152;
},
{
angle = 0;
isGlobal = 0;
magnetic = 5;
x = 0;
y = 522;
}
);
};
},
{
color = 6;
glyphname = X;
layers = (
{
anchors = (
{
name = bottom;
position = "{626, 0}";
},
{
name = top;
position = "{626, 1454}";
}
);
layerId = "BAA2CE79-BA31-4701-835E-3D9478C3F4B2";
paths = (
{
closed = 1;
nodes = (
"1180 0 LINE",
"730 754 LINE",
"1154 1454 LINE",
"942 1454 LINE",
"644 924 LINE",
"628 874 LINE",
"610 924 LINE",
"316 1454 LINE",
"94 1454 LINE {name = hr00;}",
"964 0 LINE"
);
},
{
closed = 1;
nodes = (
"274 0 LINE",
"506 420 LINE",
"554 500 OFFCURVE",
"514 598 OFFCURVE",
"468 660 CURVE",
"68 0 LINE"
);
}
);
width = 1252;
},
{
anchors = (
{
name = bottom;
position = "{662, 0}";
},
{
name = top;
position = "{662, 1454}";
}
);
layerId = "58254875-FB9E-4C1D-8B15-704836B9A7CF";
paths = (
{
closed = 1;
nodes = (
"1260 0 LINE",
"804 736 LINE",
"1238 1454 LINE",
"924 1454 LINE",
"678 976 LINE",
"662 914 LINE",
"642 976 LINE",
"396 1454 LINE",
"80 1454 LINE {name = hr00;}",
"950 0 LINE"
);
},
{
closed = 1;
nodes = (
"364 0 LINE",
"526 290 LINE",
"594 414 OFFCURVE",
"504 582 OFFCURVE",
"454 650 CURVE",
"58 0 LINE"
);
}
);
width = 1322;
}
);
unicode = 0058;
userData = {
com.typemytype.robofont.guides = (
{
angle = 0;
isGlobal = 0;
magnetic = 5;
x = 0;
y = 457;
}
);
};
},
{
color = 6;
glyphname = Y;
layers = (
{
anchors = (
{
name = bottom;
position = "{648, 0}";
},
{
name = top;
position = "{644, 1454}";
},
{
name = topleft;
position = "{40, 1454}";
}
);
layerId = "BAA2CE79-BA31-4701-835E-3D9478C3F4B2";
paths = (
{
closed = 1;
nodes = (
"740 0 LINE",
"740 674 LINE {name = hr00;}",
"272 1454 LINE",
"56 1454 LINE",
"554 618 LINE",
"554 0 LINE"
);
},
{
closed = 1;
nodes = (
"1224 1454 LINE",
"1014 1454 LINE",
"762 1004 LINE",
"708 910 OFFCURVE",
"748 814 OFFCURVE",
"796 752 CURVE"
);
}
);
width = 1320;
},
{
anchors = (
{
name = bottom;
position = "{690, 0}";
},
{
name = top;
position = "{684, 1454}";
},
{
name = topleft;
position = "{40, 1454}";
}
);
layerId = "58254875-FB9E-4C1D-8B15-704836B9A7CF";
paths = (
{
closed = 1;
nodes = (
"828 0 LINE",
"828 678 LINE {name = hr00;}",
"362 1454 LINE",
"50 1454 LINE",
"552 644 LINE",
"552 0 LINE"
);
},
{
closed = 1;
nodes = (
"1312 1454 LINE",
"1004 1454 LINE",
"816 1114 LINE",
"748 986 OFFCURVE",
"836 822 OFFCURVE",
"888 754 CURVE"
);
}
);
width = 1398;
}
);
unicode = 0059;
},
{
color = 6;
glyphname = Z;
layers = (
{
anchors = (
{
name = bottom;
position = "{694, 0}";
},
{
name = top;
position = "{726, 1454}";
}
);
layerId = "BAA2CE79-BA31-4701-835E-3D9478C3F4B2";
paths = (
{
closed = 1;
nodes = (
"1216 0 LINE",
"1216 144 LINE",
"436 144 LINE",
"392 138 LINE",
"422 168 LINE",
"1196 1378 LINE",
"1196 1454 LINE",
"258 1454 LINE {name = hr00;}",
"258 1310 LINE",
"926 1310 LINE",
"974 1316 LINE",
"942 1282 LINE",
"170 76 LINE",
"170 0 LINE"
);
}
);
width = 1196;
},
{
anchors = (
{
name = bottom;
position = "{640, 0}";
},
{
name = top;
position = "{662, 1454}";
}
);
layerId = "58254875-FB9E-4C1D-8B15-704836B9A7CF";
paths = (
{
closed = 1;
nodes = (
"1186 0 LINE",
"1186 206 LINE",
"470 206 LINE",
"424 200 LINE",
"456 230 LINE",
"1168 1336 LINE",
"1168 1454 LINE",
"156 1454 LINE {name = hr00;}",
"156 1252 LINE",
"788 1252 LINE",
"836 1258 LINE",
"804 1224 LINE",
"94 118 LINE",
"94 0 LINE"
);
}
);
width = 1224;
}
);
unicode = 005A;
userData = {
com.typemytype.robofont.guides = (
{
angle = 0;
isGlobal = 0;
magnetic = 5;
x = 0;
y = 38;
},
{
angle = 0;
isGlobal = 0;
magnetic = 5;
x = 0;
y = 689;
},
{
angle = 90;
isGlobal = 0;
magnetic = 5;
x = 385;
y = 0;
}
);
};
},
{
color = 6;
glyphname = a;
layers = (
{
anchors = (
{
name = bottom;
position = "{534, 0}";
},
{
name = ogonek;
position = "{938, 0}";
},
{
name = top;
position = "{536, 1034}";
}
);
layerId = "BAA2CE79-BA31-4701-835E-3D9478C3F4B2";
paths = (
{
closed = 1;
nodes = (
"524 -20 OFFCURVE",
"604 0 OFFCURVE",
"706 102 CURVE",
"728 138 LINE",
"730 102 LINE",
"746 60 OFFCURVE",
"764 22 OFFCURVE",
"802 0 CURVE {name = hr01;}",
"938 0 LINE",
"920 70 OFFCURVE",
"906 182 OFFCURVE",
"906 342 CURVE SMOOTH",
"906 628 LINE SMOOTH",
"906 898 OFFCURVE",
"758 1054 OFFCURVE",
"502 1054 CURVE SMOOTH",
"414 1054 OFFCURVE",
"318 1042 OFFCURVE",
"188 986 CURVE",
"234 862 LINE",
"330 896 OFFCURVE",
"394 910 OFFCURVE",
"466 910 CURVE SMOOTH",
"648 910 OFFCURVE",
"718 800 OFFCURVE",
"718 642 CURVE",
"718 268 LINE",
"640 166 OFFCURVE",
"544 124 OFFCURVE",
"454 124 CURVE SMOOTH",
"352 124 OFFCURVE",
"290 194 OFFCURVE",
"290 276 CURVE SMOOTH",
"290 350 OFFCURVE",
"326 422 OFFCURVE",
"502 450 CURVE SMOOTH",
"608 466 OFFCURVE",
"638 556 OFFCURVE",
"646 604 CURVE",
"236 556 OFFCURVE",
"92 466 OFFCURVE",
"92 264 CURVE SMOOTH",
"92 102 OFFCURVE",
"220 -20 OFFCURVE",
"428 -20 CURVE SMOOTH"
);
}
);
width = 1054;
},
{
anchors = (
{
name = bottom;
position = "{558, 0}";
},
{
name = ogonek;
position = "{1002, 0}";
},
{
name = top;
position = "{562, 1034}";
}
);
layerId = "58254875-FB9E-4C1D-8B15-704836B9A7CF";
paths = (
{
closed = 1;
nodes = (
"492 -26 OFFCURVE",
"572 -4 OFFCURVE",
"692 106 CURVE",
"716 140 LINE",
"722 100 LINE",
"738 60 OFFCURVE",
"760 20 OFFCURVE",
"796 0 CURVE",
"1002 0 LINE {name = hr02;}",
"978 94 OFFCURVE",
"970 178 OFFCURVE",
"970 252 CURVE SMOOTH",
"970 622 LINE SMOOTH",
"970 902 OFFCURVE",
"810 1056 OFFCURVE",
"526 1056 CURVE SMOOTH",
"432 1056 OFFCURVE",
"296 1034 OFFCURVE",
"178 980 CURVE",
"246 804 LINE",
"340 838 OFFCURVE",
"414 850 OFFCURVE",
"480 850 CURVE SMOOTH",
"620 850 OFFCURVE",
"700 760 OFFCURVE",
"700 622 CURVE SMOOTH",
"700 320 LINE",
"630 238 OFFCURVE",
"550 180 OFFCURVE",
"474 180 CURVE SMOOTH",
"404 180 OFFCURVE",
"348 232 OFFCURVE",
"348 302 CURVE SMOOTH",
"348 368 OFFCURVE",
"392 424 OFFCURVE",
"492 440 CURVE SMOOTH",
"576 456 OFFCURVE",
"614 532 OFFCURVE",
"628 626 CURVE",
"206 594 OFFCURVE",
"80 442 OFFCURVE",
"80 276 CURVE SMOOTH",
"80 118 OFFCURVE",
"198 -26 OFFCURVE",
"390 -26 CURVE SMOOTH {name = hr01;}"
);
}
);
width = 1084;
}
);
unicode = 0061;
},
{
color = 6;
glyphname = ae;
layers = (
{
anchors = (
{
name = bottom;
position = "{830, 0}";
},
{
name = top;
position = "{848, 1034}";
}
);
layerId = "BAA2CE79-BA31-4701-835E-3D9478C3F4B2";
paths = (
{
closed = 1;
nodes = (
"614 -20 OFFCURVE",
"764 90 OFFCURVE",
"818 262 CURVE",
"872 104 OFFCURVE",
"1036 -20 OFFCURVE",
"1202 -20 CURVE SMOOTH",
"1298 -20 OFFCURVE",
"1422 -2 OFFCURVE",
"1550 64 CURVE",
"1500 196 LINE",
"1386 138 OFFCURVE",
"1314 124 OFFCURVE",
"1222 124 CURVE SMOOTH",
"1040 124 OFFCURVE",
"904 286 OFFCURVE",
"904 524 CURVE SMOOTH",
"904 770 OFFCURVE",
"1020 910 OFFCURVE",
"1188 910 CURVE SMOOTH",
"1318 910 OFFCURVE",
"1418 788 OFFCURVE",
"1400 634 CURVE {name = hr00;}",
"1146 634 LINE",
"1050 634 OFFCURVE",
"1004 576 OFFCURVE",
"976 500 CURVE",
"1556 500 LINE",
"1644 786 OFFCURVE",
"1482 1054 OFFCURVE",
"1208 1054 CURVE SMOOTH",
"1048 1054 OFFCURVE",
"898 962 OFFCURVE",
"832 838 CURVE",
"778 964 OFFCURVE",
"656 1054 OFFCURVE",
"502 1054 CURVE SMOOTH",
"414 1054 OFFCURVE",
"318 1042 OFFCURVE",
"188 986 CURVE",
"234 862 LINE",
"330 896 OFFCURVE",
"394 910 OFFCURVE",
"466 910 CURVE SMOOTH",
"648 910 OFFCURVE",
"718 800 OFFCURVE",
"718 642 CURVE SMOOTH",
"718 524 LINE",
"718 268 OFFCURVE",
"622 124 OFFCURVE",
"454 124 CURVE SMOOTH",
"352 124 OFFCURVE",
"290 194 OFFCURVE",
"290 276 CURVE SMOOTH",
"290 350 OFFCURVE",
"326 422 OFFCURVE",
"502 450 CURVE SMOOTH",
"608 466 OFFCURVE",
"638 556 OFFCURVE",
"646 604 CURVE",
"236 556 OFFCURVE",
"92 466 OFFCURVE",
"92 264 CURVE SMOOTH",
"92 102 OFFCURVE",
"220 -20 OFFCURVE",
"428 -20 CURVE SMOOTH"
);
}
);
width = 1700;
},
{
anchors = (
{
name = bottom;
position = "{820, 0}";
},
{
name = top;
position = "{850, 1034}";
}
);
layerId = "58254875-FB9E-4C1D-8B15-704836B9A7CF";
paths = (
{
closed = 1;
nodes = (
"548 -26 OFFCURVE",
"730 52 OFFCURVE",
"814 242 CURVE",
"858 114 OFFCURVE",
"1014 -26 OFFCURVE",
"1202 -26 CURVE SMOOTH",
"1326 -26 OFFCURVE",
"1450 0 OFFCURVE",
"1594 68 CURVE",
"1524 254 LINE",
"1408 202 OFFCURVE",
"1324 180 OFFCURVE",
"1232 180 CURVE SMOOTH",
"1064 180 OFFCURVE",
"950 314 OFFCURVE",
"950 544 CURVE SMOOTH",
"950 772 OFFCURVE",
"1074 866 OFFCURVE",
"1184 866 CURVE SMOOTH",
"1306 866 OFFCURVE",
"1376 756 OFFCURVE",
"1360 634 CURVE",
"1182 634 LINE",
"1114 634 OFFCURVE",
"1054 562 OFFCURVE",
"1026 470 CURVE",
"1586 470 LINE",
"1704 814 OFFCURVE",
"1494 1060 OFFCURVE",
"1198 1060 CURVE SMOOTH {name = hr02;}",
"1060 1060 OFFCURVE",
"910 974 OFFCURVE",
"834 840 CURVE",
"758 982 OFFCURVE",
"626 1056 OFFCURVE",
"500 1056 CURVE SMOOTH {name = hr01;}",
"406 1056 OFFCURVE",
"270 1034 OFFCURVE",
"152 980 CURVE",
"220 804 LINE",
"314 838 OFFCURVE",
"388 850 OFFCURVE",
"454 850 CURVE SMOOTH",
"594 850 OFFCURVE",
"674 760 OFFCURVE",
"674 622 CURVE SMOOTH",
"674 530 LINE",
"674 324 OFFCURVE",
"588 180 OFFCURVE",
"448 180 CURVE SMOOTH",
"378 180 OFFCURVE",
"322 232 OFFCURVE",
"322 302 CURVE SMOOTH",
"322 368 OFFCURVE",
"366 424 OFFCURVE",
"466 440 CURVE",
"550 456 OFFCURVE",
"588 532 OFFCURVE",
"602 626 CURVE",
"180 594 OFFCURVE",
"54 442 OFFCURVE",
"54 276 CURVE SMOOTH",
"54 88 OFFCURVE",
"200 -26 OFFCURVE",
"414 -26 CURVE SMOOTH"
);
}
);
width = 1700;
}
);
unicode = 00E6;
},
{
color = 6;
glyphname = b;
layers = (
{
anchors = (
{
name = bottom;
position = "{580, 0}";
},
{
name = top;
position = "{260, 1516}";
}
);
layerId = "BAA2CE79-BA31-4701-835E-3D9478C3F4B2";
paths = (
{
closed = 1;
nodes = (
"854 -20 OFFCURVE",
"1058 204 OFFCURVE",
"1058 522 CURVE SMOOTH",
"1058 870 OFFCURVE",
"854 1046 OFFCURVE",
"636 1046 CURVE SMOOTH",
"576 1046 OFFCURVE",
"490 1026 OFFCURVE",
"420 992 CURVE {name = hr00;}",
"462 930 OFFCURVE",
"514 898 OFFCURVE",
"574 902 CURVE SMOOTH",
"746 912 OFFCURVE",
"862 786 OFFCURVE",
"862 522 CURVE SMOOTH",
"862 286 OFFCURVE",
"744 124 OFFCURVE",
"554 124 CURVE SMOOTH",
"494 124 OFFCURVE",
"416 132 OFFCURVE",
"352 156 CURVE",
"352 1516 LINE",
"166 1516 LINE",
"166 80 LINE",
"280 14 OFFCURVE",
"410 -20 OFFCURVE",
"554 -20 CURVE SMOOTH"
);
}
);
width = 1164;
},
{
anchors = (
{
name = bottom;
position = "{608, 0}";
},
{
name = top;
position = "{286, 1516}";
}
);
layerId = "58254875-FB9E-4C1D-8B15-704836B9A7CF";
paths = (
{
closed = 1;
nodes = (
"924 -30 OFFCURVE",
"1136 228 OFFCURVE",
"1136 554 CURVE SMOOTH",
"1136 794 OFFCURVE",
"978 1052 OFFCURVE",
"724 1052 CURVE SMOOTH",
"656 1052 OFFCURVE",
"572 1036 OFFCURVE",
"496 1004 CURVE",
"536 922 OFFCURVE",
"572 846 OFFCURVE",
"660 850 CURVE SMOOTH {name = hr00;}",
"794 856 OFFCURVE",
"838 682 OFFCURVE",
"838 554 CURVE SMOOTH",
"838 334 OFFCURVE",
"742 176 OFFCURVE",
"586 176 CURVE SMOOTH",
"532 176 OFFCURVE",
"486 180 OFFCURVE",
"424 196 CURVE",
"424 1516 LINE",
"146 1516 LINE",
"146 84 LINE",
"308 0 OFFCURVE",
"440 -30 OFFCURVE",
"586 -30 CURVE SMOOTH"
);
}
);
width = 1220;
}
);
unicode = 0062;
},
{
color = 6;
glyphname = c;
layers = (
{
anchors = (
{
name = bottom;
position = "{514, 0}";
},
{
name = top;
position = "{512, 1034}";
}
);
layerId = "BAA2CE79-BA31-4701-835E-3D9478C3F4B2";
paths = (
{
closed = 1;
nodes = (
"628 -20 OFFCURVE",
"728 -4 OFFCURVE",
"836 50 CURVE",
"786 182 LINE",
"694 140 OFFCURVE",
"624 124 OFFCURVE",
"566 124 CURVE SMOOTH",
"412 124 OFFCURVE",
"282 248 OFFCURVE",
"282 518 CURVE SMOOTH",
"282 786 OFFCURVE",
"414 910 OFFCURVE",
"566 910 CURVE SMOOTH",
"626 910 OFFCURVE",
"688 902 OFFCURVE",
"764 882 CURVE",
"810 1012 LINE",
"730 1042 OFFCURVE",
"638 1054 OFFCURVE",
"566 1054 CURVE SMOOTH",
"308 1054 OFFCURVE",
"84 864 OFFCURVE",
"84 518 CURVE SMOOTH",
"84 170 OFFCURVE",
"298 -20 OFFCURVE",
"566 -20 CURVE SMOOTH {name = hr00;}"
);
}
);
width = 854;
},
{
anchors = (
{
name = bottom;
position = "{518, 0}";
},
{
name = top;
position = "{522, 1034}";
}
);
layerId = "58254875-FB9E-4C1D-8B15-704836B9A7CF";
paths = (
{
closed = 1;
nodes = (
"664 -26 OFFCURVE",
"758 -4 OFFCURVE",
"862 44 CURVE",
"794 228 LINE",
"708 194 OFFCURVE",
"648 180 OFFCURVE",
"592 180 CURVE SMOOTH",
"448 180 OFFCURVE",
"352 308 OFFCURVE",
"352 518 CURVE SMOOTH",
"352 726 OFFCURVE",
"448 854 OFFCURVE",
"592 854 CURVE SMOOTH",
"636 854 OFFCURVE",
"702 846 OFFCURVE",
"766 830 CURVE",
"834 1016 LINE",
"754 1046 OFFCURVE",
"664 1060 OFFCURVE",
"592 1060 CURVE SMOOTH {name = hr00;}",
"314 1060 OFFCURVE",
"56 880 OFFCURVE",
"56 518 CURVE SMOOTH",
"56 134 OFFCURVE",
"314 -26 OFFCURVE",
"592 -26 CURVE SMOOTH"
);
}
);
width = 860;
}
);
unicode = 0063;
},
{
color = 6;
glyphname = d;
layers = (
{
anchors = (
{
name = bottom;
position = "{598, 0}";
},
{
name = center;
position = "{838, 1280}";
},
{
name = top;
position = "{928, 1516}";
},
{
name = topright;
position = "{1156, 1516}";
}
);
layerId = "BAA2CE79-BA31-4701-835E-3D9478C3F4B2";
paths = (
{
closed = 1;
nodes = (
"624 -20 OFFCURVE",
"744 12 OFFCURVE",
"826 106 CURVE",
"842 140 LINE",
"846 108 LINE",
"866 54 OFFCURVE",
"884 28 OFFCURVE",
"916 0 CURVE {name = hr01;}",
"1050 0 LINE",
"1034 70 OFFCURVE",
"1020 182 OFFCURVE",
"1020 342 CURVE SMOOTH",
"1020 1516 LINE",
"834 1516 LINE",
"834 270 LINE",
"752 170 OFFCURVE",
"664 124 OFFCURVE",
"572 124 CURVE {name = hr02;}",
"396 124 OFFCURVE",
"300 290 OFFCURVE",
"300 522 CURVE",
"300 794 OFFCURVE",
"440 906 OFFCURVE",
"578 902 CURVE SMOOTH",
"672 900 OFFCURVE",
"730 946 OFFCURVE",
"766 1012 CURVE",
"694 1038 OFFCURVE",
"626 1046 OFFCURVE",
"566 1046 CURVE SMOOTH",
"328 1046 OFFCURVE",
"102 842 OFFCURVE",
"102 522 CURVE",
"102 216 OFFCURVE",
"262 -20 OFFCURVE",
"542 -20 CURVE"
);
}
);
width = 1196;
},
{
anchors = (
{
name = bottom;
position = "{618, 0}";
},
{
name = center;
position = "{832, 1270}";
},
{
name = top;
position = "{944, 1516}";
},
{
name = topright;
position = "{1222, 1516}";
}
);
layerId = "58254875-FB9E-4C1D-8B15-704836B9A7CF";
paths = (
{
closed = 1;
nodes = (
"600 -26 OFFCURVE",
"680 2 OFFCURVE",
"784 96 CURVE",
"818 140 LINE",
"828 94 LINE",
"842 56 OFFCURVE",
"864 18 OFFCURVE",
"898 0 CURVE",
"1112 0 LINE {name = hr01;}",
"1090 94 OFFCURVE",
"1082 178 OFFCURVE",
"1082 252 CURVE",
"1082 1516 LINE",
"804 1516 LINE",
"804 320 LINE",
"720 224 OFFCURVE",
"648 180 OFFCURVE",
"572 180 CURVE",
"438 180 OFFCURVE",
"360 338 OFFCURVE",
"360 524 CURVE",
"360 712 OFFCURVE",
"418 846 OFFCURVE",
"582 856 CURVE SMOOTH",
"648 862 OFFCURVE",
"696 924 OFFCURVE",
"732 1016 CURVE",
"628 1046 OFFCURVE",
"572 1052 OFFCURVE",
"504 1052 CURVE SMOOTH",
"274 1052 OFFCURVE",
"64 806 OFFCURVE",
"64 524 CURVE",
"64 208 OFFCURVE",
"232 -26 OFFCURVE",
"522 -26 CURVE"
);
}
);
width = 1238;
}
);
unicode = 0064;
},
{
color = 6;
glyphname = eth;
layers = (
{
layerId = "58254875-FB9E-4C1D-8B15-704836B9A7CF";
paths = (
{
closed = 1;
nodes = (
"862 -26 OFFCURVE",
"1100 210 OFFCURVE",
"1100 518 CURVE SMOOTH {name = hr00;}",
"1100 836 OFFCURVE",
"944 1098 OFFCURVE",
"720 1288 CURVE",
"880 1364 LINE",
"822 1482 LINE",
"602 1376 LINE",
"516 1436 OFFCURVE",
"422 1484 OFFCURVE",
"326 1524 CURVE",
"240 1372 LINE",
"296 1346 OFFCURVE",
"352 1316 OFFCURVE",
"408 1284 CURVE",
"250 1208 LINE",
"304 1092 LINE",
"534 1200 LINE",
"602 1150 OFFCURVE",
"662 1092 OFFCURVE",
"712 1030 CURVE",
"666 1050 OFFCURVE",
"610 1060 OFFCURVE",
"564 1060 CURVE SMOOTH",
"264 1060 OFFCURVE",
"28 824 OFFCURVE",
"28 518 CURVE SMOOTH",
"28 184 OFFCURVE",
"264 -26 OFFCURVE",
"564 -26 CURVE SMOOTH"
);
},
{
closed = 1;
nodes = (
"408 178 OFFCURVE",
"324 330 OFFCURVE",
"324 518 CURVE SMOOTH",
"324 704 OFFCURVE",
"408 856 OFFCURVE",
"564 856 CURVE SMOOTH",
"720 856 OFFCURVE",
"802 704 OFFCURVE",
"802 518 CURVE SMOOTH",
"802 330 OFFCURVE",
"720 178 OFFCURVE",
"564 178 CURVE SMOOTH"
);
}
);
width = 1114;
},
{
associatedMasterId = "BAA2CE79-BA31-4701-835E-3D9478C3F4B2";
layerId = "B084D0AC-863B-426F-B1CA-331EEA2CDE19";
name = "Aug 21 18, 17:02";
paths = (
{
closed = 1;
nodes = (
"80 170 OFFCURVE",
"294 -20 OFFCURVE",
"562 -20 CURVE SMOOTH",
"820 -20 OFFCURVE",
"1044 170 OFFCURVE",
"1044 518 CURVE SMOOTH {name = hr00;}",
"1044 902 OFFCURVE",
"788 1212 OFFCURVE",
"692 1292 CURVE",
"872 1378 LINE",
"830 1466 LINE",
"606 1358 LINE",
"520 1420 OFFCURVE",
"420 1476 OFFCURVE",
"324 1520 CURVE",
"260 1404 LINE",
"334 1368 OFFCURVE",
"396 1334 OFFCURVE",
"456 1290 CURVE",
"258 1192 LINE",
"296 1106 LINE",
"546 1226 LINE",
"764 1062 OFFCURVE",
"846 856 OFFCURVE",
"846 518 CURVE SMOOTH",
"846 248 OFFCURVE",
"714 124 OFFCURVE",
"562 124 CURVE SMOOTH",
"408 124 OFFCURVE",
"278 248 OFFCURVE",
"278 518 CURVE SMOOTH",
"278 786 OFFCURVE",
"410 910 OFFCURVE",
"540 910 CURVE SMOOTH",
"614 910 OFFCURVE",
"656 966 OFFCURVE",
"680 1036 CURVE",
"626 1050 OFFCURVE",
"594 1054 OFFCURVE",
"562 1054 CURVE SMOOTH",
"304 1054 OFFCURVE",
"80 864 OFFCURVE",
"80 518 CURVE SMOOTH"
);
}
);
width = 1114;
},
{
layerId = "BAA2CE79-BA31-4701-835E-3D9478C3F4B2";
paths = (
{
closed = 1;
nodes = (
"820 -20 OFFCURVE",
"1044 170 OFFCURVE",
"1044 518 CURVE {name = hr00;}",
"1044 902 OFFCURVE",
"788 1212 OFFCURVE",
"692 1292 CURVE",
"872 1378 LINE",
"830 1466 LINE",
"606 1358 LINE",
"520 1420 OFFCURVE",
"420 1476 OFFCURVE",
"324 1520 CURVE",
"260 1404 LINE",
"334 1368 OFFCURVE",
"396 1334 OFFCURVE",
"456 1290 CURVE",
"258 1192 LINE",
"296 1106 LINE",
"546 1226 LINE",
"618 1172 OFFCURVE",
"696 1094 OFFCURVE",
"782 974 CURVE",
"714 1026 OFFCURVE",
"640 1054 OFFCURVE",
"562 1054 CURVE SMOOTH",
"304 1054 OFFCURVE",
"80 864 OFFCURVE",
"80 518 CURVE SMOOTH",
"80 170 OFFCURVE",
"294 -20 OFFCURVE",
"562 -20 CURVE SMOOTH"
);
},
{
closed = 1;
nodes = (
"408 124 OFFCURVE",
"278 248 OFFCURVE",
"278 518 CURVE SMOOTH",
"278 786 OFFCURVE",
"410 910 OFFCURVE",
"562 910 CURVE SMOOTH",
"714 910 OFFCURVE",
"846 786 OFFCURVE",
"846 518 CURVE SMOOTH",
"846 248 OFFCURVE",
"714 124 OFFCURVE",
"562 124 CURVE SMOOTH"
);
}
);
width = 1114;
}
);
unicode = 00F0;
},
{
color = 6;
glyphname = e;
layers = (
{
anchors = (
{
name = bottom;
position = "{558, 0}";
},
{
name = ogonek;
position = "{840, 0}";
},
{
name = top;
position = "{574, 1034}";
}
);
layerId = "BAA2CE79-BA31-4701-835E-3D9478C3F4B2";
paths = (
{
closed = 1;
nodes = (
"692 -20 OFFCURVE",
"816 -2 OFFCURVE",
"944 64 CURVE",
"894 196 LINE",
"780 138 OFFCURVE",
"708 124 OFFCURVE",
"616 124 CURVE SMOOTH",
"434 124 OFFCURVE",
"298 286 OFFCURVE",
"298 524 CURVE SMOOTH",
"298 770 OFFCURVE",
"414 910 OFFCURVE",
"582 910 CURVE SMOOTH",
"712 910 OFFCURVE",
"812 788 OFFCURVE",
"794 634 CURVE {name = hr00;}",
"540 634 LINE",
"444 634 OFFCURVE",
"398 576 OFFCURVE",
"370 500 CURVE",
"950 500 LINE",
"1038 786 OFFCURVE",
"876 1054 OFFCURVE",
"602 1054 CURVE SMOOTH",
"300 1054 OFFCURVE",
"112 850 OFFCURVE",
"112 526 CURVE SMOOTH",
"112 212 OFFCURVE",
"302 -20 OFFCURVE",
"596 -20 CURVE SMOOTH"
);
}
);
width = 1088;
},
{
anchors = (
{
name = bottom;
position = "{592, 0}";
},
{
name = ogonek;
position = "{852, 0}";
},
{
name = top;
position = "{592, 1034}";
}
);
layerId = "58254875-FB9E-4C1D-8B15-704836B9A7CF";
paths = (
{
closed = 1;
nodes = (
"742 -26 OFFCURVE",
"866 0 OFFCURVE",
"1010 68 CURVE",
"940 254 LINE",
"824 202 OFFCURVE",
"740 180 OFFCURVE",
"648 180 CURVE SMOOTH",
"480 180 OFFCURVE",
"366 314 OFFCURVE",
"366 544 CURVE SMOOTH",
"366 772 OFFCURVE",
"490 866 OFFCURVE",
"600 866 CURVE SMOOTH",
"722 866 OFFCURVE",
"792 756 OFFCURVE",
"776 634 CURVE {name = hr00;}",
"598 634 LINE",
"530 634 OFFCURVE",
"470 562 OFFCURVE",
"442 470 CURVE",
"1002 470 LINE",
"1120 814 OFFCURVE",
"910 1060 OFFCURVE",
"614 1060 CURVE SMOOTH",
"324 1060 OFFCURVE",
"90 864 OFFCURVE",
"90 534 CURVE SMOOTH",
"90 264 OFFCURVE",
"252 -26 OFFCURVE",
"618 -26 CURVE SMOOTH"
);
}
);
width = 1128;
}
);
unicode = 0065;
},
{
color = 6;
glyphname = f;
layers = (
{
anchors = (
{
name = bottom;
position = "{270, 0}";
},
{
name = top;
position = "{552, 1516}";
}
);
layerId = "BAA2CE79-BA31-4701-835E-3D9478C3F4B2";
paths = (
{
closed = 1;
nodes = (
"356 0 LINE",
"356 1110 LINE SMOOTH",
"356 1310 OFFCURVE",
"476 1390 OFFCURVE",
"588 1390 CURVE SMOOTH",
"630 1390 OFFCURVE",
"682 1384 OFFCURVE",
"766 1352 CURVE",
"808 1474 LINE",
"716 1514 OFFCURVE",
"632 1526 OFFCURVE",
"566 1526 CURVE SMOOTH",
"322 1526 OFFCURVE",
"182 1354 OFFCURVE",
"182 1090 CURVE SMOOTH",
"182 1034 LINE",
"10 992 LINE",
"10 896 LINE {name = hr00;}",
"182 896 LINE",
"182 0 LINE"
);
},
{
closed = 1;
nodes = (
"718 896 LINE",
"718 1034 LINE",
"598 1034 LINE",
"502 1034 OFFCURVE",
"456 972 OFFCURVE",
"428 896 CURVE"
);
}
);
width = 780;
},
{
anchors = (
{
name = bottom;
position = "{342, 0}";
},
{
name = top;
position = "{630, 1516}";
}
);
layerId = "58254875-FB9E-4C1D-8B15-704836B9A7CF";
paths = (
{
closed = 1;
nodes = (
"474 0 LINE",
"474 1090 LINE SMOOTH",
"474 1228 OFFCURVE",
"548 1320 OFFCURVE",
"678 1320 CURVE SMOOTH",
"724 1320 OFFCURVE",
"774 1310 OFFCURVE",
"852 1288 CURVE",
"914 1466 LINE",
"810 1512 OFFCURVE",
"714 1526 OFFCURVE",
"648 1526 CURVE SMOOTH",
"380 1526 OFFCURVE",
"210 1352 OFFCURVE",
"210 1090 CURVE SMOOTH",
"210 1034 LINE {name = hr02;}",
"44 994 LINE",
"44 836 LINE {name = hr01;}",
"210 836 LINE",
"210 0 LINE"
);
},
{
closed = 1;
nodes = (
"830 836 LINE",
"830 1034 LINE",
"742 1034 LINE",
"626 1034 OFFCURVE",
"568 924 OFFCURVE",
"542 836 CURVE"
);
}
);
width = 874;
}
);
unicode = 0066;
},
{
color = 6;
glyphname = g;
layers = (
{
anchors = (
{
name = bottom;
position = "{568, -482}";
},
{
name = top;
position = "{572, 1034}";
}
);
layerId = "BAA2CE79-BA31-4701-835E-3D9478C3F4B2";
paths = (
{
closed = 1;
nodes = (
"810 -500 OFFCURVE",
"992 -298 OFFCURVE",
"992 0 CURVE",
"992 990 LINE",
"854 1036 OFFCURVE",
"750 1054 OFFCURVE",
"638 1054 CURVE SMOOTH",
"328 1054 OFFCURVE",
"108 838 OFFCURVE",
"108 512 CURVE {name = hr00;}",
"108 186 OFFCURVE",
"304 -32 OFFCURVE",
"542 -12 CURVE SMOOTH",
"602 -6 OFFCURVE",
"676 18 OFFCURVE",
"742 62 CURVE",
"694 122 OFFCURVE",
"638 142 OFFCURVE",
"580 136 CURVE SMOOTH",
"396 116 OFFCURVE",
"304 286 OFFCURVE",
"304 512 CURVE",
"304 768 OFFCURVE",
"438 910 OFFCURVE",
"638 910 CURVE SMOOTH",
"698 910 OFFCURVE",
"748 904 OFFCURVE",
"810 888 CURVE",
"810 -22 LINE",
"810 -250 OFFCURVE",
"670 -356 OFFCURVE",
"502 -356 CURVE SMOOTH",
"418 -356 OFFCURVE",
"322 -336 OFFCURVE",
"208 -280 CURVE",
"156 -416 LINE",
"288 -484 OFFCURVE",
"414 -500 OFFCURVE",
"518 -500 CURVE SMOOTH"
);
}
);
width = 1142;
},
{
anchors = (
{
name = bottom;
position = "{588, -482}";
},
{
name = top;
position = "{614, 1034}";
}
);
layerId = "58254875-FB9E-4C1D-8B15-704836B9A7CF";
paths = (
{
closed = 1;
nodes = (
"820 -500 OFFCURVE",
"1058 -366 OFFCURVE",
"1058 0 CURVE",
"1058 998 LINE",
"860 1048 OFFCURVE",
"760 1058 OFFCURVE",
"646 1058 CURVE SMOOTH",
"290 1058 OFFCURVE",
"82 798 OFFCURVE",
"82 480 CURVE",
"82 242 OFFCURVE",
"232 -18 OFFCURVE",
"488 -18 CURVE SMOOTH",
"556 -18 OFFCURVE",
"640 12 OFFCURVE",
"714 52 CURVE",
"670 128 OFFCURVE",
"632 192 OFFCURVE",
"552 190 CURVE SMOOTH",
"416 186 OFFCURVE",
"380 352 OFFCURVE",
"380 480 CURVE {name = hr00;}",
"380 700 OFFCURVE",
"476 852 OFFCURVE",
"658 852 CURVE SMOOTH",
"686 852 OFFCURVE",
"734 848 OFFCURVE",
"786 836 CURVE",
"786 -22 LINE",
"786 -206 OFFCURVE",
"660 -300 OFFCURVE",
"512 -300 CURVE SMOOTH",
"428 -300 OFFCURVE",
"336 -284 OFFCURVE",
"202 -230 CURVE",
"132 -416 LINE",
"288 -484 OFFCURVE",
"424 -500 OFFCURVE",
"528 -500 CURVE SMOOTH"
);
}
);
width = 1182;
}
);
unicode = 0067;
},
{
color = 6;
glyphname = h;
layers = (
{
anchors = (
{
name = bottom;
position = "{582, 0}";
},
{
name = center;
position = "{364, 1280}";
},
{
name = top;
position = "{260, 1516}";
}
);
layerId = "BAA2CE79-BA31-4701-835E-3D9478C3F4B2";
paths = (
{
closed = 1;
nodes = (
"352 0 LINE",
"352 1516 LINE",
"166 1516 LINE",
"166 0 LINE {name = hr00;}"
);
},
{
closed = 1;
nodes = (
"1004 0 LINE",
"1004 732 LINE SMOOTH",
"1004 980 OFFCURVE",
"878 1054 OFFCURVE",
"724 1054 CURVE SMOOTH",
"650 1054 OFFCURVE",
"564 1032 OFFCURVE",
"422 948 CURVE",
"478 890 OFFCURVE",
"540 876 OFFCURVE",
"618 894 CURVE SMOOTH",
"654 902 OFFCURVE",
"668 910 OFFCURVE",
"700 910 CURVE SMOOTH",
"778 910 OFFCURVE",
"812 844 OFFCURVE",
"812 752 CURVE",
"812 0 LINE"
);
}
);
width = 1164;
},
{
anchors = (
{
name = bottom;
position = "{608, 0}";
},
{
name = center;
position = "{418, 1270}";
},
{
name = top;
position = "{286, 1516}";
}
);
layerId = "58254875-FB9E-4C1D-8B15-704836B9A7CF";
paths = (
{
closed = 1;
nodes = (
"424 0 LINE",
"424 1516 LINE",
"146 1516 LINE",
"146 0 LINE {name = hr00;}"
);
},
{
closed = 1;
nodes = (
"1070 0 LINE",
"1070 738 LINE SMOOTH",
"1070 956 OFFCURVE",
"930 1060 OFFCURVE",
"792 1060 CURVE SMOOTH",
"718 1060 OFFCURVE",
"626 1046 OFFCURVE",
"496 972 CURVE",
"534 900 OFFCURVE",
"576 834 OFFCURVE",
"636 838 CURVE SMOOTH",
"670 840 OFFCURVE",
"680 848 OFFCURVE",
"704 848 CURVE SMOOTH",
"764 848 OFFCURVE",
"792 800 OFFCURVE",
"792 734 CURVE",
"792 0 LINE"
);
}
);
width = 1216;
}
);
unicode = 0068;
},
{
color = 6;
glyphname = idotless;
layers = (
{
anchors = (
{
name = bottom;
position = "{256, 0}";
},
{
name = ogonek;
position = "{352, 0}";
},
{
name = top;
position = "{256, 1034}";
}
);
layerId = "BAA2CE79-BA31-4701-835E-3D9478C3F4B2";
paths = (
{
closed = 1;
nodes = (
"352 0 LINE",
"352 1034 LINE",
"160 1034 LINE",
"160 0 LINE"
);
}
);
width = 512;
},
{
anchors = (
{
name = bottom;
position = "{280, 0}";
},
{
name = ogonek;
position = "{420, 0}";
},
{
name = top;
position = "{280, 1034}";
}
);
layerId = "58254875-FB9E-4C1D-8B15-704836B9A7CF";
paths = (
{
closed = 1;
nodes = (
"420 0 LINE",
"420 1034 LINE",
"140 1034 LINE",
"140 0 LINE"
);
}
);
width = 560;
}
);
unicode = 0131;
},
{
color = 6;
glyphname = j;
layers = (
{
layerId = "BAA2CE79-BA31-4701-835E-3D9478C3F4B2";
paths = (
{
closed = 1;
nodes = (
"334 -286 OFFCURVE",
"392 -134 OFFCURVE",
"392 78 CURVE",
"392 1034 LINE {name = hr01;}",
"202 1034 LINE",
"202 78 LINE SMOOTH",
"202 -110 OFFCURVE",
"168 -202 OFFCURVE",
"-50 -390 CURVE",
"36 -496 LINE"
);
},
{
closed = 1;
nodes = (
"368 1214 OFFCURVE",
"420 1264 OFFCURVE",
"420 1334 CURVE SMOOTH",
"420 1406 OFFCURVE",
"368 1458 OFFCURVE",
"296 1458 CURVE SMOOTH",
"226 1458 OFFCURVE",
"178 1406 OFFCURVE",
"178 1334 CURVE",
"178 1264 OFFCURVE",
"226 1214 OFFCURVE",
"296 1214 CURVE SMOOTH"
);
}
);
width = 558;
},
{
layerId = "58254875-FB9E-4C1D-8B15-704836B9A7CF";
paths = (
{
closed = 1;
nodes = (
"356 -294 OFFCURVE",
"444 -156 OFFCURVE",
"444 96 CURVE",
"444 1034 LINE",
"166 1034 LINE",
"166 96 LINE SMOOTH",
"166 -100 OFFCURVE",
"128 -182 OFFCURVE",
"-70 -352 CURVE",
"48 -498 LINE"
);
},
{
closed = 1;
nodes = (
"400 1170 OFFCURVE",
"472 1242 OFFCURVE",
"472 1334 CURVE SMOOTH",
"472 1428 OFFCURVE",
"400 1502 OFFCURVE",
"306 1502 CURVE SMOOTH",
"214 1502 OFFCURVE",
"142 1428 OFFCURVE",
"142 1334 CURVE SMOOTH {name = hr01;}",
"142 1242 OFFCURVE",
"214 1170 OFFCURVE",
"306 1170 CURVE SMOOTH"
);
}
);
width = 590;
}
);
unicode = 006A;
},
{
color = 6;
glyphname = k;
layers = (
{
anchors = (
{
name = bottom;
position = "{622, 0}";
},
{
name = top;
position = "{260, 1516}";
}
);
layerId = "BAA2CE79-BA31-4701-835E-3D9478C3F4B2";
paths = (
{
closed = 1;
nodes = (
"1114 0 LINE",
"724 670 LINE",
"1054 1034 LINE",
"834 1034 LINE",
"508 656 LINE SMOOTH",
"434 570 OFFCURVE",
"422 444 OFFCURVE",
"452 366 CURVE",
"582 514 LINE",
"606 540 LINE",
"626 502 LINE",
"902 0 LINE"
);
},
{
closed = 1;
nodes = (
"352 0 LINE {name = hr00;}",
"352 1516 LINE",
"166 1516 LINE",
"166 0 LINE"
);
}
);
width = 1162;
},
{
anchors = (
{
name = bottom;
position = "{654, 0}";
},
{
name = top;
position = "{286, 1516}";
}
);
layerId = "58254875-FB9E-4C1D-8B15-704836B9A7CF";
paths = (
{
closed = 1;
nodes = (
"1212 0 LINE",
"814 676 LINE",
"1150 1034 LINE",
"828 1034 LINE",
"648 816 LINE SMOOTH",
"552 698 OFFCURVE",
"488 544 OFFCURVE",
"518 360 CURVE",
"626 474 LINE",
"654 514 LINE",
"668 466 LINE",
"904 0 LINE"
);
},
{
closed = 1;
nodes = (
"424 0 LINE {name = hr00;}",
"424 1516 LINE",
"146 1516 LINE",
"146 0 LINE"
);
}
);
width = 1248;
}
);
unicode = 006B;
},
{
color = 6;
glyphname = l;
layers = (
{
anchors = (
{
name = bottom;
position = "{262, 0}";
},
{
name = center;
position = "{262, 900}";
},
{
name = top;
position = "{262, 1516}";
},
{
name = topright;
position = "{468, 1516}";
}
);
layerId = "BAA2CE79-BA31-4701-835E-3D9478C3F4B2";
paths = (
{
closed = 1;
nodes = (
"352 0 LINE {name = hr00;}",
"352 1516 LINE",
"170 1516 LINE",
"170 0 LINE"
);
}
);
width = 508;
},
{
anchors = (
{
name = bottom;
position = "{290, 0}";
},
{
name = center;
position = "{290, 900}";
},
{
name = top;
position = "{290, 1516}";
},
{
name = topright;
position = "{546, 1516}";
}
);
layerId = "58254875-FB9E-4C1D-8B15-704836B9A7CF";
paths = (
{
closed = 1;
nodes = (
"428 0 LINE {name = hr00;}",
"428 1516 LINE",
"150 1516 LINE",
"150 0 LINE"
);
}
);
width = 564;
}
);
unicode = 006C;
},
{
color = 6;
glyphname = m;
layers = (
{
anchors = (
{
name = bottom;
position = "{910, 0}";
},
{
name = top;
position = "{910, 1034}";
}
);
layerId = "BAA2CE79-BA31-4701-835E-3D9478C3F4B2";
paths = (
{
closed = 1;
nodes = (
"1648 0 LINE",
"1648 732 LINE SMOOTH",
"1648 980 OFFCURVE",
"1510 1054 OFFCURVE",
"1352 1054 CURVE SMOOTH",
"1280 1054 OFFCURVE",
"1182 1032 OFFCURVE",
"1040 948 CURVE",
"1096 890 OFFCURVE",
"1162 876 OFFCURVE",
"1240 894 CURVE SMOOTH",
"1276 902 OFFCURVE",
"1300 910 OFFCURVE",
"1332 910 CURVE SMOOTH",
"1416 910 OFFCURVE",
"1456 844 OFFCURVE",
"1456 752 CURVE",
"1456 0 LINE"
);
},
{
closed = 1;
nodes = (
"362 0 LINE",
"362 814 LINE SMOOTH",
"362 894 OFFCURVE",
"348 962 OFFCURVE",
"284 1034 CURVE",
"140 1034 LINE",
"162 940 OFFCURVE",
"170 856 OFFCURVE",
"170 782 CURVE SMOOTH",
"170 0 LINE"
);
},
{
closed = 1;
nodes = (
"1006 0 LINE",
"1006 732 LINE SMOOTH",
"1006 980 OFFCURVE",
"876 1054 OFFCURVE",
"720 1054 CURVE SMOOTH {name = hr01;}",
"648 1054 OFFCURVE",
"558 1034 OFFCURVE",
"416 950 CURVE",
"472 892 OFFCURVE",
"534 878 OFFCURVE",
"612 896 CURVE SMOOTH",
"646 904 OFFCURVE",
"666 910 OFFCURVE",
"698 910 CURVE SMOOTH",
"776 910 OFFCURVE",
"814 844 OFFCURVE",
"814 752 CURVE",
"814 0 LINE"
);
}
);
width = 1804;
},
{
anchors = (
{
name = bottom;
position = "{928, 0}";
},
{
name = top;
position = "{928, 1034}";
}
);
layerId = "58254875-FB9E-4C1D-8B15-704836B9A7CF";
paths = (
{
closed = 1;
nodes = (
"1704 0 LINE",
"1704 738 LINE SMOOTH",
"1704 956 OFFCURVE",
"1558 1060 OFFCURVE",
"1420 1060 CURVE SMOOTH",
"1326 1060 OFFCURVE",
"1234 1034 OFFCURVE",
"1088 974 CURVE",
"1124 902 OFFCURVE",
"1176 832 OFFCURVE",
"1240 836 CURVE SMOOTH",
"1274 838 OFFCURVE",
"1302 848 OFFCURVE",
"1326 848 CURVE SMOOTH",
"1400 848 OFFCURVE",
"1426 800 OFFCURVE",
"1426 734 CURVE",
"1426 0 LINE"
);
},
{
closed = 1;
nodes = (
"430 0 LINE",
"430 814 LINE SMOOTH",
"430 894 OFFCURVE",
"416 962 OFFCURVE",
"352 1034 CURVE",
"120 1034 LINE",
"142 940 OFFCURVE",
"150 856 OFFCURVE",
"150 782 CURVE SMOOTH",
"150 0 LINE"
);
},
{
closed = 1;
nodes = (
"1068 0 LINE",
"1068 738 LINE SMOOTH",
"1068 956 OFFCURVE",
"936 1060 OFFCURVE",
"798 1060 CURVE SMOOTH",
"704 1060 OFFCURVE",
"618 1034 OFFCURVE",
"474 976 CURVE",
"510 904 OFFCURVE",
"558 834 OFFCURVE",
"622 838 CURVE SMOOTH {name = hr01;}",
"654 840 OFFCURVE",
"676 848 OFFCURVE",
"700 848 CURVE SMOOTH",
"768 848 OFFCURVE",
"788 800 OFFCURVE",
"788 734 CURVE",
"788 0 LINE"
);
}
);
width = 1860;
}
);
unicode = 006D;
},
{
color = 6;
glyphname = n;
layers = (
{
anchors = (
{
name = bottom;
position = "{594, 0}";
},
{
name = top;
position = "{600, 1034}";
}
);
layerId = "BAA2CE79-BA31-4701-835E-3D9478C3F4B2";
paths = (
{
closed = 1;
nodes = (
"1018 0 LINE",
"1018 732 LINE SMOOTH",
"1018 980 OFFCURVE",
"880 1054 OFFCURVE",
"720 1054 CURVE SMOOTH {name = hr01;}",
"648 1054 OFFCURVE",
"558 1032 OFFCURVE",
"416 948 CURVE",
"472 890 OFFCURVE",
"538 876 OFFCURVE",
"616 894 CURVE SMOOTH",
"650 902 OFFCURVE",
"670 910 OFFCURVE",
"702 910 CURVE SMOOTH",
"784 910 OFFCURVE",
"826 844 OFFCURVE",
"826 752 CURVE",
"826 0 LINE"
);
},
{
closed = 1;
nodes = (
"362 0 LINE",
"362 814 LINE SMOOTH",
"362 894 OFFCURVE",
"348 962 OFFCURVE",
"284 1034 CURVE",
"140 1034 LINE",
"162 940 OFFCURVE",
"170 856 OFFCURVE",
"170 782 CURVE SMOOTH",
"170 0 LINE"
);
}
);
width = 1192;
},
{
anchors = (
{
name = bottom;
position = "{570, 0}";
},
{
name = top;
position = "{568, 1034}";
}
);
layerId = "58254875-FB9E-4C1D-8B15-704836B9A7CF";
paths = (
{
closed = 1;
nodes = (
"1030 0 LINE",
"1030 738 LINE SMOOTH",
"1030 956 OFFCURVE",
"890 1060 OFFCURVE",
"752 1060 CURVE SMOOTH",
"660 1060 OFFCURVE",
"566 1038 OFFCURVE",
"434 968 CURVE",
"472 904 OFFCURVE",
"512 832 OFFCURVE",
"576 836 CURVE {name = hr01;}",
"614 838 OFFCURVE",
"634 848 OFFCURVE",
"660 848 CURVE SMOOTH",
"728 848 OFFCURVE",
"752 800 OFFCURVE",
"752 734 CURVE",
"752 0 LINE"
);
},
{
closed = 1;
nodes = (
"386 0 LINE",
"386 814 LINE SMOOTH",
"386 894 OFFCURVE",
"370 962 OFFCURVE",
"306 1034 CURVE",
"74 1034 LINE",
"96 940 OFFCURVE",
"106 856 OFFCURVE",
"106 782 CURVE SMOOTH",
"106 0 LINE"
);
}
);
width = 1156;
}
);
unicode = 006E;
},
{
color = 6;
glyphname = o;
layers = (
{
anchors = (
{
name = bottom;
position = "{562, 0}";
},
{
name = center;
position = "{562, 518}";
},
{
name = ogonek;
position = "{1018, 0}";
},
{
name = top;
position = "{562, 1034}";
},
{
name = topright;
position = "{1092, 1034}";
}
);
layerId = "BAA2CE79-BA31-4701-835E-3D9478C3F4B2";
paths = (
{
closed = 1;
nodes = (
"820 -20 OFFCURVE",
"1044 170 OFFCURVE",
"1044 518 CURVE SMOOTH",
"1044 818 OFFCURVE",
"868 1054 OFFCURVE",
"562 1054 CURVE",
"326 1054 OFFCURVE",
"80 884 OFFCURVE",
"80 518 CURVE SMOOTH {name = hr00;}",
"80 170 OFFCURVE",
"294 -20 OFFCURVE",
"562 -20 CURVE SMOOTH"
);
},
{
closed = 1;
nodes = (
"380 124 OFFCURVE",
"278 286 OFFCURVE",
"278 518 CURVE SMOOTH",
"278 786 OFFCURVE",
"410 910 OFFCURVE",
"562 910 CURVE",
"714 910 OFFCURVE",
"846 786 OFFCURVE",
"846 518 CURVE SMOOTH",
"846 304 OFFCURVE",
"756 124 OFFCURVE",
"562 124 CURVE"
);
}
);
width = 1132;
},
{
anchors = (
{
name = bottom;
position = "{604, 0}";
},
{
name = center;
position = "{604, 518}";
},
{
name = ogonek;
position = "{1098, 0}";
},
{
name = top;
position = "{604, 1034}";
},
{
name = topright;
position = "{1180, 1034}";
}
);
layerId = "58254875-FB9E-4C1D-8B15-704836B9A7CF";
paths = (
{
closed = 1;
nodes = (
"868 -26 OFFCURVE",
"1140 178 OFFCURVE",
"1140 518 CURVE {name = hr00;}",
"1140 836 OFFCURVE",
"922 1060 OFFCURVE",
"604 1060 CURVE",
"374 1060 OFFCURVE",
"68 894 OFFCURVE",
"68 518 CURVE SMOOTH",
"68 170 OFFCURVE",
"322 -26 OFFCURVE",
"604 -26 CURVE"
);
},
{
closed = 1;
nodes = (
"458 178 OFFCURVE",
"364 318 OFFCURVE",
"364 518 CURVE SMOOTH",
"364 704 OFFCURVE",
"448 856 OFFCURVE",
"604 856 CURVE SMOOTH",
"760 856 OFFCURVE",
"842 704 OFFCURVE",
"842 518 CURVE SMOOTH",
"842 330 OFFCURVE",
"760 178 OFFCURVE",
"604 178 CURVE"
);
}
);
width = 1220;
}
);
unicode = 006F;
},
{
color = 6;
glyphname = oe;
layers = (
{
anchors = (
{
name = bottom;
position = "{944, 0}";
},
{
name = top;
position = "{944, 1034}";
}
);
layerId = "BAA2CE79-BA31-4701-835E-3D9478C3F4B2";
paths = (
{
closed = 1;
nodes = (
"708 -20 OFFCURVE",
"846 66 OFFCURVE",
"928 212 CURVE",
"942 240 LINE",
"960 210 LINE",
"1046 70 OFFCURVE",
"1172 -20 OFFCURVE",
"1330 -20 CURVE SMOOTH",
"1426 -20 OFFCURVE",
"1550 -2 OFFCURVE",
"1678 64 CURVE",
"1628 196 LINE",
"1514 138 OFFCURVE",
"1442 124 OFFCURVE",
"1350 124 CURVE SMOOTH",
"1170 124 OFFCURVE",
"1034 282 OFFCURVE",
"1032 518 CURVE {name = hr00;}",
"1038 776 OFFCURVE",
"1152 910 OFFCURVE",
"1316 910 CURVE SMOOTH",
"1446 910 OFFCURVE",
"1546 788 OFFCURVE",
"1528 634 CURVE",
"1274 634 LINE SMOOTH",
"1178 634 OFFCURVE",
"1132 576 OFFCURVE",
"1104 500 CURVE",
"1684 500 LINE",
"1772 786 OFFCURVE",
"1610 1054 OFFCURVE",
"1336 1054 CURVE SMOOTH",
"1172 1054 OFFCURVE",
"1030 976 OFFCURVE",
"954 836 CURVE",
"938 804 LINE",
"922 834 LINE",
"836 988 OFFCURVE",
"710 1054 OFFCURVE",
"562 1054 CURVE SMOOTH",
"304 1054 OFFCURVE",
"80 864 OFFCURVE",
"80 518 CURVE SMOOTH",
"80 170 OFFCURVE",
"294 -20 OFFCURVE",
"562 -20 CURVE SMOOTH"
);
},
{
closed = 1;
nodes = (
"408 124 OFFCURVE",
"278 248 OFFCURVE",
"278 518 CURVE SMOOTH",
"278 786 OFFCURVE",
"410 910 OFFCURVE",
"562 910 CURVE SMOOTH",
"710 910 OFFCURVE",
"840 792 OFFCURVE",
"846 518 CURVE",
"840 242 OFFCURVE",
"710 124 OFFCURVE",
"562 124 CURVE SMOOTH"
);
}
);
width = 1822;
},
{
anchors = (
{
name = bottom;
position = "{982, 0}";
},
{
name = top;
position = "{982, 1034}";
}
);
layerId = "58254875-FB9E-4C1D-8B15-704836B9A7CF";
paths = (
{
closed = 1;
nodes = (
"746 -26 OFFCURVE",
"884 62 OFFCURVE",
"964 172 CURVE",
"986 216 LINE",
"1004 170 LINE",
"1074 58 OFFCURVE",
"1218 -26 OFFCURVE",
"1382 -26 CURVE SMOOTH",
"1506 -26 OFFCURVE",
"1630 0 OFFCURVE",
"1774 68 CURVE",
"1704 254 LINE",
"1588 202 OFFCURVE",
"1504 180 OFFCURVE",
"1412 180 CURVE SMOOTH",
"1244 180 OFFCURVE",
"1130 314 OFFCURVE",
"1130 544 CURVE SMOOTH",
"1130 772 OFFCURVE",
"1254 866 OFFCURVE",
"1364 866 CURVE SMOOTH",
"1486 866 OFFCURVE",
"1556 756 OFFCURVE",
"1540 634 CURVE {name = hr00;}",
"1362 634 LINE",
"1294 634 OFFCURVE",
"1234 562 OFFCURVE",
"1206 470 CURVE",
"1766 470 LINE",
"1884 814 OFFCURVE",
"1674 1060 OFFCURVE",
"1378 1060 CURVE SMOOTH",
"1236 1060 OFFCURVE",
"1090 996 OFFCURVE",
"1004 876 CURVE",
"980 828 LINE",
"960 874 LINE",
"878 996 OFFCURVE",
"738 1060 OFFCURVE",
"604 1060 CURVE SMOOTH",
"304 1060 OFFCURVE",
"68 824 OFFCURVE",
"68 518 CURVE SMOOTH",
"68 184 OFFCURVE",
"304 -26 OFFCURVE",
"604 -26 CURVE SMOOTH"
);
},
{
closed = 1;
nodes = (
"448 178 OFFCURVE",
"364 330 OFFCURVE",
"364 518 CURVE SMOOTH",
"364 704 OFFCURVE",
"448 856 OFFCURVE",
"604 856 CURVE SMOOTH",
"760 856 OFFCURVE",
"842 704 OFFCURVE",
"842 518 CURVE SMOOTH",
"842 330 OFFCURVE",
"760 178 OFFCURVE",
"604 178 CURVE SMOOTH"
);
}
);
width = 1892;
}
);
leftMetricsKey = o;
rightMetricsKey = e;
unicode = 0153;
},
{
color = 6;
glyphname = p;
layers = (
{
anchors = (
{
name = bottom;
position = "{270, -482}";
},
{
name = top;
position = "{616, 1034}";
}
);
layerId = "BAA2CE79-BA31-4701-835E-3D9478C3F4B2";
paths = (
{
closed = 1;
nodes = (
"362 -482 LINE",
"362 764 LINE",
"444 864 OFFCURVE",
"534 910 OFFCURVE",
"624 910 CURVE {name = hr02;}",
"802 910 OFFCURVE",
"896 744 OFFCURVE",
"896 512 CURVE",
"896 242 OFFCURVE",
"756 128 OFFCURVE",
"618 132 CURVE SMOOTH",
"526 134 OFFCURVE",
"468 88 OFFCURVE",
"430 22 CURVE",
"502 -4 OFFCURVE",
"570 -12 OFFCURVE",
"630 -12 CURVE SMOOTH",
"870 -12 OFFCURVE",
"1094 192 OFFCURVE",
"1094 512 CURVE",
"1094 818 OFFCURVE",
"936 1054 OFFCURVE",
"656 1054 CURVE",
"572 1054 OFFCURVE",
"454 1022 OFFCURVE",
"370 930 CURVE",
"354 894 LINE",
"350 926 LINE",
"332 980 OFFCURVE",
"314 1006 OFFCURVE",
"280 1034 CURVE {name = hr01;}",
"146 1034 LINE",
"162 964 OFFCURVE",
"178 852 OFFCURVE",
"178 692 CURVE SMOOTH",
"178 -482 LINE"
);
}
);
width = 1196;
},
{
anchors = (
{
name = bottom;
position = "{286, -482}";
},
{
name = top;
position = "{682, 1034}";
}
);
layerId = "58254875-FB9E-4C1D-8B15-704836B9A7CF";
paths = (
{
closed = 1;
nodes = (
"424 -482 LINE",
"424 714 LINE",
"506 810 OFFCURVE",
"578 854 OFFCURVE",
"656 854 CURVE",
"788 854 OFFCURVE",
"868 696 OFFCURVE",
"868 510 CURVE",
"868 322 OFFCURVE",
"810 188 OFFCURVE",
"644 178 CURVE SMOOTH",
"578 174 OFFCURVE",
"532 110 OFFCURVE",
"496 18 CURVE",
"600 -12 OFFCURVE",
"656 -18 OFFCURVE",
"724 -18 CURVE SMOOTH",
"954 -18 OFFCURVE",
"1164 228 OFFCURVE",
"1164 510 CURVE",
"1164 826 OFFCURVE",
"994 1060 OFFCURVE",
"706 1060 CURVE",
"626 1060 OFFCURVE",
"546 1030 OFFCURVE",
"440 932 CURVE",
"410 892 LINE",
"404 932 LINE",
"388 972 OFFCURVE",
"364 1014 OFFCURVE",
"330 1034 CURVE",
"116 1034 LINE {name = hr01;}",
"138 940 OFFCURVE",
"146 856 OFFCURVE",
"146 782 CURVE",
"146 -482 LINE"
);
}
);
width = 1242;
}
);
unicode = 0070;
},
{
color = 6;
glyphname = thorn;
layers = (
{
anchors = (
{
name = bottom;
position = "{272, -482}";
},
{
name = top;
position = "{272, 1516}";
}
);
layerId = "BAA2CE79-BA31-4701-835E-3D9478C3F4B2";
paths = (
{
closed = 1;
nodes = (
"362 -482 LINE",
"362 16 LINE",
"438 -12 OFFCURVE",
"492 -20 OFFCURVE",
"564 -20 CURVE SMOOTH",
"864 -20 OFFCURVE",
"1068 204 OFFCURVE",
"1068 522 CURVE SMOOTH",
"1068 870 OFFCURVE",
"864 1046 OFFCURVE",
"646 1046 CURVE SMOOTH",
"586 1046 OFFCURVE",
"500 1026 OFFCURVE",
"430 992 CURVE",
"472 930 OFFCURVE",
"524 898 OFFCURVE",
"584 902 CURVE SMOOTH",
"756 912 OFFCURVE",
"872 786 OFFCURVE",
"872 522 CURVE SMOOTH",
"872 286 OFFCURVE",
"754 124 OFFCURVE",
"564 124 CURVE SMOOTH",
"504 124 OFFCURVE",
"426 132 OFFCURVE",
"362 156 CURVE",
"362 1516 LINE",
"182 1516 LINE {name = hr00;}",
"182 -482 LINE"
);
}
);
width = 1196;
},
{
anchors = (
{
name = bottom;
position = "{278, -482}";
},
{
name = top;
position = "{278, 1516}";
}
);
layerId = "58254875-FB9E-4C1D-8B15-704836B9A7CF";
paths = (
{
closed = 1;
nodes = (
"410 -482 LINE",
"410 -16 LINE",
"462 -26 OFFCURVE",
"516 -30 OFFCURVE",
"572 -30 CURVE SMOOTH",
"910 -30 OFFCURVE",
"1122 228 OFFCURVE",
"1122 554 CURVE SMOOTH",
"1122 794 OFFCURVE",
"964 1052 OFFCURVE",
"710 1052 CURVE SMOOTH",
"642 1052 OFFCURVE",
"558 1036 OFFCURVE",
"482 1004 CURVE",
"522 922 OFFCURVE",
"558 846 OFFCURVE",
"646 850 CURVE SMOOTH",
"780 856 OFFCURVE",
"824 682 OFFCURVE",
"824 554 CURVE SMOOTH",
"824 334 OFFCURVE",
"728 176 OFFCURVE",
"572 176 CURVE SMOOTH",
"518 176 OFFCURVE",
"472 180 OFFCURVE",
"410 196 CURVE",
"410 1516 LINE",
"146 1516 LINE {name = hr00;}",
"146 -482 LINE"
);
}
);
width = 1196;
}
);
unicode = 00FE;
},
{
color = 6;
glyphname = q;
layers = (
{
anchors = (
{
name = bottom;
position = "{904, -482}";
},
{
name = top;
position = "{606, 1034}";
}
);
layerId = "BAA2CE79-BA31-4701-835E-3D9478C3F4B2";
paths = (
{
closed = 1;
nodes = (
"994 -482 LINE",
"994 990 LINE",
"856 1036 OFFCURVE",
"752 1054 OFFCURVE",
"640 1054 CURVE SMOOTH",
"330 1054 OFFCURVE",
"110 838 OFFCURVE",
"110 512 CURVE SMOOTH",
"110 186 OFFCURVE",
"306 -32 OFFCURVE",
"544 -12 CURVE SMOOTH",
"604 -6 OFFCURVE",
"678 18 OFFCURVE",
"744 62 CURVE {name = hr00;}",
"696 122 OFFCURVE",
"640 142 OFFCURVE",
"582 136 CURVE SMOOTH",
"398 116 OFFCURVE",
"306 286 OFFCURVE",
"306 512 CURVE SMOOTH",
"306 768 OFFCURVE",
"440 910 OFFCURVE",
"640 910 CURVE SMOOTH",
"700 910 OFFCURVE",
"750 904 OFFCURVE",
"812 888 CURVE",
"812 -482 LINE"
);
}
);
width = 1164;
},
{
anchors = (
{
name = bottom;
position = "{934, -482}";
},
{
name = top;
position = "{636, 1034}";
}
);
layerId = "58254875-FB9E-4C1D-8B15-704836B9A7CF";
paths = (
{
closed = 1;
nodes = (
"1070 -482 LINE",
"1070 998 LINE",
"870 1048 OFFCURVE",
"770 1058 OFFCURVE",
"658 1058 CURVE SMOOTH",
"300 1058 OFFCURVE",
"92 798 OFFCURVE",
"92 480 CURVE SMOOTH",
"92 242 OFFCURVE",
"244 -18 OFFCURVE",
"498 -18 CURVE SMOOTH",
"566 -18 OFFCURVE",
"650 12 OFFCURVE",
"726 52 CURVE",
"680 128 OFFCURVE",
"642 192 OFFCURVE",
"562 190 CURVE SMOOTH {name = hr00;}",
"426 186 OFFCURVE",
"390 352 OFFCURVE",
"390 480 CURVE SMOOTH",
"390 700 OFFCURVE",
"486 852 OFFCURVE",
"668 852 CURVE SMOOTH",
"696 852 OFFCURVE",
"744 848 OFFCURVE",
"798 836 CURVE",
"798 -482 LINE"
);
}
);
width = 1210;
}
);
unicode = 0071;
},
{
color = 6;
glyphname = r;
layers = (
{
anchors = (
{
name = bottom;
position = "{264, 0}";
},
{
name = top;
position = "{438, 1034}";
}
);
layerId = "BAA2CE79-BA31-4701-835E-3D9478C3F4B2";
paths = (
{
closed = 1;
nodes = (
"352 0 LINE",
"352 552 LINE SMOOTH",
"352 792 OFFCURVE",
"484 888 OFFCURVE",
"608 888 CURVE SMOOTH {name = hr01;}",
"632 888 OFFCURVE",
"662 886 OFFCURVE",
"704 876 CURVE",
"728 1032 LINE",
"692 1042 OFFCURVE",
"660 1048 OFFCURVE",
"630 1048 CURVE SMOOTH",
"522 1048 OFFCURVE",
"416 976 OFFCURVE",
"364 874 CURVE",
"348 838 LINE",
"348 874 LINE",
"336 938 OFFCURVE",
"322 990 OFFCURVE",
"280 1034 CURVE {name = hr02;}",
"142 1034 LINE",
"164 940 OFFCURVE",
"174 806 OFFCURVE",
"174 684 CURVE SMOOTH",
"174 0 LINE"
);
}
);
width = 782;
},
{
anchors = (
{
name = bottom;
position = "{264, 0}";
},
{
name = top;
position = "{430, 1034}";
}
);
layerId = "58254875-FB9E-4C1D-8B15-704836B9A7CF";
paths = (
{
closed = 1;
nodes = (
"394 0 LINE",
"394 482 LINE SMOOTH",
"394 680 OFFCURVE",
"476 824 OFFCURVE",
"612 824 CURVE SMOOTH",
"644 824 OFFCURVE",
"676 820 OFFCURVE",
"730 804 CURVE",
"762 1030 LINE",
"714 1046 OFFCURVE",
"674 1054 OFFCURVE",
"632 1054 CURVE SMOOTH {name = hr01;}",
"546 1054 OFFCURVE",
"452 992 OFFCURVE",
"398 886 CURVE",
"378 838 LINE",
"374 886 LINE",
"364 954 OFFCURVE",
"334 1016 OFFCURVE",
"312 1034 CURVE",
"100 1034 LINE {name = hr02;}",
"124 940 OFFCURVE",
"132 856 OFFCURVE",
"132 782 CURVE SMOOTH",
"132 0 LINE"
);
}
);
width = 782;
}
);
unicode = 0072;
},
{
color = 6;
glyphname = s;
layers = (
{
anchors = (
{
name = bottom;
position = "{426, 0}";
},
{
name = top;
position = "{428, 1034}";
}
);
layerId = "BAA2CE79-BA31-4701-835E-3D9478C3F4B2";
paths = (
{
closed = 1;
nodes = (
"614 -20 OFFCURVE",
"772 112 OFFCURVE",
"772 264 CURVE SMOOTH",
"772 610 OFFCURVE",
"288 570 OFFCURVE",
"288 784 CURVE SMOOTH",
"288 866 OFFCURVE",
"356 910 OFFCURVE",
"448 910 CURVE SMOOTH",
"504 910 OFFCURVE",
"576 898 OFFCURVE",
"660 870 CURVE",
"706 1000 LINE",
"594 1040 OFFCURVE",
"504 1052 OFFCURVE",
"428 1052 CURVE SMOOTH",
"220 1052 OFFCURVE",
"108 912 OFFCURVE",
"108 784 CURVE SMOOTH",
"108 450 OFFCURVE",
"592 492 OFFCURVE",
"592 274 CURVE SMOOTH",
"592 186 OFFCURVE",
"534 124 OFFCURVE",
"414 124 CURVE SMOOTH",
"330 124 OFFCURVE",
"222 146 OFFCURVE",
"120 196 CURVE {name = hr00;}",
"72 64 LINE",
"228 -12 OFFCURVE",
"336 -20 OFFCURVE",
"438 -20 CURVE SMOOTH"
);
}
);
width = 832;
},
{
anchors = (
{
name = bottom;
position = "{436, 0}";
},
{
name = top;
position = "{448, 1034}";
}
);
layerId = "58254875-FB9E-4C1D-8B15-704836B9A7CF";
paths = (
{
closed = 1;
nodes = (
"658 -20 OFFCURVE",
"832 102 OFFCURVE",
"832 296 CURVE SMOOTH",
"832 606 OFFCURVE",
"348 596 OFFCURVE",
"348 766 CURVE SMOOTH",
"348 822 OFFCURVE",
"396 854 OFFCURVE",
"472 854 CURVE SMOOTH",
"540 854 OFFCURVE",
"592 848 OFFCURVE",
"696 820 CURVE",
"760 1000 LINE",
"632 1042 OFFCURVE",
"544 1052 OFFCURVE",
"454 1052 CURVE SMOOTH",
"180 1052 OFFCURVE",
"84 882 OFFCURVE",
"84 754 CURVE SMOOTH",
"84 438 OFFCURVE",
"568 464 OFFCURVE",
"568 286 CURVE SMOOTH",
"568 236 OFFCURVE",
"524 186 OFFCURVE",
"426 186 CURVE SMOOTH",
"342 186 OFFCURVE",
"248 202 OFFCURVE",
"124 250 CURVE {name = hr00;}",
"60 64 LINE",
"238 -10 OFFCURVE",
"368 -20 OFFCURVE",
"472 -20 CURVE SMOOTH"
);
}
);
width = 872;
}
);
unicode = 0073;
},
{
color = 6;
glyphname = germandbls;
layers = (
{
anchors = (
{
name = bottom;
position = "{606, 0}";
},
{
name = top;
position = "{576, 1516}";
}
);
layerId = "BAA2CE79-BA31-4701-835E-3D9478C3F4B2";
paths = (
{
closed = 1;
nodes = (
"958 -24 OFFCURVE",
"1094 108 OFFCURVE",
"1094 262 CURVE SMOOTH",
"1094 578 OFFCURVE",
"746 588 OFFCURVE",
"746 802 CURVE SMOOTH",
"746 880 OFFCURVE",
"798 924 OFFCURVE",
"890 968 CURVE",
"940 1048 OFFCURVE",
"960 1106 OFFCURVE",
"960 1176 CURVE SMOOTH {name = hr01;}",
"960 1362 OFFCURVE",
"824 1526 OFFCURVE",
"576 1526 CURVE SMOOTH",
"332 1526 OFFCURVE",
"182 1354 OFFCURVE",
"182 1090 CURVE SMOOTH",
"182 0 LINE",
"356 0 LINE",
"356 1110 LINE SMOOTH",
"356 1310 OFFCURVE",
"486 1390 OFFCURVE",
"598 1390 CURVE SMOOTH",
"702 1390 OFFCURVE",
"802 1302 OFFCURVE",
"802 1176 CURVE SMOOTH",
"802 1142 OFFCURVE",
"798 1112 OFFCURVE",
"790 1082 CURVE",
"644 1022 OFFCURVE",
"566 918 OFFCURVE",
"566 802 CURVE SMOOTH",
"566 498 OFFCURVE",
"914 490 OFFCURVE",
"914 272 CURVE SMOOTH {name = hr02;}",
"914 182 OFFCURVE",
"850 120 OFFCURVE",
"770 120 CURVE SMOOTH",
"712 120 OFFCURVE",
"634 134 OFFCURVE",
"546 174 CURVE",
"498 50 LINE",
"624 -14 OFFCURVE",
"708 -24 OFFCURVE",
"788 -24 CURVE SMOOTH"
);
}
);
width = 1134;
},
{
anchors = (
{
name = bottom;
position = "{612, 0}";
},
{
name = top;
position = "{588, 1516}";
}
);
layerId = "58254875-FB9E-4C1D-8B15-704836B9A7CF";
paths = (
{
closed = 1;
nodes = (
"958 -24 OFFCURVE",
"1126 86 OFFCURVE",
"1126 282 CURVE SMOOTH",
"1126 612 OFFCURVE",
"778 628 OFFCURVE",
"778 802 CURVE SMOOTH {name = hr02;}",
"778 870 OFFCURVE",
"824 916 OFFCURVE",
"914 952 CURVE",
"964 1032 OFFCURVE",
"990 1106 OFFCURVE",
"990 1176 CURVE SMOOTH",
"990 1386 OFFCURVE",
"836 1526 OFFCURVE",
"588 1526 CURVE SMOOTH",
"344 1526 OFFCURVE",
"136 1386 OFFCURVE",
"136 1088 CURVE SMOOTH",
"136 -2 LINE",
"402 0 LINE",
"402 1110 LINE SMOOTH",
"402 1246 OFFCURVE",
"486 1326 OFFCURVE",
"602 1326 CURVE SMOOTH",
"704 1326 OFFCURVE",
"772 1262 OFFCURVE",
"772 1176 CURVE SMOOTH {name = hr01;}",
"772 1146 OFFCURVE",
"772 1122 OFFCURVE",
"764 1092 CURVE",
"626 1038 OFFCURVE",
"534 918 OFFCURVE",
"534 802 CURVE SMOOTH",
"534 486 OFFCURVE",
"882 458 OFFCURVE",
"882 288 CURVE SMOOTH",
"882 226 OFFCURVE",
"828 184 OFFCURVE",
"756 184 CURVE SMOOTH",
"716 184 OFFCURVE",
"652 194 OFFCURVE",
"568 230 CURVE",
"498 50 LINE",
"624 -14 OFFCURVE",
"708 -24 OFFCURVE",
"788 -24 CURVE SMOOTH"
);
}
);
width = 1134;
}
);
unicode = 00DF;
},
{
color = 6;
glyphname = t;
layers = (
{
anchors = (
{
name = bottom;
position = "{474, 0}";
},
{
name = center;
position = "{386, 598}";
},
{
name = top;
position = "{292, 1298}";
},
{
name = topright;
position = "{784, 1298}";
}
);
layerId = "BAA2CE79-BA31-4701-835E-3D9478C3F4B2";
paths = (
{
closed = 1;
nodes = (
"606 -22 OFFCURVE",
"648 -12 OFFCURVE",
"750 22 CURVE",
"706 148 LINE",
"636 126 OFFCURVE",
"594 118 OFFCURVE",
"542 118 CURVE SMOOTH",
"444 118 OFFCURVE",
"380 222 OFFCURVE",
"380 360 CURVE",
"380 1354 LINE",
"204 1298 LINE",
"204 1034 LINE",
"20 986 LINE",
"20 896 LINE",
"204 896 LINE {name = hr00;}",
"204 382 LINE",
"204 128 OFFCURVE",
"324 -22 OFFCURVE",
"542 -22 CURVE SMOOTH"
);
},
{
closed = 1;
nodes = (
"734 896 LINE",
"734 1034 LINE",
"452 1034 LINE",
"478 958 OFFCURVE",
"526 896 OFFCURVE",
"620 896 CURVE"
);
}
);
width = 852;
},
{
anchors = (
{
name = bottom;
position = "{530, 0}";
},
{
name = center;
position = "{448, 552}";
},
{
name = top;
position = "{340, 1280}";
},
{
name = topright;
position = "{854, 1280}";
}
);
layerId = "58254875-FB9E-4C1D-8B15-704836B9A7CF";
paths = (
{
closed = 1;
nodes = (
"666 -26 OFFCURVE",
"740 -6 OFFCURVE",
"840 28 CURVE",
"782 210 LINE",
"714 186 OFFCURVE",
"666 180 OFFCURVE",
"628 180 CURVE SMOOTH",
"534 180 OFFCURVE",
"472 260 OFFCURVE",
"472 396 CURVE SMOOTH",
"472 1366 LINE",
"208 1280 LINE",
"208 1034 LINE {name = hr02;}",
"42 994 LINE",
"42 836 LINE {name = hr01;}",
"208 836 LINE",
"208 396 LINE",
"208 124 OFFCURVE",
"346 -26 OFFCURVE",
"600 -26 CURVE SMOOTH"
);
},
{
closed = 1;
nodes = (
"830 836 LINE",
"830 1034 LINE",
"540 1034 LINE",
"566 946 OFFCURVE",
"624 836 OFFCURVE",
"740 836 CURVE"
);
}
);
width = 910;
}
);
unicode = 0074;
},
{
color = 6;
glyphname = u;
layers = (
{
anchors = (
{
name = bottom;
position = "{570, 0}";
},
{
name = ogonek;
position = "{1010, 0}";
},
{
name = top;
position = "{570, 1034}";
},
{
name = topright;
position = "{1102, 1034}";
}
);
layerId = "BAA2CE79-BA31-4701-835E-3D9478C3F4B2";
paths = (
{
closed = 1;
nodes = (
"504 -20 OFFCURVE",
"596 2 OFFCURVE",
"738 86 CURVE",
"682 144 OFFCURVE",
"616 158 OFFCURVE",
"538 140 CURVE SMOOTH",
"502 132 OFFCURVE",
"484 124 OFFCURVE",
"452 124 CURVE SMOOTH",
"368 124 OFFCURVE",
"330 190 OFFCURVE",
"330 282 CURVE SMOOTH",
"330 1034 LINE",
"142 1034 LINE",
"142 302 LINE SMOOTH",
"142 54 OFFCURVE",
"274 -20 OFFCURVE",
"432 -20 CURVE SMOOTH {name = hr01;}"
);
},
{
closed = 1;
nodes = (
"1010 0 LINE",
"986 94 OFFCURVE",
"978 178 OFFCURVE",
"978 252 CURVE SMOOTH",
"978 1034 LINE",
"792 1034 LINE",
"792 220 LINE SMOOTH",
"792 140 OFFCURVE",
"806 72 OFFCURVE",
"870 0 CURVE"
);
}
);
width = 1174;
},
{
anchors = (
{
name = bottom;
position = "{608, 0}";
},
{
name = ogonek;
position = "{1104, 20}";
},
{
name = top;
position = "{604, 1034}";
},
{
name = topright;
position = "{1186, 1034}";
}
);
layerId = "58254875-FB9E-4C1D-8B15-704836B9A7CF";
paths = (
{
closed = 1;
nodes = (
"502 -26 OFFCURVE",
"596 -4 OFFCURVE",
"728 66 CURVE",
"690 130 OFFCURVE",
"648 202 OFFCURVE",
"586 198 CURVE {name = hr01;}",
"548 196 OFFCURVE",
"528 186 OFFCURVE",
"502 186 CURVE SMOOTH",
"434 186 OFFCURVE",
"410 234 OFFCURVE",
"410 300 CURVE SMOOTH",
"410 1034 LINE",
"132 1034 LINE",
"132 296 LINE SMOOTH",
"132 78 OFFCURVE",
"272 -26 OFFCURVE",
"410 -26 CURVE SMOOTH"
);
},
{
closed = 1;
nodes = (
"1088 0 LINE",
"1066 94 OFFCURVE",
"1056 178 OFFCURVE",
"1056 252 CURVE SMOOTH",
"1056 1034 LINE",
"776 1034 LINE",
"776 220 LINE SMOOTH",
"776 140 OFFCURVE",
"792 72 OFFCURVE",
"854 0 CURVE"
);
}
);
width = 1226;
}
);
unicode = 0075;
},
{
color = 6;
glyphname = v;
layers = (
{
anchors = (
{
name = bottom;
position = "{516, 0}";
},
{
name = top;
position = "{516, 1034}";
}
);
layerId = "BAA2CE79-BA31-4701-835E-3D9478C3F4B2";
paths = (
{
closed = 1;
nodes = (
"616 0 LINE",
"1004 1034 LINE",
"812 1034 LINE",
"538 228 LINE",
"524 178 LINE",
"508 228 LINE",
"232 1034 LINE",
"32 1034 LINE",
"420 0 LINE {name = hr00;}"
);
}
);
width = 1032;
},
{
anchors = (
{
name = bottom;
position = "{550, 0}";
},
{
name = top;
position = "{552, 1034}";
}
);
layerId = "58254875-FB9E-4C1D-8B15-704836B9A7CF";
paths = (
{
closed = 1;
nodes = (
"698 0 LINE",
"1086 1034 LINE",
"796 1034 LINE",
"566 302 LINE",
"552 242 LINE",
"538 302 LINE",
"306 1034 LINE",
"12 1034 LINE",
"400 0 LINE {name = hr00;}"
);
}
);
width = 1094;
}
);
unicode = 0076;
userData = {
com.typemytype.robofont.guides = (
{
angle = 0;
isGlobal = 0;
magnetic = 5;
x = 0;
y = 130;
}
);
};
},
{
color = 6;
glyphname = w;
layers = (
{
anchors = (
{
name = bottom;
position = "{878, 0}";
},
{
name = top;
position = "{868, 1034}";
}
);
layerId = "BAA2CE79-BA31-4701-835E-3D9478C3F4B2";
paths = (
{
closed = 1;
nodes = (
"1314 0 LINE",
"1678 1034 LINE",
"1488 1034 LINE",
"1234 228 LINE",
"1220 178 LINE",
"1206 228 LINE",
"950 1034 LINE",
"750 1034 LINE",
"1114 0 LINE"
);
},
{
closed = 1;
nodes = (
"642 0 LINE {name = hr00;}",
"800 380 LINE",
"844 506 OFFCURVE",
"812 650 OFFCURVE",
"752 716 CURVE",
"570 228 LINE",
"556 178 LINE",
"542 228 LINE",
"286 1034 LINE",
"86 1034 LINE",
"452 0 LINE"
);
}
);
width = 1720;
},
{
anchors = (
{
name = bottom;
position = "{882, 0}";
},
{
name = top;
position = "{866, 1034}";
}
);
layerId = "58254875-FB9E-4C1D-8B15-704836B9A7CF";
paths = (
{
closed = 1;
nodes = (
"1366 0 LINE",
"1730 1034 LINE",
"1440 1034 LINE",
"1234 302 LINE",
"1220 242 LINE",
"1206 302 LINE",
"998 1034 LINE",
"702 1034 LINE",
"1068 0 LINE {name = hr00;}"
);
},
{
closed = 1;
nodes = (
"696 0 LINE",
"770 174 LINE",
"842 346 OFFCURVE",
"782 578 OFFCURVE",
"718 694 CURVE",
"570 302 LINE",
"556 242 LINE",
"542 302 LINE",
"334 1034 LINE",
"40 1034 LINE",
"404 0 LINE"
);
}
);
width = 1744;
}
);
unicode = 0077;
userData = {
com.typemytype.robofont.guides = (
{
angle = 0;
isGlobal = 0;
magnetic = 5;
x = 0;
y = 135;
}
);
};
},
{
color = 6;
glyphname = x;
layers = (
{
anchors = (
{
name = bottom;
position = "{488, 0}";
},
{
name = top;
position = "{500, 1034}";
}
);
layerId = "BAA2CE79-BA31-4701-835E-3D9478C3F4B2";
paths = (
{
closed = 1;
nodes = (
"946 0 LINE",
"586 526 LINE",
"926 1034 LINE",
"730 1034 LINE",
"512 676 LINE",
"498 634 LINE",
"486 676 LINE",
"272 1034 LINE",
"62 1034 LINE",
"404 518 LINE",
"518 344 OFFCURVE",
"628 174 OFFCURVE",
"738 0 CURVE {name = hr00;}"
);
},
{
closed = 1;
nodes = (
"238 0 LINE",
"374 208 LINE",
"430 292 OFFCURVE",
"406 386 OFFCURVE",
"352 450 CURVE",
"44 0 LINE"
);
}
);
width = 998;
},
{
anchors = (
{
name = bottom;
position = "{500, 0}";
},
{
name = top;
position = "{512, 1034}";
}
);
layerId = "58254875-FB9E-4C1D-8B15-704836B9A7CF";
paths = (
{
closed = 1;
nodes = (
"1006 0 LINE",
"644 512 LINE",
"986 1034 LINE",
"682 1034 LINE",
"524 744 LINE",
"508 702 LINE",
"496 744 LINE",
"340 1034 LINE",
"22 1034 LINE {name = hr00;}",
"372 500 LINE",
"482 334 OFFCURVE",
"592 166 OFFCURVE",
"694 0 CURVE"
);
},
{
closed = 1;
nodes = (
"306 0 LINE",
"380 136 LINE",
"436 250 OFFCURVE",
"364 376 OFFCURVE",
"312 440 CURVE",
"4 0 LINE"
);
}
);
width = 1028;
}
);
unicode = 0078;
userData = {
com.typemytype.robofont.guides = (
{
angle = 0;
isGlobal = 0;
magnetic = 5;
x = 0;
y = 340;
}
);
};
},
{
color = 6;
glyphname = y;
layers = (
{
anchors = (
{
name = bottom;
position = "{812, 0}";
},
{
name = top;
position = "{536, 1034}";
}
);
layerId = "BAA2CE79-BA31-4701-835E-3D9478C3F4B2";
paths = (
{
closed = 1;
nodes = (
"492 -490 OFFCURVE",
"556 -260 OFFCURVE",
"662 22 CURVE",
"1028 1034 LINE",
"834 1034 LINE",
"524 74 LINE",
"440 -164 OFFCURVE",
"396 -348 OFFCURVE",
"242 -348 CURVE",
"204 -348 OFFCURVE",
"162 -342 OFFCURVE",
"118 -330 CURVE",
"70 -462 LINE",
"126 -480 OFFCURVE",
"188 -490 OFFCURVE",
"242 -492 CURVE"
);
},
{
closed = 1;
nodes = (
"466 86 OFFCURVE",
"492 230 OFFCURVE",
"448 358 CURVE {name = hr00;}",
"228 1034 LINE",
"32 1034 LINE",
"406 20 LINE"
);
}
);
width = 1058;
},
{
anchors = (
{
name = bottom;
position = "{962, 0}";
},
{
name = top;
position = "{574, 1034}";
}
);
layerId = "58254875-FB9E-4C1D-8B15-704836B9A7CF";
paths = (
{
closed = 1;
nodes = (
"528 -496 OFFCURVE",
"604 -322 OFFCURVE",
"738 22 CURVE",
"1104 1034 LINE",
"818 1034 LINE",
"522 74 LINE",
"444 -164 OFFCURVE",
"394 -292 OFFCURVE",
"254 -292 CURVE {name = hr00;}",
"216 -292 OFFCURVE",
"182 -290 OFFCURVE",
"136 -278 CURVE",
"72 -458 LINE",
"136 -486 OFFCURVE",
"200 -494 OFFCURVE",
"254 -496 CURVE"
);
},
{
closed = 1;
nodes = (
"470 140 OFFCURVE",
"524 388 OFFCURVE",
"470 562 CURVE",
"330 1034 LINE",
"30 1034 LINE",
"402 26 LINE"
);
}
);
width = 1200;
}
);
unicode = 0079;
userData = {
com.typemytype.robofont.guides = (
{
angle = 0;
isGlobal = 0;
magnetic = 5;
x = 0;
y = 130;
}
);
};
},
{
color = 6;
glyphname = z;
layers = (
{
anchors = (
{
name = bottom;
position = "{460, 0}";
},
{
name = top;
position = "{478, 1034}";
}
);
layerId = "BAA2CE79-BA31-4701-835E-3D9478C3F4B2";
paths = (
{
closed = 1;
nodes = (
"848 0 LINE",
"848 136 LINE",
"334 136 LINE",
"288 130 LINE",
"320 164 LINE",
"836 958 LINE",
"836 1034 LINE",
"136 1034 LINE {name = hr00;}",
"136 902 LINE",
"580 902 LINE",
"622 908 LINE",
"592 874 LINE",
"70 76 LINE",
"70 0 LINE"
);
}
);
width = 896;
},
{
anchors = (
{
name = bottom;
position = "{476, 0}";
},
{
name = top;
position = "{476, 1034}";
}
);
layerId = "58254875-FB9E-4C1D-8B15-704836B9A7CF";
paths = (
{
closed = 1;
nodes = (
"870 0 LINE",
"870 196 LINE",
"426 196 LINE",
"382 190 LINE",
"412 224 LINE",
"866 916 LINE",
"866 1034 LINE",
"114 1034 LINE {name = hr00;}",
"114 842 LINE",
"506 842 LINE",
"548 848 LINE",
"518 814 LINE",
"60 118 LINE",
"60 0 LINE"
);
}
);
width = 948;
}
);
unicode = 007A;
userData = {
com.typemytype.robofont.guides = (
{
angle = 0;
isGlobal = 0;
magnetic = 5;
x = 0;
y = 479;
},
{
angle = 0;
isGlobal = 0;
magnetic = 5;
x = 0;
y = 38;
}
);
};
},
{
color = 6;
export = 0;
glyphname = a.001;
layers = (
{
anchors = (
{
name = bottom;
position = "{616, 0}";
},
{
name = ogonek;
position = "{1082, 0}";
},
{
name = top;
position = "{618, 1034}";
}
);
layerId = "BAA2CE79-BA31-4701-835E-3D9478C3F4B2";
paths = (
{
closed = 1;
nodes = (
"584 -2 OFFCURVE",
"656 28 OFFCURVE",
"718 76 CURVE",
"668 134 OFFCURVE",
"612 150 OFFCURVE",
"554 142 CURVE SMOOTH",
"374 118 OFFCURVE",
"284 286 OFFCURVE",
"286 512 CURVE SMOOTH",
"288 768 OFFCURVE",
"418 910 OFFCURVE",
"618 910 CURVE SMOOTH",
"678 910 OFFCURVE",
"728 904 OFFCURVE",
"790 888 CURVE",
"790 194 LINE SMOOTH",
"790 90 OFFCURVE",
"828 24 OFFCURVE",
"870 0 CURVE",
"1004 10 LINE",
"988 80 OFFCURVE",
"972 192 OFFCURVE",
"972 352 CURVE {name = hr00;}",
"972 990 LINE",
"834 1036 OFFCURVE",
"730 1054 OFFCURVE",
"618 1054 CURVE SMOOTH",
"308 1054 OFFCURVE",
"90 838 OFFCURVE",
"90 512 CURVE SMOOTH",
"90 186 OFFCURVE",
"292 -42 OFFCURVE",
"526 -10 CURVE SMOOTH"
);
}
);
width = 1120;
},
{
anchors = (
{
name = bottom;
position = "{558, 0}";
},
{
name = ogonek;
position = "{1002, 0}";
},
{
name = top;
position = "{562, 1034}";
}
);
layerId = "58254875-FB9E-4C1D-8B15-704836B9A7CF";
paths = (
{
closed = 1;
nodes = (
"550 -14 OFFCURVE",
"632 20 OFFCURVE",
"706 64 CURVE",
"654 138 OFFCURVE",
"614 200 OFFCURVE",
"536 194 CURVE SMOOTH {name = hr01;}",
"402 184 OFFCURVE",
"370 352 OFFCURVE",
"370 480 CURVE SMOOTH",
"370 700 OFFCURVE",
"468 852 OFFCURVE",
"650 852 CURVE SMOOTH",
"678 852 OFFCURVE",
"726 848 OFFCURVE",
"780 836 CURVE",
"780 210 LINE SMOOTH",
"780 112 OFFCURVE",
"834 18 OFFCURVE",
"868 0 CURVE",
"1082 0 LINE",
"1058 94 OFFCURVE",
"1050 178 OFFCURVE",
"1050 252 CURVE",
"1050 998 LINE",
"850 1048 OFFCURVE",
"750 1058 OFFCURVE",
"638 1058 CURVE SMOOTH",
"280 1058 OFFCURVE",
"72 798 OFFCURVE",
"72 480 CURVE SMOOTH",
"72 242 OFFCURVE",
"230 -32 OFFCURVE",
"482 -18 CURVE SMOOTH"
);
}
);
width = 1196;
},
{
anchors = (
{
name = bottom;
position = "{586, 0}";
},
{
name = ogonek;
position = "{1004, 10}";
},
{
name = top;
position = "{580, 1034}";
}
);
associatedMasterId = "BAA2CE79-BA31-4701-835E-3D9478C3F4B2";
layerId = "D6F52D5C-CC45-4C78-BFA6-49A819939AB8";
name = "[0]";
width = 1124;
},
{
anchors = (
{
name = bottom;
position = "{616, 0}";
},
{
name = ogonek;
position = "{1082, 0}";
},
{
name = top;
position = "{618, 1034}";
}
);
associatedMasterId = "58254875-FB9E-4C1D-8B15-704836B9A7CF";
layerId = "07B8616B-02FD-4E43-B632-E984E006E8F0";
name = "[0]";
paths = (
{
closed = 1;
nodes = (
"550 -14 OFFCURVE",
"632 20 OFFCURVE",
"706 64 CURVE",
"654 138 OFFCURVE",
"614 200 OFFCURVE",
"536 194 CURVE SMOOTH {name = hr01;}",
"402 184 OFFCURVE",
"370 352 OFFCURVE",
"370 480 CURVE SMOOTH",
"370 700 OFFCURVE",
"468 852 OFFCURVE",
"650 852 CURVE SMOOTH",
"678 852 OFFCURVE",
"726 848 OFFCURVE",
"780 836 CURVE",
"780 210 LINE SMOOTH",
"780 112 OFFCURVE",
"834 18 OFFCURVE",
"868 0 CURVE",
"1082 0 LINE",
"1058 94 OFFCURVE",
"1050 178 OFFCURVE",
"1050 252 CURVE",
"1050 998 LINE",
"850 1048 OFFCURVE",
"750 1058 OFFCURVE",
"638 1058 CURVE SMOOTH",
"280 1058 OFFCURVE",
"72 798 OFFCURVE",
"72 480 CURVE SMOOTH",
"72 242 OFFCURVE",
"230 -32 OFFCURVE",
"482 -18 CURVE SMOOTH"
);
}
);
width = 1196;
}
);
},
{
color = 6;
glyphname = ordfeminine;
layers = (
{
layerId = "BAA2CE79-BA31-4701-835E-3D9478C3F4B2";
paths = (
{
closed = 1;
nodes = (
"394 590 OFFCURVE",
"450 604 OFFCURVE",
"522 676 CURVE",
"538 700 LINE",
"538 676 LINE",
"550 646 OFFCURVE",
"562 620 OFFCURVE",
"590 604 CURVE",
"690 604 LINE",
"678 654 OFFCURVE",
"668 732 OFFCURVE",
"668 844 CURVE {name = hr00;}",
"668 1044 LINE",
"668 1232 OFFCURVE",
"558 1342 OFFCURVE",
"380 1342 CURVE SMOOTH",
"318 1342 OFFCURVE",
"250 1334 OFFCURVE",
"160 1294 CURVE",
"192 1202 LINE",
"258 1226 OFFCURVE",
"304 1236 OFFCURVE",
"354 1236 CURVE SMOOTH",
"482 1236 OFFCURVE",
"530 1164 OFFCURVE",
"530 1054 CURVE",
"530 798 LINE",
"476 726 OFFCURVE",
"408 696 OFFCURVE",
"346 696 CURVE SMOOTH",
"274 696 OFFCURVE",
"234 740 OFFCURVE",
"234 798 CURVE SMOOTH",
"234 850 OFFCURVE",
"256 898 OFFCURVE",
"380 918 CURVE SMOOTH",
"454 928 OFFCURVE",
"474 998 OFFCURVE",
"480 1030 CURVE",
"192 998 OFFCURVE",
"90 930 OFFCURVE",
"90 788 CURVE SMOOTH",
"90 676 OFFCURVE",
"182 590 OFFCURVE",
"328 590 CURVE SMOOTH"
);
}
);
width = 1054;
},
{
layerId = "58254875-FB9E-4C1D-8B15-704836B9A7CF";
paths = (
{
closed = 1;
nodes = (
"384 590 OFFCURVE",
"456 622 OFFCURVE",
"506 676 CURVE",
"522 700 LINE",
"524 676 LINE",
"536 646 OFFCURVE",
"548 624 OFFCURVE",
"570 604 CURVE",
"710 604 LINE",
"698 654 OFFCURVE",
"688 732 OFFCURVE",
"688 844 CURVE {name = hr00;}",
"688 1044 LINE",
"688 1232 OFFCURVE",
"580 1342 OFFCURVE",
"370 1342 CURVE SMOOTH",
"308 1342 OFFCURVE",
"230 1334 OFFCURVE",
"140 1294 CURVE",
"180 1176 LINE",
"238 1198 OFFCURVE",
"294 1206 OFFCURVE",
"344 1206 CURVE SMOOTH",
"440 1206 OFFCURVE",
"510 1164 OFFCURVE",
"510 1054 CURVE",
"510 802 LINE",
"462 742 OFFCURVE",
"402 716 OFFCURVE",
"340 716 CURVE SMOOTH",
"288 716 OFFCURVE",
"254 752 OFFCURVE",
"254 798 CURVE SMOOTH",
"254 846 OFFCURVE",
"282 882 OFFCURVE",
"360 896 CURVE SMOOTH",
"434 910 OFFCURVE",
"454 996 OFFCURVE",
"460 1028 CURVE",
"172 996 OFFCURVE",
"70 920 OFFCURVE",
"70 788 CURVE SMOOTH",
"70 662 OFFCURVE",
"172 590 OFFCURVE",
"302 590 CURVE SMOOTH"
);
}
);
width = 1054;
}
);
unicode = 00AA;
},
{
color = 6;
glyphname = ordmasculine;
layers = (
{
layerId = "BAA2CE79-BA31-4701-835E-3D9478C3F4B2";
paths = (
{
closed = 1;
nodes = (
"624 588 OFFCURVE",
"766 734 OFFCURVE",
"766 966 CURVE",
"766 1218 OFFCURVE",
"608 1342 OFFCURVE",
"428 1342 CURVE",
"218 1342 OFFCURVE",
"90 1174 OFFCURVE",
"90 966 CURVE",
"90 736 OFFCURVE",
"226 588 OFFCURVE",
"428 588 CURVE {name = hr00;}"
);
},
{
closed = 1;
nodes = (
"318 698 OFFCURVE",
"236 788 OFFCURVE",
"236 966 CURVE",
"236 1104 OFFCURVE",
"298 1234 OFFCURVE",
"428 1234 CURVE",
"574 1234 OFFCURVE",
"622 1094 OFFCURVE",
"622 966 CURVE",
"622 824 OFFCURVE",
"556 698 OFFCURVE",
"428 698 CURVE"
);
}
);
width = 860;
},
{
layerId = "58254875-FB9E-4C1D-8B15-704836B9A7CF";
paths = (
{
closed = 1;
nodes = (
"672 588 OFFCURVE",
"786 766 OFFCURVE",
"786 966 CURVE SMOOTH",
"786 1184 OFFCURVE",
"664 1342 OFFCURVE",
"428 1342 CURVE {name = hr00;}",
"196 1342 OFFCURVE",
"70 1174 OFFCURVE",
"70 966 CURVE SMOOTH",
"70 724 OFFCURVE",
"210 588 OFFCURVE",
"428 588 CURVE SMOOTH"
);
},
{
closed = 1;
nodes = (
"306 728 OFFCURVE",
"256 838 OFFCURVE",
"256 966 CURVE SMOOTH",
"256 1104 OFFCURVE",
"320 1204 OFFCURVE",
"428 1204 CURVE SMOOTH",
"542 1204 OFFCURVE",
"602 1106 OFFCURVE",
"602 966 CURVE SMOOTH",
"602 828 OFFCURVE",
"544 728 OFFCURVE",
"428 728 CURVE"
);
}
);
width = 860;
}
);
unicode = 00BA;
},
{
color = 6;
glyphname = zero;
layers = (
{
layerId = "BAA2CE79-BA31-4701-835E-3D9478C3F4B2";
paths = (
{
closed = 1;
nodes = (
"952 -32 OFFCURVE",
"1198 214 OFFCURVE",
"1198 698 CURVE SMOOTH",
"1198 1144 OFFCURVE",
"986 1432 OFFCURVE",
"656 1432 CURVE SMOOTH",
"326 1432 OFFCURVE",
"116 1142 OFFCURVE",
"116 698 CURVE SMOOTH",
"116 247 OFFCURVE",
"333 -32 OFFCURVE",
"658 -32 CURVE SMOOTH"
);
},
{
closed = 1;
nodes = (
"442 112 OFFCURVE",
"312 330 OFFCURVE",
"312 698 CURVE SMOOTH",
"312 1066 OFFCURVE",
"442 1288 OFFCURVE",
"658 1288 CURVE SMOOTH",
"872 1288 OFFCURVE",
"1002 1066 OFFCURVE",
"1002 698 CURVE SMOOTH",
"1002 330 OFFCURVE",
"872 112 OFFCURVE",
"658 112 CURVE SMOOTH"
);
}
);
width = 1322;
},
{
layerId = "58254875-FB9E-4C1D-8B15-704836B9A7CF";
paths = (
{
closed = 1;
nodes = (
"1058 -38 OFFCURVE",
"1250 314 OFFCURVE",
"1250 698 CURVE SMOOTH {name = hr00;}",
"1250 1054 OFFCURVE",
"1076 1438 OFFCURVE",
"658 1438 CURVE SMOOTH",
"294 1438 OFFCURVE",
"66 1140 OFFCURVE",
"66 698 CURVE SMOOTH",
"66 240 OFFCURVE",
"306 -38 OFFCURVE",
"658 -38 CURVE SMOOTH"
);
},
{
closed = 1;
nodes = (
"464 166 OFFCURVE",
"370 374 OFFCURVE",
"370 698 CURVE SMOOTH",
"370 1024 OFFCURVE",
"462 1234 OFFCURVE",
"658 1234 CURVE SMOOTH",
"852 1234 OFFCURVE",
"946 1024 OFFCURVE",
"946 698 CURVE SMOOTH",
"946 374 OFFCURVE",
"852 166 OFFCURVE",
"658 166 CURVE SMOOTH"
);
}
);
width = 1420;
}
);
unicode = 0030;
},
{
color = 6;
glyphname = one;
layers = (
{
layerId = "BAA2CE79-BA31-4701-835E-3D9478C3F4B2";
paths = (
{
closed = 1;
nodes = (
"480 0 LINE",
"480 1402 LINE",
"406 1402 LINE",
"-10 1178 LINE",
"60 1052 LINE",
"288 1174 LINE",
"288 0 LINE {name = hr00;}"
);
}
);
width = 638;
},
{
layerId = "58254875-FB9E-4C1D-8B15-704836B9A7CF";
paths = (
{
closed = 1;
nodes = (
"514 0 LINE",
"514 1402 LINE",
"406 1402 LINE",
"-40 1162 LINE",
"46 1002 LINE",
"258 1112 LINE",
"258 0 LINE {name = hr00;}"
);
}
);
width = 638;
}
);
unicode = 0031;
},
{
color = 6;
glyphname = two;
layers = (
{
layerId = "BAA2CE79-BA31-4701-835E-3D9478C3F4B2";
paths = (
{
closed = 1;
nodes = (
"964 0 LINE",
"964 160 LINE",
"380 160 LINE",
"336 152 LINE",
"366 186 LINE",
"528 446 OFFCURVE",
"940 740 OFFCURVE",
"940 1060 CURVE SMOOTH {name = hr00;}",
"940 1290 OFFCURVE",
"748 1420 OFFCURVE",
"508 1420 CURVE SMOOTH",
"400 1420 OFFCURVE",
"292 1404 OFFCURVE",
"170 1338 CURVE",
"220 1204 LINE",
"328 1262 OFFCURVE",
"412 1276 OFFCURVE",
"486 1276 CURVE",
"626 1276 OFFCURVE",
"746 1188 OFFCURVE",
"746 1038 CURVE",
"746 774 OFFCURVE",
"378 508 OFFCURVE",
"114 76 CURVE",
"114 0 LINE"
);
}
);
width = 1028;
},
{
layerId = "58254875-FB9E-4C1D-8B15-704836B9A7CF";
paths = (
{
closed = 1;
nodes = (
"1010 0 LINE",
"1010 218 LINE",
"490 218 LINE",
"444 212 LINE",
"476 248 LINE",
"656 466 OFFCURVE",
"988 784 OFFCURVE",
"988 1044 CURVE SMOOTH {name = hr00;}",
"988 1282 OFFCURVE",
"794 1426 OFFCURVE",
"484 1426 CURVE SMOOTH",
"392 1426 OFFCURVE",
"274 1406 OFFCURVE",
"142 1344 CURVE",
"214 1160 LINE",
"314 1204 OFFCURVE",
"402 1222 OFFCURVE",
"464 1222 CURVE",
"594 1222 OFFCURVE",
"692 1150 OFFCURVE",
"692 1024 CURVE",
"692 770 OFFCURVE",
"200 380 OFFCURVE",
"88 118 CURVE",
"88 0 LINE"
);
}
);
width = 1134;
}
);
unicode = 0032;
},
{
color = 6;
glyphname = three;
layers = (
{
layerId = "BAA2CE79-BA31-4701-835E-3D9478C3F4B2";
paths = (
{
closed = 1;
nodes = (
"690 -22 OFFCURVE",
"896 184 OFFCURVE",
"896 414 CURVE SMOOTH",
"896 596 OFFCURVE",
"770 722 OFFCURVE",
"642 768 CURVE",
"598 778 LINE",
"648 794 LINE",
"774 862 OFFCURVE",
"850 980 OFFCURVE",
"850 1108 CURVE SMOOTH {name = hr02;}",
"850 1290 OFFCURVE",
"692 1424 OFFCURVE",
"462 1424 CURVE SMOOTH",
"354 1424 OFFCURVE",
"236 1406 OFFCURVE",
"114 1340 CURVE",
"164 1206 LINE",
"272 1264 OFFCURVE",
"366 1278 OFFCURVE",
"442 1278 CURVE SMOOTH",
"564 1278 OFFCURVE",
"654 1198 OFFCURVE",
"654 1076 CURVE",
"654 932 OFFCURVE",
"518 878 OFFCURVE",
"398 826 CURVE SMOOTH",
"294 784 LINE",
"312 676 LINE",
"538 676 OFFCURVE",
"700 618 OFFCURVE",
"700 418 CURVE SMOOTH {name = hr01;}",
"700 292 OFFCURVE",
"602 124 OFFCURVE",
"400 124 CURVE SMOOTH",
"274 124 OFFCURVE",
"160 168 OFFCURVE",
"106 202 CURVE",
"60 72 LINE",
"126 30 OFFCURVE",
"250 -22 OFFCURVE",
"402 -22 CURVE SMOOTH"
);
}
);
width = 1056;
},
{
layerId = "58254875-FB9E-4C1D-8B15-704836B9A7CF";
paths = (
{
closed = 1;
nodes = (
"706 -22 OFFCURVE",
"948 138 OFFCURVE",
"948 388 CURVE SMOOTH {name = hr01;}",
"948 562 OFFCURVE",
"838 696 OFFCURVE",
"690 754 CURVE",
"644 764 LINE",
"694 784 LINE",
"830 868 OFFCURVE",
"900 974 OFFCURVE",
"900 1092 CURVE SMOOTH",
"900 1302 OFFCURVE",
"704 1424 OFFCURVE",
"454 1424 CURVE SMOOTH",
"344 1424 OFFCURVE",
"220 1406 OFFCURVE",
"66 1342 CURVE",
"134 1156 LINE",
"256 1206 OFFCURVE",
"336 1220 OFFCURVE",
"412 1220 CURVE SMOOTH",
"518 1220 OFFCURVE",
"606 1170 OFFCURVE",
"606 1078 CURVE {name = hr02;}",
"606 964 OFFCURVE",
"496 900 OFFCURVE",
"312 820 CURVE SMOOTH",
"246 792 LINE",
"264 622 LINE",
"488 622 OFFCURVE",
"654 572 OFFCURVE",
"654 392 CURVE SMOOTH",
"654 256 OFFCURVE",
"512 182 OFFCURVE",
"372 182 CURVE SMOOTH",
"292 182 OFFCURVE",
"198 198 OFFCURVE",
"76 252 CURVE",
"10 70 LINE",
"138 14 OFFCURVE",
"270 -22 OFFCURVE",
"416 -22 CURVE SMOOTH"
);
}
);
width = 1056;
}
);
unicode = 0033;
},
{
color = 6;
glyphname = four;
layers = (
{
layerId = "BAA2CE79-BA31-4701-835E-3D9478C3F4B2";
paths = (
{
closed = 1;
nodes = (
"918 0 LINE",
"918 312 LINE",
"1078 312 LINE {name = hr01;}",
"1078 454 LINE",
"918 454 LINE {name = hr02;}",
"918 1402 LINE",
"744 1402 LINE",
"92 434 LINE",
"92 312 LINE",
"674 312 LINE",
"652 356 OFFCURVE",
"588 456 OFFCURVE",
"482 456 CURVE",
"298 456 LINE",
"266 452 LINE",
"288 474 LINE",
"718 1096 LINE",
"748 1146 LINE",
"744 1092 LINE",
"744 0 LINE"
);
}
);
width = 1190;
},
{
layerId = "58254875-FB9E-4C1D-8B15-704836B9A7CF";
paths = (
{
closed = 1;
nodes = (
"966 0 LINE",
"966 282 LINE {name = hr02;}",
"1128 282 LINE",
"1128 484 LINE {name = hr01;}",
"966 484 LINE",
"966 1402 LINE",
"630 1402 LINE",
"46 476 LINE",
"46 282 LINE",
"628 282 LINE",
"602 372 OFFCURVE",
"544 484 OFFCURVE",
"428 484 CURVE",
"356 484 LINE",
"314 482 LINE",
"346 522 LINE",
"674 1046 LINE",
"704 1102 LINE",
"700 1036 LINE",
"700 0 LINE"
);
}
);
width = 1190;
}
);
unicode = 0034;
},
{
color = 6;
glyphname = five;
layers = (
{
layerId = "BAA2CE79-BA31-4701-835E-3D9478C3F4B2";
paths = (
{
closed = 1;
nodes = (
"754 -22 OFFCURVE",
"930 184 OFFCURVE",
"930 414 CURVE SMOOTH",
"930 628 OFFCURVE",
"780 838 OFFCURVE",
"450 838 CURVE",
"416 838 OFFCURVE",
"380 836 OFFCURVE",
"340 830 CURVE",
"308 826 LINE {name = hr00;}",
"310 858 LINE",
"340 1244 LINE",
"870 1244 LINE",
"870 1402 LINE",
"204 1402 LINE",
"152 656 LINE",
"230 680 OFFCURVE",
"340 696 OFFCURVE",
"408 696 CURVE",
"598 696 OFFCURVE",
"734 610 OFFCURVE",
"734 418 CURVE SMOOTH",
"734 292 OFFCURVE",
"664 124 OFFCURVE",
"432 124 CURVE SMOOTH",
"356 124 OFFCURVE",
"242 144 OFFCURVE",
"136 206 CURVE",
"90 76 LINE",
"176 16 OFFCURVE",
"332 -22 OFFCURVE",
"434 -22 CURVE SMOOTH"
);
}
);
width = 1070;
},
{
layerId = "58254875-FB9E-4C1D-8B15-704836B9A7CF";
paths = (
{
closed = 1;
nodes = (
"736 -24 OFFCURVE",
"980 156 OFFCURVE",
"980 426 CURVE SMOOTH",
"980 672 OFFCURVE",
"782 866 OFFCURVE",
"454 866 CURVE",
"438 866 OFFCURVE",
"416 866 OFFCURVE",
"390 864 CURVE",
"354 856 LINE",
"360 884 LINE {name = hr00;}",
"382 1184 LINE",
"920 1184 LINE",
"920 1402 LINE",
"158 1402 LINE",
"108 636 LINE",
"232 658 OFFCURVE",
"318 664 OFFCURVE",
"386 664 CURVE",
"562 664 OFFCURVE",
"686 580 OFFCURVE",
"686 430 CURVE SMOOTH",
"686 304 OFFCURVE",
"582 180 OFFCURVE",
"412 180 CURVE SMOOTH",
"338 180 OFFCURVE",
"244 200 OFFCURVE",
"106 254 CURVE",
"40 72 LINE",
"194 -6 OFFCURVE",
"312 -24 OFFCURVE",
"414 -24 CURVE SMOOTH"
);
}
);
width = 1074;
}
);
unicode = 0035;
},
{
color = 6;
glyphname = six;
layers = (
{
layerId = "BAA2CE79-BA31-4701-835E-3D9478C3F4B2";
paths = (
{
closed = 1;
nodes = (
"952 -28 OFFCURVE",
"1132 202 OFFCURVE",
"1132 432 CURVE SMOOTH",
"1132 706 OFFCURVE",
"958 854 OFFCURVE",
"718 854 CURVE SMOOTH",
"626 854 OFFCURVE",
"562 832 OFFCURVE",
"426 760 CURVE",
"462 726 OFFCURVE",
"548 676 OFFCURVE",
"648 700 CURVE",
"680 708 OFFCURVE",
"698 710 OFFCURVE",
"718 710 CURVE SMOOTH",
"838 710 OFFCURVE",
"936 614 OFFCURVE",
"936 432 CURVE SMOOTH",
"936 248 OFFCURVE",
"830 116 OFFCURVE",
"674 116 CURVE SMOOTH",
"408 116 OFFCURVE",
"350 438 OFFCURVE",
"350 656 CURVE SMOOTH",
"350 1014 OFFCURVE",
"544 1268 OFFCURVE",
"826 1268 CURVE {name = hr00;}",
"876 1268 OFFCURVE",
"934 1260 OFFCURVE",
"992 1234 CURVE",
"1036 1366 LINE",
"964 1398 OFFCURVE",
"892 1412 OFFCURVE",
"826 1412 CURVE",
"392 1412 OFFCURVE",
"154 1018 OFFCURVE",
"154 652 CURVE SMOOTH",
"154 324 OFFCURVE",
"276 -28 OFFCURVE",
"678 -28 CURVE SMOOTH"
);
}
);
width = 1308;
},
{
layerId = "58254875-FB9E-4C1D-8B15-704836B9A7CF";
paths = (
{
closed = 1;
nodes = (
"994 -32 OFFCURVE",
"1184 216 OFFCURVE",
"1184 448 CURVE SMOOTH",
"1184 732 OFFCURVE",
"990 884 OFFCURVE",
"764 884 CURVE SMOOTH",
"698 884 OFFCURVE",
"604 866 OFFCURVE",
"488 806 CURVE",
"522 742 OFFCURVE",
"580 660 OFFCURVE",
"672 674 CURVE",
"696 678 OFFCURVE",
"720 680 OFFCURVE",
"734 680 CURVE SMOOTH",
"814 680 OFFCURVE",
"888 608 OFFCURVE",
"888 448 CURVE SMOOTH",
"888 294 OFFCURVE",
"792 170 OFFCURVE",
"674 170 CURVE SMOOTH",
"460 170 OFFCURVE",
"400 438 OFFCURVE",
"400 658 CURVE SMOOTH",
"400 964 OFFCURVE",
"544 1216 OFFCURVE",
"828 1216 CURVE {name = hr00;}",
"880 1216 OFFCURVE",
"942 1210 OFFCURVE",
"1024 1186 CURVE",
"1088 1372 LINE",
"990 1404 OFFCURVE",
"894 1420 OFFCURVE",
"828 1420 CURVE",
"394 1420 OFFCURVE",
"106 1062 OFFCURVE",
"106 654 CURVE SMOOTH",
"106 284 OFFCURVE",
"276 -32 OFFCURVE",
"680 -32 CURVE SMOOTH"
);
}
);
width = 1250;
}
);
unicode = 0036;
},
{
color = 6;
glyphname = seven;
layers = (
{
layerId = "BAA2CE79-BA31-4701-835E-3D9478C3F4B2";
paths = (
{
closed = 1;
nodes = (
"454 0 LINE",
"512 642 OFFCURVE",
"712 970 OFFCURVE",
"930 1250 CURVE",
"930 1402 LINE",
"76 1402 LINE",
"76 1236 LINE",
"706 1236 LINE",
"730 1236 LINE",
"716 1216 LINE",
"464 850 OFFCURVE",
"320 458 OFFCURVE",
"260 0 CURVE {name = hr00;}"
);
}
);
width = 1002;
},
{
layerId = "58254875-FB9E-4C1D-8B15-704836B9A7CF";
paths = (
{
closed = 1;
nodes = (
"500 0 LINE",
"560 622 OFFCURVE",
"734 928 OFFCURVE",
"952 1208 CURVE",
"952 1402 LINE",
"76 1402 LINE",
"76 1174 LINE",
"602 1174 LINE",
"652 1178 LINE",
"622 1148 LINE",
"386 790 OFFCURVE",
"272 456 OFFCURVE",
"210 0 CURVE {name = hr00;}"
);
}
);
width = 1006;
}
);
unicode = 0037;
},
{
color = 6;
glyphname = eight;
layers = (
{
layerId = "BAA2CE79-BA31-4701-835E-3D9478C3F4B2";
paths = (
{
closed = 1;
nodes = (
"876 -28 OFFCURVE",
"1094 110 OFFCURVE",
"1094 356 CURVE SMOOTH",
"1094 534 OFFCURVE",
"1004 632 OFFCURVE",
"890 702 CURVE",
"870 714 LINE",
"888 734 LINE",
"978 838 OFFCURVE",
"1048 940 OFFCURVE",
"1048 1062 CURVE SMOOTH {name = hr02;}",
"1048 1290 OFFCURVE",
"856 1424 OFFCURVE",
"630 1424 CURVE SMOOTH",
"416 1424 OFFCURVE",
"210 1290 OFFCURVE",
"210 1062 CURVE SMOOTH",
"210 590 OFFCURVE",
"914 704 OFFCURVE",
"914 356 CURVE SMOOTH",
"914 216 OFFCURVE",
"796 116 OFFCURVE",
"624 116 CURVE SMOOTH",
"460 116 OFFCURVE",
"334 214 OFFCURVE",
"334 380 CURVE SMOOTH {name = hr01;}",
"334 410 OFFCURVE",
"344 442 OFFCURVE",
"362 478 CURVE SMOOTH",
"400 548 OFFCURVE",
"374 630 OFFCURVE",
"330 694 CURVE",
"190 544 OFFCURVE",
"162 446 OFFCURVE",
"162 356 CURVE SMOOTH",
"162 110 OFFCURVE",
"368 -28 OFFCURVE",
"624 -28 CURVE SMOOTH"
);
},
{
closed = 1;
nodes = (
"558 854 OFFCURVE",
"390 906 OFFCURVE",
"390 1062 CURVE SMOOTH",
"390 1198 OFFCURVE",
"510 1278 OFFCURVE",
"630 1278 CURVE SMOOTH",
"748 1278 OFFCURVE",
"872 1200 OFFCURVE",
"872 1038 CURVE",
"872 938 OFFCURVE",
"816 862 OFFCURVE",
"732 780 CURVE"
);
}
);
width = 1228;
},
{
layerId = "58254875-FB9E-4C1D-8B15-704836B9A7CF";
paths = (
{
closed = 1;
nodes = (
"968 -26 OFFCURVE",
"1194 112 OFFCURVE",
"1194 356 CURVE SMOOTH {name = hr01;}",
"1194 528 OFFCURVE",
"1106 634 OFFCURVE",
"992 710 CURVE",
"958 726 LINE",
"998 756 LINE",
"1090 866 OFFCURVE",
"1148 968 OFFCURVE",
"1148 1062 CURVE SMOOTH",
"1148 1292 OFFCURVE",
"948 1428 OFFCURVE",
"682 1428 CURVE SMOOTH",
"424 1428 OFFCURVE",
"210 1292 OFFCURVE",
"210 1062 CURVE SMOOTH {name = hr02;}",
"210 592 OFFCURVE",
"914 664 OFFCURVE",
"914 356 CURVE SMOOTH",
"914 258 OFFCURVE",
"826 176 OFFCURVE",
"676 176 CURVE SMOOTH",
"532 176 OFFCURVE",
"432 244 OFFCURVE",
"432 356 CURVE SMOOTH",
"432 386 OFFCURVE",
"438 406 OFFCURVE",
"450 444 CURVE SMOOTH",
"472 532 OFFCURVE",
"402 618 OFFCURVE",
"332 682 CURVE",
"204 550 OFFCURVE",
"162 448 OFFCURVE",
"162 356 CURVE SMOOTH",
"162 112 OFFCURVE",
"376 -26 OFFCURVE",
"676 -26 CURVE SMOOTH"
);
},
{
closed = 1;
nodes = (
"624 888 OFFCURVE",
"490 944 OFFCURVE",
"490 1062 CURVE SMOOTH",
"490 1170 OFFCURVE",
"574 1224 OFFCURVE",
"682 1224 CURVE SMOOTH",
"784 1224 OFFCURVE",
"876 1172 OFFCURVE",
"876 1040 CURVE {name = hr03;}",
"874 974 OFFCURVE",
"842 898 OFFCURVE",
"776 820 CURVE"
);
}
);
width = 1324;
}
);
unicode = 0038;
},
{
color = 6;
glyphname = nine;
layers = (
{
layerId = "BAA2CE79-BA31-4701-835E-3D9478C3F4B2";
paths = (
{
closed = 1;
nodes = (
"892 -20 OFFCURVE",
"1132 376 OFFCURVE",
"1132 744 CURVE SMOOTH",
"1132 1068 OFFCURVE",
"1008 1420 OFFCURVE",
"608 1420 CURVE SMOOTH",
"334 1420 OFFCURVE",
"152 1194 OFFCURVE",
"152 962 CURVE SMOOTH",
"152 688 OFFCURVE",
"328 542 OFFCURVE",
"568 542 CURVE SMOOTH",
"658 542 OFFCURVE",
"722 560 OFFCURVE",
"858 632 CURVE",
"822 668 OFFCURVE",
"740 720 OFFCURVE",
"638 692 CURVE",
"606 686 OFFCURVE",
"586 684 OFFCURVE",
"568 684 CURVE SMOOTH",
"446 684 OFFCURVE",
"350 782 OFFCURVE",
"350 962 CURVE SMOOTH",
"350 1144 OFFCURVE",
"454 1276 OFFCURVE",
"614 1276 CURVE SMOOTH",
"878 1276 OFFCURVE",
"936 956 OFFCURVE",
"936 740 CURVE SMOOTH",
"936 380 OFFCURVE",
"744 126 OFFCURVE",
"458 126 CURVE SMOOTH {name = hr00;}",
"410 126 OFFCURVE",
"352 136 OFFCURVE",
"294 162 CURVE",
"248 30 LINE",
"320 -4 OFFCURVE",
"392 -20 OFFCURVE",
"458 -20 CURVE"
);
}
);
width = 1308;
},
{
layerId = "58254875-FB9E-4C1D-8B15-704836B9A7CF";
paths = (
{
closed = 1;
nodes = (
"896 -20 OFFCURVE",
"1184 336 OFFCURVE",
"1184 746 CURVE SMOOTH",
"1184 1116 OFFCURVE",
"1014 1432 OFFCURVE",
"610 1432 CURVE SMOOTH",
"294 1432 OFFCURVE",
"106 1184 OFFCURVE",
"106 952 CURVE SMOOTH",
"106 668 OFFCURVE",
"298 516 OFFCURVE",
"526 516 CURVE SMOOTH",
"592 516 OFFCURVE",
"686 534 OFFCURVE",
"802 594 CURVE",
"768 658 OFFCURVE",
"708 740 OFFCURVE",
"618 726 CURVE",
"594 722 OFFCURVE",
"568 720 OFFCURVE",
"556 720 CURVE SMOOTH",
"476 720 OFFCURVE",
"402 792 OFFCURVE",
"402 952 CURVE SMOOTH",
"402 1104 OFFCURVE",
"498 1228 OFFCURVE",
"616 1228 CURVE SMOOTH",
"830 1228 OFFCURVE",
"890 960 OFFCURVE",
"890 742 CURVE SMOOTH",
"890 436 OFFCURVE",
"746 184 OFFCURVE",
"462 184 CURVE {name = hr00;}",
"410 184 OFFCURVE",
"348 190 OFFCURVE",
"266 212 CURVE",
"202 28 LINE",
"298 -6 OFFCURVE",
"396 -20 OFFCURVE",
"462 -20 CURVE"
);
}
);
width = 1248;
}
);
unicode = 0039;
},
{
color = 6;
glyphname = onesuperior;
layers = (
{
layerId = "BAA2CE79-BA31-4701-835E-3D9478C3F4B2";
paths = (
{
closed = 1;
nodes = (
"502 618 LINE",
"502 1454 LINE",
"436 1454 LINE",
"186 1320 LINE",
"240 1226 LINE",
"364 1290 LINE",
"364 618 LINE {name = hr00;}"
);
}
);
width = 638;
},
{
layerId = "58254875-FB9E-4C1D-8B15-704836B9A7CF";
paths = (
{
closed = 1;
nodes = (
"532 618 LINE",
"532 1454 LINE",
"436 1454 LINE",
"152 1302 LINE",
"222 1174 LINE",
"334 1228 LINE",
"334 618 LINE {name = hr00;}"
);
}
);
width = 638;
}
);
unicode = 00B9;
},
{
color = 6;
glyphname = twosuperior;
layers = (
{
layerId = "BAA2CE79-BA31-4701-835E-3D9478C3F4B2";
paths = (
{
closed = 1;
nodes = (
"668 620 LINE",
"668 738 LINE",
"336 738 LINE",
"310 734 LINE",
"328 754 LINE",
"424 910 OFFCURVE",
"654 1064 OFFCURVE",
"654 1256 CURVE SMOOTH {name = hr00;}",
"654 1394 OFFCURVE",
"526 1472 OFFCURVE",
"382 1472 CURVE SMOOTH",
"318 1472 OFFCURVE",
"252 1462 OFFCURVE",
"180 1422 CURVE",
"224 1330 LINE",
"278 1352 OFFCURVE",
"324 1364 OFFCURVE",
"370 1364 CURVE",
"454 1364 OFFCURVE",
"516 1332 OFFCURVE",
"516 1242 CURVE",
"516 1084 OFFCURVE",
"304 950 OFFCURVE",
"146 692 CURVE",
"146 620 LINE"
);
}
);
width = 804;
},
{
layerId = "58254875-FB9E-4C1D-8B15-704836B9A7CF";
paths = (
{
closed = 1;
nodes = (
"668 620 LINE",
"668 768 LINE",
"382 768 LINE",
"356 764 LINE",
"374 784 LINE",
"480 940 OFFCURVE",
"674 1064 OFFCURVE",
"674 1256 CURVE SMOOTH {name = hr00;}",
"674 1394 OFFCURVE",
"558 1472 OFFCURVE",
"402 1472 CURVE SMOOTH",
"338 1472 OFFCURVE",
"252 1460 OFFCURVE",
"180 1422 CURVE",
"236 1304 LINE",
"278 1322 OFFCURVE",
"324 1334 OFFCURVE",
"370 1334 CURVE",
"448 1334 OFFCURVE",
"496 1300 OFFCURVE",
"496 1242 CURVE",
"496 1094 OFFCURVE",
"278 956 OFFCURVE",
"138 710 CURVE",
"138 620 LINE"
);
}
);
width = 804;
}
);
unicode = 00B2;
},
{
color = 6;
glyphname = threesuperior;
layers = (
{
layerId = "BAA2CE79-BA31-4701-835E-3D9478C3F4B2";
paths = (
{
closed = 1;
nodes = (
"500 602 OFFCURVE",
"622 726 OFFCURVE",
"622 864 CURVE SMOOTH",
"622 984 OFFCURVE",
"532 1054 OFFCURVE",
"440 1076 CURVE",
"532 1118 OFFCURVE",
"594 1196 OFFCURVE",
"594 1280 CURVE SMOOTH {name = hr02;}",
"594 1390 OFFCURVE",
"498 1470 OFFCURVE",
"352 1470 CURVE SMOOTH",
"286 1470 OFFCURVE",
"216 1460 OFFCURVE",
"142 1420 CURVE",
"188 1326 LINE",
"242 1348 OFFCURVE",
"294 1360 OFFCURVE",
"340 1360 CURVE SMOOTH",
"412 1360 OFFCURVE",
"454 1320 OFFCURVE",
"454 1262 CURVE",
"454 1192 OFFCURVE",
"386 1152 OFFCURVE",
"314 1122 CURVE SMOOTH",
"250 1096 LINE",
"262 1008 LINE {name = hr01;}",
"398 1008 OFFCURVE",
"482 966 OFFCURVE",
"482 866 CURVE SMOOTH",
"482 790 OFFCURVE",
"424 712 OFFCURVE",
"314 712 CURVE SMOOTH",
"238 712 OFFCURVE",
"194 732 OFFCURVE",
"146 752 CURVE",
"110 658 LINE",
"150 634 OFFCURVE",
"224 602 OFFCURVE",
"316 602 CURVE SMOOTH"
);
}
);
width = 762;
},
{
layerId = "58254875-FB9E-4C1D-8B15-704836B9A7CF";
paths = (
{
closed = 1;
nodes = (
"500 602 OFFCURVE",
"642 700 OFFCURVE",
"642 860 CURVE SMOOTH {name = hr01;}",
"642 980 OFFCURVE",
"552 1058 OFFCURVE",
"460 1080 CURVE",
"552 1122 OFFCURVE",
"614 1192 OFFCURVE",
"614 1276 CURVE SMOOTH",
"614 1410 OFFCURVE",
"498 1470 OFFCURVE",
"352 1470 CURVE SMOOTH",
"286 1470 OFFCURVE",
"218 1458 OFFCURVE",
"142 1420 CURVE",
"192 1302 LINE",
"246 1320 OFFCURVE",
"294 1330 OFFCURVE",
"340 1330 CURVE SMOOTH",
"398 1330 OFFCURVE",
"434 1294 OFFCURVE",
"434 1262 CURVE {name = hr02;}",
"434 1200 OFFCURVE",
"386 1166 OFFCURVE",
"314 1136 CURVE SMOOTH",
"250 1110 LINE",
"264 998 LINE",
"400 998 OFFCURVE",
"462 950 OFFCURVE",
"462 866 CURVE SMOOTH",
"462 796 OFFCURVE",
"404 742 OFFCURVE",
"314 742 CURVE SMOOTH",
"260 742 OFFCURVE",
"202 760 OFFCURVE",
"154 780 CURVE",
"110 658 LINE",
"150 634 OFFCURVE",
"234 602 OFFCURVE",
"316 602 CURVE SMOOTH"
);
}
);
width = 762;
}
);
unicode = 00B3;
},
{
color = 6;
glyphname = foursuperior;
layers = (
{
layerId = "BAA2CE79-BA31-4701-835E-3D9478C3F4B2";
paths = (
{
closed = 1;
nodes = (
"585 608 LINE",
"585 786 LINE",
"681 786 LINE",
"681 894 LINE",
"585 894 LINE",
"585 1454 LINE",
"439 1454 LINE",
"65 898 LINE",
"65 786 LINE",
"399 786 LINE",
"379 828 OFFCURVE",
"335 896 OFFCURVE",
"255 896 CURVE",
"199 896 LINE",
"457 1268 LINE",
"457 608 LINE"
);
}
);
width = 762;
},
{
layerId = "58254875-FB9E-4C1D-8B15-704836B9A7CF";
paths = (
{
closed = 1;
nodes = (
"641 608 LINE",
"641 772 LINE {name = hr02;}",
"737 772 LINE",
"737 910 LINE {name = hr01;}",
"641 910 LINE",
"641 1454 LINE",
"455 1454 LINE",
"81 894 LINE",
"81 772 LINE",
"423 772 LINE",
"403 832 OFFCURVE",
"369 910 OFFCURVE",
"305 910 CURVE",
"265 910 LINE",
"473 1216 LINE",
"473 608 LINE"
);
}
);
width = 787;
}
);
unicode = 2074;
},
{
glyphname = fraction;
layers = (
{
layerId = "BAA2CE79-BA31-4701-835E-3D9478C3F4B2";
paths = (
{
closed = 1;
nodes = (
"94 0 LINE",
"966 1454 LINE",
"842 1454 LINE",
"-30 0 LINE {name = hr00;}"
);
}
);
width = 936;
},
{
layerId = "58254875-FB9E-4C1D-8B15-704836B9A7CF";
paths = (
{
closed = 1;
nodes = (
"196 0 LINE",
"1068 1454 LINE",
"852 1454 LINE",
"-20 0 LINE {name = hr00;}"
);
}
);
width = 1048;
}
);
unicode = 2044;
},
{
color = 6;
glyphname = onehalf;
layers = (
{
layerId = "BAA2CE79-BA31-4701-835E-3D9478C3F4B2";
paths = (
{
closed = 1;
nodes = (
"302 0 LINE",
"1174 1454 LINE",
"1050 1454 LINE",
"178 0 LINE {name = hr00;}"
);
},
{
closed = 1;
nodes = (
"382 618 LINE",
"382 1454 LINE",
"316 1454 LINE",
"66 1320 LINE",
"120 1226 LINE",
"244 1290 LINE",
"244 618 LINE"
);
},
{
closed = 1;
nodes = (
"1374 0 LINE",
"1374 118 LINE",
"1042 118 LINE",
"1016 114 LINE",
"1034 134 LINE",
"1130 290 OFFCURVE",
"1360 444 OFFCURVE",
"1360 636 CURVE SMOOTH",
"1360 774 OFFCURVE",
"1232 852 OFFCURVE",
"1088 852 CURVE SMOOTH",
"1024 852 OFFCURVE",
"958 842 OFFCURVE",
"886 802 CURVE",
"930 710 LINE",
"984 732 OFFCURVE",
"1030 744 OFFCURVE",
"1076 744 CURVE",
"1160 744 OFFCURVE",
"1222 712 OFFCURVE",
"1222 622 CURVE",
"1222 464 OFFCURVE",
"1010 330 OFFCURVE",
"852 72 CURVE",
"852 0 LINE"
);
}
);
width = 1526;
},
{
layerId = "58254875-FB9E-4C1D-8B15-704836B9A7CF";
paths = (
{
closed = 1;
nodes = (
"348 0 LINE",
"1220 1454 LINE",
"1004 1454 LINE",
"132 0 LINE {name = hr00;}"
);
},
{
closed = 1;
nodes = (
"412 618 LINE",
"412 1454 LINE",
"316 1454 LINE",
"32 1302 LINE",
"102 1174 LINE",
"214 1228 LINE",
"214 618 LINE"
);
},
{
closed = 1;
nodes = (
"1374 0 LINE",
"1374 148 LINE",
"1096 148 LINE",
"1062 144 LINE",
"1082 168 LINE",
"1188 324 OFFCURVE",
"1380 444 OFFCURVE",
"1380 636 CURVE SMOOTH",
"1380 774 OFFCURVE",
"1264 852 OFFCURVE",
"1108 852 CURVE SMOOTH",
"1044 852 OFFCURVE",
"958 840 OFFCURVE",
"886 802 CURVE",
"942 684 LINE",
"984 702 OFFCURVE",
"1030 714 OFFCURVE",
"1076 714 CURVE SMOOTH",
"1154 714 OFFCURVE",
"1202 680 OFFCURVE",
"1202 622 CURVE SMOOTH",
"1202 474 OFFCURVE",
"984 336 OFFCURVE",
"844 90 CURVE",
"844 0 LINE"
);
}
);
width = 1526;
}
);
unicode = 00BD;
},
{
color = 6;
glyphname = onequarter;
layers = (
{
layerId = "BAA2CE79-BA31-4701-835E-3D9478C3F4B2";
paths = (
{
closed = 1;
nodes = (
"302 0 LINE",
"1174 1454 LINE",
"1050 1454 LINE",
"178 0 LINE {name = hr00;}"
);
},
{
closed = 1;
nodes = (
"382 618 LINE",
"382 1454 LINE",
"316 1454 LINE",
"66 1320 LINE",
"120 1226 LINE",
"244 1290 LINE",
"244 618 LINE"
);
},
{
closed = 1;
nodes = (
"1216 0 LINE",
"1216 178 LINE",
"1312 178 LINE",
"1312 286 LINE",
"1216 286 LINE",
"1216 846 LINE",
"1070 846 LINE",
"696 290 LINE",
"696 178 LINE",
"1030 178 LINE",
"1010 220 OFFCURVE",
"966 288 OFFCURVE",
"886 288 CURVE",
"830 288 LINE",
"1088 660 LINE",
"1088 0 LINE"
);
}
);
width = 1396;
},
{
layerId = "58254875-FB9E-4C1D-8B15-704836B9A7CF";
paths = (
{
closed = 1;
nodes = (
"348 0 LINE",
"1220 1454 LINE",
"1004 1454 LINE",
"132 0 LINE"
);
},
{
closed = 1;
nodes = (
"412 618 LINE",
"412 1454 LINE",
"316 1454 LINE",
"32 1302 LINE",
"102 1174 LINE",
"214 1228 LINE",
"214 618 LINE"
);
},
{
closed = 1;
nodes = (
"1235 0 LINE",
"1235 164 LINE {name = hr02;}",
"1331 164 LINE",
"1331 302 LINE {name = hr01;}",
"1235 302 LINE",
"1235 846 LINE",
"1049 846 LINE",
"675 286 LINE",
"675 164 LINE",
"1017 164 LINE",
"997 224 OFFCURVE",
"963 302 OFFCURVE",
"899 302 CURVE",
"859 302 LINE",
"1067 608 LINE",
"1067 0 LINE"
);
}
);
width = 1396;
}
);
unicode = 00BC;
},
{
color = 6;
glyphname = threequarters;
layers = (
{
layerId = "BAA2CE79-BA31-4701-835E-3D9478C3F4B2";
paths = (
{
closed = 1;
nodes = (
"378 0 LINE",
"1250 1454 LINE",
"1126 1454 LINE",
"254 0 LINE"
);
},
{
closed = 1;
nodes = (
"438 602 OFFCURVE",
"560 726 OFFCURVE",
"560 864 CURVE SMOOTH",
"560 984 OFFCURVE",
"470 1054 OFFCURVE",
"378 1076 CURVE",
"470 1118 OFFCURVE",
"532 1196 OFFCURVE",
"532 1280 CURVE SMOOTH {name = hr03;}",
"532 1390 OFFCURVE",
"436 1470 OFFCURVE",
"290 1470 CURVE SMOOTH {name = hr01;}",
"224 1470 OFFCURVE",
"154 1460 OFFCURVE",
"80 1420 CURVE",
"126 1326 LINE",
"180 1348 OFFCURVE",
"232 1360 OFFCURVE",
"278 1360 CURVE SMOOTH",
"350 1360 OFFCURVE",
"392 1320 OFFCURVE",
"392 1262 CURVE",
"392 1192 OFFCURVE",
"324 1152 OFFCURVE",
"252 1122 CURVE SMOOTH",
"188 1096 LINE",
"200 1008 LINE {name = hr02;}",
"336 1008 OFFCURVE",
"420 966 OFFCURVE",
"420 866 CURVE SMOOTH",
"420 790 OFFCURVE",
"362 712 OFFCURVE",
"252 712 CURVE SMOOTH",
"176 712 OFFCURVE",
"132 732 OFFCURVE",
"84 752 CURVE",
"48 658 LINE",
"88 634 OFFCURVE",
"162 602 OFFCURVE",
"254 602 CURVE SMOOTH"
);
},
{
closed = 1;
nodes = (
"1292 0 LINE",
"1292 178 LINE",
"1388 178 LINE",
"1388 286 LINE",
"1292 286 LINE",
"1292 846 LINE",
"1146 846 LINE",
"772 290 LINE",
"772 178 LINE",
"1106 178 LINE",
"1086 220 OFFCURVE",
"1042 288 OFFCURVE",
"962 288 CURVE",
"906 288 LINE",
"1164 660 LINE",
"1164 0 LINE"
);
}
);
width = 1432;
},
{
layerId = "58254875-FB9E-4C1D-8B15-704836B9A7CF";
paths = (
{
closed = 1;
nodes = (
"420 0 LINE",
"1292 1454 LINE",
"1076 1454 LINE",
"204 0 LINE"
);
},
{
closed = 1;
nodes = (
"440 602 OFFCURVE",
"582 700 OFFCURVE",
"582 860 CURVE SMOOTH {name = hr03;}",
"582 980 OFFCURVE",
"492 1058 OFFCURVE",
"400 1080 CURVE",
"492 1122 OFFCURVE",
"554 1192 OFFCURVE",
"554 1276 CURVE SMOOTH",
"554 1410 OFFCURVE",
"438 1470 OFFCURVE",
"292 1470 CURVE SMOOTH",
"226 1470 OFFCURVE",
"158 1458 OFFCURVE",
"82 1420 CURVE",
"132 1302 LINE",
"186 1320 OFFCURVE",
"234 1330 OFFCURVE",
"280 1330 CURVE SMOOTH",
"338 1330 OFFCURVE",
"374 1294 OFFCURVE",
"374 1262 CURVE {name = hr04;}",
"374 1200 OFFCURVE",
"326 1166 OFFCURVE",
"254 1136 CURVE SMOOTH",
"190 1110 LINE",
"204 998 LINE",
"340 998 OFFCURVE",
"402 950 OFFCURVE",
"402 866 CURVE SMOOTH",
"402 796 OFFCURVE",
"344 742 OFFCURVE",
"254 742 CURVE SMOOTH",
"200 742 OFFCURVE",
"142 760 OFFCURVE",
"94 780 CURVE",
"50 658 LINE",
"90 634 OFFCURVE",
"174 602 OFFCURVE",
"256 602 CURVE SMOOTH"
);
},
{
closed = 1;
nodes = (
"1308 0 LINE",
"1308 164 LINE {name = hr02;}",
"1404 164 LINE",
"1404 302 LINE {name = hr01;}",
"1308 302 LINE",
"1308 846 LINE",
"1122 846 LINE",
"748 286 LINE",
"748 164 LINE",
"1090 164 LINE",
"1070 224 OFFCURVE",
"1036 302 OFFCURVE",
"972 302 CURVE",
"932 302 LINE",
"1140 608 LINE",
"1140 0 LINE"
);
}
);
width = 1432;
}
);
unicode = 00BE;
},
{
color = 3;
glyphname = .notdef;
layers = (
{
components = (
{
alignment = 1;
name = question;
transform = "{0.56447, 0, 0, 0.56447, 458, 324}";
}
);
layerId = "BAA2CE79-BA31-4701-835E-3D9478C3F4B2";
paths = (
{
closed = 1;
nodes = (
"178 0 LINE",
"1350 0 LINE",
"1350 1454 LINE",
"178 1454 LINE"
);
},
{
closed = 1;
nodes = (
"1268 1374 LINE",
"1268 80 LINE",
"258 80 LINE",
"258 1374 LINE"
);
}
);
width = 1524;
},
{
components = (
{
alignment = 1;
name = question;
transform = "{0.56447, 0, 0, 0.56447, 446, 324}";
}
);
layerId = "58254875-FB9E-4C1D-8B15-704836B9A7CF";
paths = (
{
closed = 1;
nodes = (
"166 0 LINE",
"1338 0 LINE",
"1338 1454 LINE",
"166 1454 LINE"
);
},
{
closed = 1;
nodes = (
"1216 1334 LINE",
"1216 120 LINE",
"286 120 LINE",
"286 1334 LINE"
);
}
);
width = 1502;
}
);
leftMetricsKey = H;
rightMetricsKey = H;
},
{
color = 6;
glyphname = period;
layers = (
{
layerId = "BAA2CE79-BA31-4701-835E-3D9478C3F4B2";
paths = (
{
closed = 1;
nodes = (
"374 -30 OFFCURVE",
"426 20 OFFCURVE",
"426 88 CURVE SMOOTH",
"426 158 OFFCURVE",
"374 210 OFFCURVE",
"304 210 CURVE SMOOTH",
"236 210 OFFCURVE",
"186 158 OFFCURVE",
"186 88 CURVE SMOOTH {name = hr00;}",
"186 20 OFFCURVE",
"236 -30 OFFCURVE",
"304 -30 CURVE SMOOTH"
);
}
);
width = 612;
},
{
layerId = "58254875-FB9E-4C1D-8B15-704836B9A7CF";
paths = (
{
closed = 1;
nodes = (
"342 -30 OFFCURVE",
"414 42 OFFCURVE",
"414 134 CURVE SMOOTH",
"414 226 OFFCURVE",
"342 302 OFFCURVE",
"250 302 CURVE SMOOTH",
"156 302 OFFCURVE",
"84 226 OFFCURVE",
"84 134 CURVE SMOOTH {name = hr00;}",
"84 42 OFFCURVE",
"156 -30 OFFCURVE",
"250 -30 CURVE SMOOTH"
);
}
);
width = 546;
}
);
unicode = 002E;
},
{
color = 6;
glyphname = comma;
layers = (
{
layerId = "BAA2CE79-BA31-4701-835E-3D9478C3F4B2";
paths = (
{
closed = 1;
nodes = (
"254 -230 OFFCURVE",
"286 -66 OFFCURVE",
"286 40 CURVE SMOOTH",
"286 196 LINE",
"112 196 LINE {name = hr00;}",
"112 -196 LINE"
);
}
);
width = 394;
},
{
layerId = "58254875-FB9E-4C1D-8B15-704836B9A7CF";
paths = (
{
closed = 1;
nodes = (
"286 -294 OFFCURVE",
"356 -144 OFFCURVE",
"356 40 CURVE SMOOTH",
"356 196 LINE",
"112 196 LINE {name = hr00;}",
"112 -256 LINE"
);
}
);
width = 508;
}
);
unicode = 002C;
},
{
color = 6;
glyphname = exclam;
layers = (
{
layerId = "BAA2CE79-BA31-4701-835E-3D9478C3F4B2";
paths = (
{
closed = 1;
nodes = (
"300 370 LINE",
"328 1454 LINE",
"140 1454 LINE",
"164 370 LINE"
);
},
{
closed = 1;
nodes = (
"300 -30 OFFCURVE",
"352 20 OFFCURVE",
"352 88 CURVE SMOOTH",
"352 158 OFFCURVE",
"300 210 OFFCURVE",
"230 210 CURVE SMOOTH",
"162 210 OFFCURVE",
"112 158 OFFCURVE",
"112 88 CURVE SMOOTH",
"112 20 OFFCURVE",
"162 -30 OFFCURVE",
"230 -30 CURVE SMOOTH"
);
}
);
width = 702;
},
{
layerId = "58254875-FB9E-4C1D-8B15-704836B9A7CF";
paths = (
{
closed = 1;
nodes = (
"332 460 LINE",
"374 1454 LINE",
"94 1454 LINE",
"132 460 LINE"
);
},
{
closed = 1;
nodes = (
"322 -28 OFFCURVE",
"394 44 OFFCURVE",
"394 136 CURVE SMOOTH",
"394 228 OFFCURVE",
"322 304 OFFCURVE",
"230 304 CURVE SMOOTH",
"136 304 OFFCURVE",
"64 228 OFFCURVE",
"64 136 CURVE SMOOTH {name = hr01;}",
"64 44 OFFCURVE",
"136 -28 OFFCURVE",
"230 -28 CURVE SMOOTH"
);
}
);
width = 702;
}
);
unicode = 0021;
},
{
color = 6;
glyphname = exclamdown;
layers = (
{
layerId = "BAA2CE79-BA31-4701-835E-3D9478C3F4B2";
paths = (
{
closed = 1;
nodes = (
"328 -420 LINE",
"300 664 LINE",
"164 664 LINE",
"140 -420 LINE"
);
},
{
closed = 1;
nodes = (
"300 824 OFFCURVE",
"352 876 OFFCURVE",
"352 946 CURVE SMOOTH",
"352 1014 OFFCURVE",
"300 1064 OFFCURVE",
"230 1064 CURVE SMOOTH",
"162 1064 OFFCURVE",
"112 1014 OFFCURVE",
"112 946 CURVE",
"112 876 OFFCURVE",
"162 824 OFFCURVE",
"230 824 CURVE SMOOTH"
);
}
);
width = 702;
},
{
layerId = "58254875-FB9E-4C1D-8B15-704836B9A7CF";
paths = (
{
closed = 1;
nodes = (
"374 -420 LINE",
"332 574 LINE",
"132 574 LINE",
"94 -420 LINE"
);
},
{
closed = 1;
nodes = (
"322 730 OFFCURVE",
"394 806 OFFCURVE",
"394 898 CURVE SMOOTH",
"394 990 OFFCURVE",
"322 1062 OFFCURVE",
"230 1062 CURVE SMOOTH",
"136 1062 OFFCURVE",
"64 990 OFFCURVE",
"64 898 CURVE {name = hr01;}",
"64 806 OFFCURVE",
"136 730 OFFCURVE",
"230 730 CURVE SMOOTH"
);
}
);
width = 702;
}
);
unicode = 00A1;
},
{
color = 6;
glyphname = question;
layers = (
{
layerId = "BAA2CE79-BA31-4701-835E-3D9478C3F4B2";
paths = (
{
closed = 1;
nodes = (
"554 370 LINE",
"554 736 OFFCURVE",
"942 840 OFFCURVE",
"942 1174 CURVE SMOOTH",
"942 1342 OFFCURVE",
"784 1474 OFFCURVE",
"554 1474 CURVE SMOOTH",
"444 1474 OFFCURVE",
"338 1458 OFFCURVE",
"216 1392 CURVE",
"266 1258 LINE",
"372 1316 OFFCURVE",
"458 1330 OFFCURVE",
"534 1330 CURVE",
"658 1330 OFFCURVE",
"746 1250 OFFCURVE",
"746 1144 CURVE SMOOTH",
"746 876 OFFCURVE",
"410 804 OFFCURVE",
"410 370 CURVE"
);
},
{
closed = 1;
nodes = (
"550 -30 OFFCURVE",
"602 20 OFFCURVE",
"602 88 CURVE SMOOTH",
"602 158 OFFCURVE",
"550 210 OFFCURVE",
"480 210 CURVE SMOOTH",
"412 210 OFFCURVE",
"360 158 OFFCURVE",
"360 88 CURVE SMOOTH",
"360 20 OFFCURVE",
"412 -30 OFFCURVE",
"480 -30 CURVE SMOOTH"
);
}
);
width = 1166;
},
{
layerId = "58254875-FB9E-4C1D-8B15-704836B9A7CF";
paths = (
{
closed = 1;
nodes = (
"600 460 LINE",
"600 724 OFFCURVE",
"986 866 OFFCURVE",
"986 1148 CURVE SMOOTH",
"986 1356 OFFCURVE",
"796 1474 OFFCURVE",
"530 1474 CURVE SMOOTH",
"420 1474 OFFCURVE",
"318 1458 OFFCURVE",
"170 1392 CURVE",
"242 1204 LINE",
"370 1258 OFFCURVE",
"434 1266 OFFCURVE",
"510 1266 CURVE",
"624 1266 OFFCURVE",
"700 1208 OFFCURVE",
"700 1118 CURVE SMOOTH",
"700 920 OFFCURVE",
"364 824 OFFCURVE",
"364 460 CURVE"
);
},
{
closed = 1;
nodes = (
"574 -28 OFFCURVE",
"646 44 OFFCURVE",
"646 136 CURVE SMOOTH",
"646 228 OFFCURVE",
"574 304 OFFCURVE",
"482 304 CURVE SMOOTH",
"388 304 OFFCURVE",
"316 228 OFFCURVE",
"316 136 CURVE SMOOTH {name = hr01;}",
"316 44 OFFCURVE",
"388 -28 OFFCURVE",
"482 -28 CURVE SMOOTH"
);
}
);
width = 1166;
}
);
unicode = 003F;
},
{
color = 6;
glyphname = questiondown;
layers = (
{
layerId = "BAA2CE79-BA31-4701-835E-3D9478C3F4B2";
paths = (
{
closed = 1;
nodes = (
"714 -440 OFFCURVE",
"820 -424 OFFCURVE",
"942 -358 CURVE",
"892 -224 LINE",
"786 -282 OFFCURVE",
"700 -296 OFFCURVE",
"624 -296 CURVE",
"500 -296 OFFCURVE",
"412 -216 OFFCURVE",
"412 -110 CURVE SMOOTH",
"412 158 OFFCURVE",
"748 230 OFFCURVE",
"748 664 CURVE",
"604 664 LINE",
"604 298 OFFCURVE",
"216 194 OFFCURVE",
"216 -140 CURVE SMOOTH",
"216 -308 OFFCURVE",
"374 -440 OFFCURVE",
"604 -440 CURVE SMOOTH"
);
},
{
closed = 1;
nodes = (
"746 824 OFFCURVE",
"798 876 OFFCURVE",
"798 946 CURVE SMOOTH",
"798 1014 OFFCURVE",
"746 1064 OFFCURVE",
"678 1064 CURVE SMOOTH",
"608 1064 OFFCURVE",
"556 1014 OFFCURVE",
"556 946 CURVE SMOOTH",
"556 876 OFFCURVE",
"608 824 OFFCURVE",
"678 824 CURVE SMOOTH"
);
}
);
width = 1166;
},
{
layerId = "58254875-FB9E-4C1D-8B15-704836B9A7CF";
paths = (
{
closed = 1;
nodes = (
"740 -442 OFFCURVE",
"842 -426 OFFCURVE",
"990 -360 CURVE",
"918 -172 LINE",
"790 -226 OFFCURVE",
"726 -234 OFFCURVE",
"650 -234 CURVE",
"536 -234 OFFCURVE",
"460 -176 OFFCURVE",
"460 -86 CURVE SMOOTH",
"460 112 OFFCURVE",
"796 208 OFFCURVE",
"796 572 CURVE",
"560 572 LINE",
"560 308 OFFCURVE",
"174 166 OFFCURVE",
"174 -116 CURVE SMOOTH",
"174 -324 OFFCURVE",
"364 -442 OFFCURVE",
"630 -442 CURVE SMOOTH"
);
},
{
closed = 1;
nodes = (
"772 728 OFFCURVE",
"844 804 OFFCURVE",
"844 896 CURVE SMOOTH {name = hr01;}",
"844 988 OFFCURVE",
"772 1060 OFFCURVE",
"678 1060 CURVE SMOOTH",
"586 1060 OFFCURVE",
"514 988 OFFCURVE",
"514 896 CURVE SMOOTH",
"514 804 OFFCURVE",
"586 728 OFFCURVE",
"678 728 CURVE SMOOTH"
);
}
);
width = 1166;
}
);
unicode = 00BF;
},
{
color = 6;
glyphname = bullet;
layers = (
{
layerId = "BAA2CE79-BA31-4701-835E-3D9478C3F4B2";
paths = (
{
closed = 1;
nodes = (
"600 482 OFFCURVE",
"666 544 OFFCURVE",
"666 630 CURVE SMOOTH",
"666 716 OFFCURVE",
"600 782 OFFCURVE",
"514 782 CURVE SMOOTH",
"428 782 OFFCURVE",
"366 716 OFFCURVE",
"366 630 CURVE SMOOTH {name = hr00;}",
"366 544 OFFCURVE",
"428 482 OFFCURVE",
"514 482 CURVE SMOOTH"
);
}
);
width = 1000;
},
{
layerId = "58254875-FB9E-4C1D-8B15-704836B9A7CF";
paths = (
{
closed = 1;
nodes = (
"622 444 OFFCURVE",
"704 522 OFFCURVE",
"704 630 CURVE SMOOTH",
"704 738 OFFCURVE",
"622 820 OFFCURVE",
"514 820 CURVE SMOOTH",
"406 820 OFFCURVE",
"328 738 OFFCURVE",
"328 630 CURVE SMOOTH {name = hr00;}",
"328 522 OFFCURVE",
"406 444 OFFCURVE",
"514 444 CURVE SMOOTH"
);
}
);
width = 1000;
}
);
unicode = 2022;
},
{
color = 6;
glyphname = asterisk;
layers = (
{
layerId = "BAA2CE79-BA31-4701-835E-3D9478C3F4B2";
paths = (
{
closed = 1;
nodes = (
"502 1004 LINE",
"634 708 LINE",
"766 784 LINE",
"576 1046 LINE",
"572 1046 OFFCURVE",
"576 1052 OFFCURVE",
"900 1016 CURVE",
"900 1168 LINE",
"578 1136 LINE",
"580 1138 OFFCURVE",
"602 1178 OFFCURVE",
"770 1398 CURVE",
"638 1474 LINE {name = hr00;}",
"502 1180 LINE",
"364 1474 LINE",
"232 1398 LINE",
"426 1138 LINE",
"102 1168 LINE",
"102 1016 LINE",
"424 1048 LINE",
"236 784 LINE",
"368 708 LINE"
);
}
);
width = 1060;
},
{
layerId = "58254875-FB9E-4C1D-8B15-704836B9A7CF";
paths = (
{
closed = 1;
nodes = (
"500 1004 LINE",
"604 692 LINE",
"792 800 LINE",
"574 1046 LINE",
"624 1038 OFFCURVE",
"656 1032 OFFCURVE",
"900 982 CURVE",
"900 1198 LINE",
"578 1136 LINE",
"606 1172 OFFCURVE",
"630 1200 OFFCURVE",
"794 1382 CURVE",
"606 1492 LINE",
"498 1180 LINE {name = hr00;}",
"392 1492 LINE",
"204 1382 LINE",
"420 1138 LINE",
"102 1200 LINE",
"102 984 LINE",
"424 1048 LINE",
"206 800 LINE",
"394 692 LINE"
);
}
);
width = 1060;
}
);
unicode = 002A;
},
{
color = 6;
glyphname = numbersign;
layers = (
{
layerId = "BAA2CE79-BA31-4701-835E-3D9478C3F4B2";
paths = (
{
closed = 1;
nodes = (
"478 0 LINE",
"658 948 LINE",
"1086 948 LINE",
"1118 948 LINE",
"1112 916 LINE",
"1026 460 LINE",
"780 460 LINE SMOOTH",
"686 460 OFFCURVE",
"638 406 OFFCURVE",
"612 330 CURVE {name = hr08;}",
"978 330 LINE",
"1002 330 LINE {name = hr09;}",
"998 308 LINE",
"940 0 LINE",
"1092 0 LINE",
"1154 330 LINE {name = hr01;}",
"1396 330 LINE",
"1396 460 LINE",
"1178 460 LINE",
"1272 948 LINE",
"1514 948 LINE",
"1514 1078 LINE",
"1296 1078 LINE",
"1358 1404 LINE {name = hr02;}",
"1206 1404 LINE",
"1144 1078 LINE {name = hr03;}",
"682 1078 LINE",
"744 1404 LINE {name = hr04;}",
"592 1404 LINE",
"530 1078 LINE {name = hr05;}",
"282 1078 LINE",
"282 948 LINE",
"466 948 LINE",
"504 948 LINE",
"498 916 LINE",
"412 460 LINE",
"164 460 LINE",
"164 330 LINE {name = hr06;}",
"366 330 LINE",
"388 330 LINE",
"384 308 LINE",
"326 0 LINE {name = hr07;}"
);
}
);
width = 1788;
},
{
layerId = "58254875-FB9E-4C1D-8B15-704836B9A7CF";
paths = (
{
closed = 1;
nodes = (
"514 0 LINE {name = hr01;}",
"690 924 LINE",
"1052 924 LINE",
"1088 928 LINE",
"1072 896 LINE",
"992 482 LINE",
"860 482 LINE SMOOTH",
"716 482 OFFCURVE",
"662 384 OFFCURVE",
"636 308 CURVE",
"944 308 LINE",
"974 312 LINE",
"960 282 LINE",
"904 0 LINE",
"1128 0 LINE {name = hr07;}",
"1188 308 LINE",
"1442 308 LINE",
"1442 482 LINE",
"1216 482 LINE",
"1302 926 LINE",
"1562 926 LINE",
"1562 1100 LINE",
"1334 1100 LINE {name = hr06;}",
"1394 1404 LINE",
"1170 1404 LINE {name = hr05;}",
"1112 1100 LINE",
"722 1100 LINE {name = hr04;}",
"780 1404 LINE",
"556 1404 LINE {name = hr03;}",
"500 1100 LINE",
"248 1100 LINE",
"248 924 LINE",
"444 924 LINE",
"476 928 LINE",
"462 906 LINE",
"380 480 LINE",
"130 480 LINE",
"130 308 LINE",
"334 308 LINE {name = hr02;}",
"362 312 LINE",
"348 290 LINE",
"290 0 LINE"
);
}
);
width = 1788;
}
);
unicode = 0023;
},
{
color = 6;
glyphname = slash;
layers = (
{
layerId = "BAA2CE79-BA31-4701-835E-3D9478C3F4B2";
paths = (
{
closed = 1;
nodes = (
"178 -124 LINE",
"664 1454 LINE",
"506 1454 LINE",
"20 -124 LINE {name = hr00;}"
);
}
);
width = 664;
},
{
layerId = "58254875-FB9E-4C1D-8B15-704836B9A7CF";
paths = (
{
closed = 1;
nodes = (
"216 -124 LINE",
"702 1454 LINE",
"460 1454 LINE",
"-26 -124 LINE {name = hr00;}"
);
}
);
width = 664;
}
);
unicode = 002F;
},
{
color = 6;
glyphname = backslash;
layers = (
{
layerId = "BAA2CE79-BA31-4701-835E-3D9478C3F4B2";
paths = (
{
closed = 1;
nodes = (
"714 -124 LINE",
"228 1454 LINE",
"50 1454 LINE",
"536 -124 LINE {name = hr00;}"
);
}
);
width = 756;
},
{
layerId = "58254875-FB9E-4C1D-8B15-704836B9A7CF";
paths = (
{
closed = 1;
nodes = (
"702 -124 LINE",
"216 1454 LINE",
"-26 1454 LINE",
"460 -124 LINE {name = hr00;}"
);
}
);
width = 664;
}
);
unicode = 005C;
},
{
color = 6;
glyphname = hyphen;
layers = (
{
layerId = "BAA2CE79-BA31-4701-835E-3D9478C3F4B2";
paths = (
{
closed = 1;
nodes = (
"694 546 LINE",
"694 674 LINE",
"90 674 LINE",
"90 546 LINE {name = hr00;}"
);
}
);
width = 750;
},
{
layerId = "58254875-FB9E-4C1D-8B15-704836B9A7CF";
paths = (
{
closed = 1;
nodes = (
"694 510 LINE",
"694 706 LINE",
"90 706 LINE",
"90 510 LINE {name = hr00;}"
);
}
);
width = 750;
}
);
unicode = 002D;
},
{
color = 6;
glyphname = endash;
layers = (
{
layerId = "BAA2CE79-BA31-4701-835E-3D9478C3F4B2";
paths = (
{
closed = 1;
nodes = (
"938 486 LINE",
"938 614 LINE",
"90 614 LINE",
"90 486 LINE {name = hr00;}"
);
}
);
width = 1080;
},
{
layerId = "58254875-FB9E-4C1D-8B15-704836B9A7CF";
paths = (
{
closed = 1;
nodes = (
"938 452 LINE",
"938 648 LINE",
"90 648 LINE",
"90 452 LINE {name = hr00;}"
);
}
);
width = 1080;
}
);
unicode = 2013;
},
{
color = 6;
glyphname = emdash;
layers = (
{
layerId = "BAA2CE79-BA31-4701-835E-3D9478C3F4B2";
paths = (
{
closed = 1;
nodes = (
"1568 486 LINE",
"1568 614 LINE",
"90 614 LINE",
"90 486 LINE {name = hr00;}"
);
}
);
width = 1698;
},
{
layerId = "58254875-FB9E-4C1D-8B15-704836B9A7CF";
paths = (
{
closed = 1;
nodes = (
"1568 452 LINE",
"1568 648 LINE",
"90 648 LINE",
"90 452 LINE {name = hr00;}"
);
}
);
width = 1698;
}
);
unicode = 2014;
},
{
color = 6;
glyphname = underscore;
layers = (
{
layerId = "BAA2CE79-BA31-4701-835E-3D9478C3F4B2";
paths = (
{
closed = 1;
nodes = (
"940 -126 LINE",
"940 0 LINE",
"54 0 LINE",
"54 -126 LINE {name = hr00;}"
);
}
);
width = 994;
},
{
layerId = "58254875-FB9E-4C1D-8B15-704836B9A7CF";
paths = (
{
closed = 1;
nodes = (
"940 -190 LINE",
"940 0 LINE",
"54 0 LINE",
"54 -190 LINE {name = hr00;}"
);
}
);
width = 994;
}
);
unicode = 005F;
},
{
color = 6;
glyphname = parenleft;
layers = (
{
layerId = "BAA2CE79-BA31-4701-835E-3D9478C3F4B2";
paths = (
{
closed = 1;
nodes = (
"806 -252 LINE",
"538 -42 OFFCURVE",
"524 148 OFFCURVE",
"524 592 CURVE {name = hr00;}",
"524 1034 OFFCURVE",
"538 1224 OFFCURVE",
"806 1434 CURVE",
"728 1534 LINE",
"420 1326 OFFCURVE",
"362 1090 OFFCURVE",
"362 592 CURVE",
"362 92 OFFCURVE",
"420 -144 OFFCURVE",
"728 -352 CURVE"
);
}
);
width = 806;
},
{
layerId = "58254875-FB9E-4C1D-8B15-704836B9A7CF";
paths = (
{
closed = 1;
nodes = (
"810 -220 LINE",
"582 -18 OFFCURVE",
"562 148 OFFCURVE",
"562 592 CURVE SMOOTH {name = hr00;}",
"562 1034 OFFCURVE",
"580 1198 OFFCURVE",
"810 1404 CURVE",
"678 1534 LINE",
"370 1326 OFFCURVE",
"316 1090 OFFCURVE",
"316 592 CURVE",
"316 92 OFFCURVE",
"370 -144 OFFCURVE",
"678 -352 CURVE"
);
}
);
width = 806;
}
);
unicode = 0028;
userData = {
com.typemytype.robofont.guides = (
{
angle = 0;
isGlobal = 0;
magnetic = 5;
x = 0;
y = 194;
},
{
angle = 0;
isGlobal = 0;
magnetic = 5;
x = 0;
y = 397;
}
);
};
},
{
color = 6;
glyphname = parenright;
layers = (
{
layerId = "BAA2CE79-BA31-4701-835E-3D9478C3F4B2";
paths = (
{
closed = 1;
nodes = (
"390 -144 OFFCURVE",
"448 92 OFFCURVE",
"448 592 CURVE",
"448 1090 OFFCURVE",
"390 1326 OFFCURVE",
"82 1534 CURVE",
"4 1434 LINE",
"272 1224 OFFCURVE",
"286 1034 OFFCURVE",
"286 592 CURVE {name = hr00;}",
"286 148 OFFCURVE",
"272 -42 OFFCURVE",
"4 -252 CURVE",
"82 -352 LINE"
);
}
);
width = 802;
},
{
layerId = "58254875-FB9E-4C1D-8B15-704836B9A7CF";
paths = (
{
closed = 1;
nodes = (
"436 -144 OFFCURVE",
"490 92 OFFCURVE",
"490 592 CURVE",
"490 1090 OFFCURVE",
"436 1326 OFFCURVE",
"128 1534 CURVE",
"-4 1404 LINE",
"226 1198 OFFCURVE",
"244 1034 OFFCURVE",
"244 592 CURVE SMOOTH {name = hr00;}",
"244 148 OFFCURVE",
"224 -18 OFFCURVE",
"-4 -220 CURVE",
"128 -352 LINE"
);
}
);
width = 802;
}
);
unicode = 0029;
},
{
color = 6;
glyphname = braceleft;
layers = (
{
layerId = "BAA2CE79-BA31-4701-835E-3D9478C3F4B2";
paths = (
{
closed = 1;
nodes = (
"800 -252 LINE",
"596 -90 OFFCURVE",
"538 78 OFFCURVE",
"522 336 CURVE",
"516 444 OFFCURVE",
"458 526 OFFCURVE",
"374 582 CURVE",
"322 606 LINE",
"372 628 LINE",
"456 684 OFFCURVE",
"514 768 OFFCURVE",
"522 878 CURVE",
"540 1116 OFFCURVE",
"604 1280 OFFCURVE",
"800 1434 CURVE",
"720 1534 LINE",
"474 1368 OFFCURVE",
"388 1156 OFFCURVE",
"362 830 CURVE",
"356 736 OFFCURVE",
"266 682 OFFCURVE",
"164 664 CURVE",
"164 550 LINE",
"266 532 OFFCURVE",
"352 478 OFFCURVE",
"358 384 CURVE {name = hr00;}",
"380 30 OFFCURVE",
"464 -178 OFFCURVE",
"720 -352 CURVE"
);
}
);
width = 806;
},
{
layerId = "58254875-FB9E-4C1D-8B15-704836B9A7CF";
paths = (
{
closed = 1;
nodes = (
"810 -220 LINE",
"640 -70 OFFCURVE",
"584 70 OFFCURVE",
"568 336 CURVE",
"560 446 OFFCURVE",
"502 530 OFFCURVE",
"416 586 CURVE",
"370 606 LINE",
"418 628 LINE",
"502 684 OFFCURVE",
"560 768 OFFCURVE",
"568 878 CURVE",
"586 1126 OFFCURVE",
"642 1254 OFFCURVE",
"810 1404 CURVE",
"678 1534 LINE",
"434 1370 OFFCURVE",
"348 1186 OFFCURVE",
"324 850 CURVE {name = hr00;}",
"316 756 OFFCURVE",
"228 702 OFFCURVE",
"126 684 CURVE",
"126 540 LINE",
"228 522 OFFCURVE",
"312 468 OFFCURVE",
"320 374 CURVE",
"342 14 OFFCURVE",
"426 -182 OFFCURVE",
"678 -352 CURVE"
);
}
);
width = 806;
}
);
unicode = 007B;
},
{
color = 6;
glyphname = braceright;
layers = (
{
layerId = "BAA2CE79-BA31-4701-835E-3D9478C3F4B2";
paths = (
{
closed = 1;
nodes = (
"500 -178 OFFCURVE",
"586 30 OFFCURVE",
"606 384 CURVE {name = hr00;}",
"612 478 OFFCURVE",
"698 532 OFFCURVE",
"800 550 CURVE",
"800 664 LINE",
"698 682 OFFCURVE",
"608 736 OFFCURVE",
"602 830 CURVE",
"576 1156 OFFCURVE",
"490 1368 OFFCURVE",
"244 1534 CURVE",
"164 1434 LINE",
"360 1280 OFFCURVE",
"424 1116 OFFCURVE",
"442 878 CURVE",
"450 768 OFFCURVE",
"508 684 OFFCURVE",
"592 628 CURVE",
"642 606 LINE",
"594 586 LINE",
"508 530 OFFCURVE",
"450 446 OFFCURVE",
"442 336 CURVE",
"426 78 OFFCURVE",
"368 -90 OFFCURVE",
"164 -252 CURVE",
"244 -352 LINE"
);
}
);
width = 806;
},
{
layerId = "58254875-FB9E-4C1D-8B15-704836B9A7CF";
paths = (
{
closed = 1;
nodes = (
"536 -182 OFFCURVE",
"620 14 OFFCURVE",
"642 374 CURVE",
"650 468 OFFCURVE",
"734 522 OFFCURVE",
"836 540 CURVE",
"836 684 LINE",
"734 702 OFFCURVE",
"646 756 OFFCURVE",
"638 850 CURVE {name = hr00;}",
"614 1186 OFFCURVE",
"528 1370 OFFCURVE",
"284 1534 CURVE",
"152 1404 LINE",
"320 1254 OFFCURVE",
"376 1126 OFFCURVE",
"394 878 CURVE",
"402 768 OFFCURVE",
"458 684 OFFCURVE",
"542 628 CURVE",
"594 606 LINE",
"544 584 LINE",
"460 528 OFFCURVE",
"402 446 OFFCURVE",
"394 336 CURVE",
"378 70 OFFCURVE",
"322 -70 OFFCURVE",
"152 -220 CURVE",
"284 -352 LINE"
);
}
);
width = 856;
}
);
unicode = 007D;
},
{
color = 6;
glyphname = bracketleft;
layers = (
{
layerId = "BAA2CE79-BA31-4701-835E-3D9478C3F4B2";
paths = (
{
closed = 1;
nodes = (
"804 -398 LINE",
"806 -254 LINE",
"462 -254 LINE",
"462 1398 LINE",
"804 1398 LINE",
"804 1542 LINE",
"290 1542 LINE {name = hr00;}",
"290 -398 LINE"
);
}
);
width = 894;
},
{
layerId = "58254875-FB9E-4C1D-8B15-704836B9A7CF";
paths = (
{
closed = 1;
nodes = (
"850 -398 LINE",
"850 -190 LINE",
"508 -190 LINE",
"508 1334 LINE",
"850 1334 LINE",
"850 1542 LINE",
"244 1542 LINE {name = hr00;}",
"244 -398 LINE"
);
}
);
width = 894;
}
);
unicode = 005B;
},
{
color = 6;
glyphname = bracketright;
layers = (
{
layerId = "BAA2CE79-BA31-4701-835E-3D9478C3F4B2";
paths = (
{
closed = 1;
nodes = (
"620 -398 LINE {name = hr00;}",
"620 1542 LINE",
"108 1542 LINE",
"108 1398 LINE",
"450 1398 LINE",
"450 -254 LINE",
"106 -254 LINE",
"108 -398 LINE"
);
}
);
width = 914;
},
{
layerId = "58254875-FB9E-4C1D-8B15-704836B9A7CF";
paths = (
{
closed = 1;
nodes = (
"686 -398 LINE {name = hr00;}",
"686 1542 LINE",
"80 1542 LINE",
"80 1334 LINE",
"422 1334 LINE",
"422 -190 LINE",
"80 -190 LINE",
"80 -398 LINE"
);
}
);
width = 894;
}
);
unicode = 005D;
},
{
color = 6;
glyphname = guilsinglleft;
layers = (
{
layerId = "BAA2CE79-BA31-4701-835E-3D9478C3F4B2";
paths = (
{
closed = 1;
nodes = (
"914 186 LINE",
"626 516 LINE",
"914 846 LINE",
"826 932 LINE",
"394 516 LINE {name = hr00;}",
"826 100 LINE"
);
}
);
width = 1226;
},
{
layerId = "58254875-FB9E-4C1D-8B15-704836B9A7CF";
paths = (
{
closed = 1;
nodes = (
"924 196 LINE",
"672 516 LINE",
"924 836 LINE",
"814 944 LINE",
"348 516 LINE {name = hr00;}",
"814 90 LINE"
);
}
);
width = 1226;
}
);
unicode = 2039;
},
{
color = 6;
glyphname = guilsinglright;
layers = (
{
layerId = "BAA2CE79-BA31-4701-835E-3D9478C3F4B2";
paths = (
{
closed = 1;
nodes = (
"914 516 LINE",
"482 932 LINE",
"394 846 LINE",
"682 516 LINE",
"394 186 LINE",
"482 100 LINE {name = hr00;}"
);
}
);
width = 1226;
},
{
layerId = "58254875-FB9E-4C1D-8B15-704836B9A7CF";
paths = (
{
closed = 1;
nodes = (
"954 516 LINE",
"488 944 LINE",
"378 836 LINE",
"630 516 LINE",
"378 196 LINE",
"488 90 LINE {name = hr00;}"
);
}
);
width = 1226;
}
);
unicode = 203A;
},
{
color = 6;
glyphname = quotesingle;
layers = (
{
layerId = "BAA2CE79-BA31-4701-835E-3D9478C3F4B2";
paths = (
{
closed = 1;
nodes = (
"272 1062 LINE",
"272 1454 LINE",
"108 1454 LINE {name = hr00;}",
"108 1062 LINE"
);
}
);
width = 382;
},
{
layerId = "58254875-FB9E-4C1D-8B15-704836B9A7CF";
paths = (
{
closed = 1;
nodes = (
"298 1002 LINE",
"298 1454 LINE",
"54 1454 LINE {name = hr00;}",
"54 1002 LINE"
);
}
);
width = 382;
}
);
unicode = 0027;
},
{
color = 6;
glyphname = florin;
layers = (
{
layerId = "BAA2CE79-BA31-4701-835E-3D9478C3F4B2";
paths = (
{
closed = 1;
nodes = (
"262 -226 OFFCURVE",
"408 -114 OFFCURVE",
"434 150 CURVE",
"520 1006 LINE SMOOTH",
"540 1206 OFFCURVE",
"668 1286 OFFCURVE",
"780 1286 CURVE SMOOTH",
"822 1286 OFFCURVE",
"874 1280 OFFCURVE",
"954 1248 CURVE",
"1008 1370 LINE",
"920 1410 OFFCURVE",
"838 1422 OFFCURVE",
"772 1422 CURVE SMOOTH",
"528 1422 OFFCURVE",
"370 1250 OFFCURVE",
"344 986 CURVE SMOOTH",
"338 930 LINE",
"162 888 LINE",
"162 792 LINE",
"324 792 LINE",
"258 130 LINE",
"238 -70 OFFCURVE",
"130 -126 OFFCURVE",
"4 -168 CURVE",
"32 -282 LINE"
);
},
{
closed = 1;
nodes = (
"874 792 LINE",
"874 930 LINE {name = hr00;}",
"754 930 LINE",
"658 930 OFFCURVE",
"606 868 OFFCURVE",
"570 792 CURVE"
);
}
);
width = 1048;
},
{
layerId = "58254875-FB9E-4C1D-8B15-704836B9A7CF";
paths = (
{
closed = 1;
nodes = (
"262 -226 OFFCURVE",
"456 -114 OFFCURVE",
"482 150 CURVE",
"564 988 LINE SMOOTH",
"578 1126 OFFCURVE",
"662 1218 OFFCURVE",
"792 1218 CURVE SMOOTH",
"838 1218 OFFCURVE",
"886 1208 OFFCURVE",
"962 1186 CURVE",
"1042 1364 LINE",
"942 1410 OFFCURVE",
"848 1424 OFFCURVE",
"782 1424 CURVE SMOOTH",
"514 1424 OFFCURVE",
"326 1250 OFFCURVE",
"300 988 CURVE SMOOTH",
"294 932 LINE",
"124 892 LINE",
"122 734 LINE",
"276 734 LINE {name = hr00;}",
"220 166 LINE",
"202 4 OFFCURVE",
"112 -62 OFFCURVE",
"-14 -104 CURVE",
"32 -282 LINE"
);
},
{
closed = 1;
nodes = (
"914 734 LINE",
"914 932 LINE",
"826 932 LINE",
"710 932 OFFCURVE",
"642 822 OFFCURVE",
"608 734 CURVE"
);
}
);
width = 1048;
}
);
unicode = 0192;
},
{
color = 6;
glyphname = at;
layers = (
{
layerId = "BAA2CE79-BA31-4701-835E-3D9478C3F4B2";
paths = (
{
closed = 1;
nodes = (
"1026 -244 OFFCURVE",
"1120 -232 OFFCURVE",
"1310 -174 CURVE",
"1268 -64 LINE",
"1104 -118 OFFCURVE",
"1010 -126 OFFCURVE",
"894 -126 CURVE SMOOTH",
"580 -126 OFFCURVE",
"320 84 OFFCURVE",
"320 514 CURVE SMOOTH",
"320 946 OFFCURVE",
"580 1158 OFFCURVE",
"922 1158 CURVE SMOOTH",
"1266 1158 OFFCURVE",
"1486 964 OFFCURVE",
"1486 626 CURVE SMOOTH",
"1486 472 OFFCURVE",
"1426 358 OFFCURVE",
"1268 256 CURVE",
"1238 232 LINE {name = hr00;}",
"1238 280 LINE",
"1238 602 LINE",
"1238 810 OFFCURVE",
"1122 932 OFFCURVE",
"924 932 CURVE SMOOTH",
"840 932 OFFCURVE",
"762 920 OFFCURVE",
"662 878 CURVE",
"702 776 LINE",
"772 804 OFFCURVE",
"840 816 OFFCURVE",
"896 816 CURVE SMOOTH",
"1038 816 OFFCURVE",
"1092 734 OFFCURVE",
"1092 612 CURVE",
"1092 320 LINE",
"1030 238 OFFCURVE",
"948 212 OFFCURVE",
"880 212 CURVE SMOOTH",
"794 212 OFFCURVE",
"736 258 OFFCURVE",
"736 324 CURVE SMOOTH",
"736 386 OFFCURVE",
"780 434 OFFCURVE",
"898 450 CURVE SMOOTH",
"978 460 OFFCURVE",
"1006 542 OFFCURVE",
"1010 578 CURVE",
"712 546 OFFCURVE",
"588 478 OFFCURVE",
"588 316 CURVE SMOOTH",
"588 184 OFFCURVE",
"690 94 OFFCURVE",
"860 94 CURVE SMOOTH",
"932 94 OFFCURVE",
"1000 106 OFFCURVE",
"1078 184 CURVE",
"1098 224 LINE",
"1102 186 LINE",
"1114 152 OFFCURVE",
"1126 128 OFFCURVE",
"1156 112 CURVE",
"1442 164 OFFCURVE",
"1634 340 OFFCURVE",
"1634 626 CURVE SMOOTH",
"1634 1038 OFFCURVE",
"1336 1276 OFFCURVE",
"924 1276 CURVE SMOOTH",
"520 1276 OFFCURVE",
"170 1012 OFFCURVE",
"170 514 CURVE SMOOTH",
"170 -22 OFFCURVE",
"486 -244 OFFCURVE",
"894 -244 CURVE SMOOTH"
);
}
);
width = 1838;
},
{
layerId = "58254875-FB9E-4C1D-8B15-704836B9A7CF";
paths = (
{
closed = 1;
nodes = (
"1026 -264 OFFCURVE",
"1128 -256 OFFCURVE",
"1318 -192 CURVE",
"1260 -38 LINE",
"1096 -88 OFFCURVE",
"1010 -96 OFFCURVE",
"894 -96 CURVE SMOOTH",
"580 -96 OFFCURVE",
"346 134 OFFCURVE",
"346 514 CURVE SMOOTH",
"346 896 OFFCURVE",
"580 1128 OFFCURVE",
"922 1128 CURVE SMOOTH",
"1236 1128 OFFCURVE",
"1456 944 OFFCURVE",
"1456 656 CURVE SMOOTH",
"1456 546 OFFCURVE",
"1404 404 OFFCURVE",
"1282 322 CURVE",
"1254 298 LINE",
"1258 340 LINE {name = hr00;}",
"1258 598 LINE",
"1258 820 OFFCURVE",
"1134 932 OFFCURVE",
"916 932 CURVE SMOOTH",
"832 932 OFFCURVE",
"754 920 OFFCURVE",
"646 878 CURVE",
"698 744 LINE",
"786 772 OFFCURVE",
"832 778 OFFCURVE",
"888 778 CURVE SMOOTH",
"1004 778 OFFCURVE",
"1072 730 OFFCURVE",
"1072 608 CURVE",
"1072 350 LINE",
"1010 268 OFFCURVE",
"944 236 OFFCURVE",
"876 236 CURVE SMOOTH",
"802 236 OFFCURVE",
"758 272 OFFCURVE",
"758 324 CURVE SMOOTH",
"758 374 OFFCURVE",
"778 422 OFFCURVE",
"888 438 CURVE SMOOTH",
"968 450 OFFCURVE",
"996 554 OFFCURVE",
"1000 590 CURVE",
"684 560 OFFCURVE",
"568 474 OFFCURVE",
"568 316 CURVE SMOOTH",
"568 182 OFFCURVE",
"674 94 OFFCURVE",
"836 94 CURVE SMOOTH",
"908 94 OFFCURVE",
"980 112 OFFCURVE",
"1058 190 CURVE",
"1078 230 LINE",
"1082 192 LINE",
"1094 158 OFFCURVE",
"1106 126 OFFCURVE",
"1136 110 CURVE",
"1430 162 OFFCURVE",
"1654 392 OFFCURVE",
"1654 656 CURVE SMOOTH",
"1654 1068 OFFCURVE",
"1306 1296 OFFCURVE",
"924 1296 CURVE SMOOTH",
"520 1296 OFFCURVE",
"150 1012 OFFCURVE",
"150 514 CURVE SMOOTH",
"150 -22 OFFCURVE",
"486 -264 OFFCURVE",
"894 -264 CURVE SMOOTH"
);
}
);
width = 1838;
}
);
unicode = 0040;
userData = {
com.typemytype.robofont.guides = (
{
angle = 0;
isGlobal = 0;
magnetic = 5;
x = 0;
y = 457;
},
{
angle = 0;
isGlobal = 0;
magnetic = 5;
x = 0;
y = 59;
}
);
};
},
{
color = 6;
glyphname = ampersand;
layers = (
{
layerId = "BAA2CE79-BA31-4701-835E-3D9478C3F4B2";
paths = (
{
closed = 1;
nodes = (
"816 -22 OFFCURVE",
"920 26 OFFCURVE",
"1014 102 CURVE",
"952 156 OFFCURVE",
"878 168 OFFCURVE",
"794 140 CURVE SMOOTH",
"756 128 OFFCURVE",
"728 122 OFFCURVE",
"700 122 CURVE SMOOTH",
"534 122 OFFCURVE",
"440 252 OFFCURVE",
"440 444 CURVE SMOOTH",
"440 554 OFFCURVE",
"490 634 OFFCURVE",
"560 700 CURVE",
"578 716 LINE",
"590 702 LINE",
"1188 0 LINE {name = hr01;}",
"1424 0 LINE",
"1172 292 LINE",
"1254 426 OFFCURVE",
"1302 582 OFFCURVE",
"1338 758 CURVE",
"1194 758 LINE",
"1174 634 OFFCURVE",
"1140 534 OFFCURVE",
"1080 424 CURVE",
"1072 410 LINE",
"1060 424 LINE",
"730 808 LINE",
"620 940 OFFCURVE",
"550 1020 OFFCURVE",
"550 1142 CURVE SMOOTH",
"550 1250 OFFCURVE",
"640 1330 OFFCURVE",
"764 1330 CURVE SMOOTH",
"836 1330 OFFCURVE",
"936 1314 OFFCURVE",
"1006 1280 CURVE",
"1054 1406 LINE",
"966 1452 OFFCURVE",
"856 1474 OFFCURVE",
"768 1474 CURVE SMOOTH",
"524 1474 OFFCURVE",
"380 1322 OFFCURVE",
"380 1124 CURVE SMOOTH",
"380 1032 OFFCURVE",
"418 934 OFFCURVE",
"488 832 CURVE",
"358 734 OFFCURVE",
"246 600 OFFCURVE",
"246 418 CURVE SMOOTH {name = hr02;}",
"246 196 OFFCURVE",
"400 -22 OFFCURVE",
"670 -22 CURVE SMOOTH"
);
}
);
width = 1522;
},
{
layerId = "58254875-FB9E-4C1D-8B15-704836B9A7CF";
paths = (
{
closed = 1;
nodes = (
"790 -22 OFFCURVE",
"888 10 OFFCURVE",
"982 78 CURVE",
"926 140 OFFCURVE",
"866 200 OFFCURVE",
"766 192 CURVE SMOOTH",
"742 190 OFFCURVE",
"728 186 OFFCURVE",
"700 186 CURVE SMOOTH",
"558 186 OFFCURVE",
"486 298 OFFCURVE",
"486 444 CURVE SMOOTH",
"486 528 OFFCURVE",
"514 590 OFFCURVE",
"558 646 CURVE",
"576 682 LINE",
"594 648 LINE",
"1152 0 LINE",
"1470 0 LINE",
"1216 294 LINE",
"1298 428 OFFCURVE",
"1346 582 OFFCURVE",
"1382 758 CURVE",
"1152 758 LINE",
"1138 662 OFFCURVE",
"1116 582 OFFCURVE",
"1078 498 CURVE",
"1064 456 LINE",
"1044 492 LINE",
"776 808 LINE",
"666 940 OFFCURVE",
"596 1016 OFFCURVE",
"596 1118 CURVE SMOOTH",
"596 1206 OFFCURVE",
"674 1266 OFFCURVE",
"788 1266 CURVE SMOOTH",
"860 1266 OFFCURVE",
"954 1250 OFFCURVE",
"1040 1222 CURVE",
"1100 1406 LINE",
"1002 1450 OFFCURVE",
"880 1474 OFFCURVE",
"792 1474 CURVE SMOOTH",
"534 1474 OFFCURVE",
"340 1344 OFFCURVE",
"340 1100 CURVE SMOOTH {name = hr01;}",
"340 1026 OFFCURVE",
"356 960 OFFCURVE",
"450 830 CURVE",
"320 732 OFFCURVE",
"216 598 OFFCURVE",
"216 418 CURVE SMOOTH",
"216 150 OFFCURVE",
"400 -22 OFFCURVE",
"670 -22 CURVE SMOOTH"
);
}
);
width = 1522;
}
);
unicode = 0026;
},
{
color = 6;
glyphname = paragraph;
layers = (
{
layerId = "BAA2CE79-BA31-4701-835E-3D9478C3F4B2";
paths = (
{
closed = 1;
nodes = (
"796 -60 LINE",
"796 1332 LINE",
"844 1330 OFFCURVE",
"896 1326 OFFCURVE",
"956 1316 CURVE",
"956 -60 LINE",
"1102 -60 LINE",
"1102 1440 LINE",
"952 1470 OFFCURVE",
"852 1480 OFFCURVE",
"706 1480 CURVE SMOOTH",
"384 1480 OFFCURVE",
"208 1272 OFFCURVE",
"208 1040 CURVE SMOOTH",
"208 794 OFFCURVE",
"406 630 OFFCURVE",
"646 610 CURVE",
"646 610 OFFCURVE",
"648 608 OFFCURVE",
"650 608 CURVE {name = hr00;}",
"650 -60 LINE"
);
}
);
width = 1218;
},
{
layerId = "58254875-FB9E-4C1D-8B15-704836B9A7CF";
paths = (
{
closed = 1;
nodes = (
"796 -60 LINE",
"796 1332 LINE",
"844 1330 OFFCURVE",
"896 1326 OFFCURVE",
"956 1316 CURVE",
"956 -60 LINE",
"1102 -60 LINE",
"1102 1440 LINE",
"952 1470 OFFCURVE",
"852 1480 OFFCURVE",
"706 1480 CURVE SMOOTH",
"384 1480 OFFCURVE",
"208 1272 OFFCURVE",
"208 1040 CURVE SMOOTH",
"208 794 OFFCURVE",
"406 630 OFFCURVE",
"646 610 CURVE",
"646 610 OFFCURVE",
"648 608 OFFCURVE",
"650 608 CURVE {name = hr00;}",
"650 -60 LINE"
);
}
);
width = 1218;
}
);
unicode = 00B6;
},
{
color = 6;
glyphname = section;
layers = (
{
layerId = "BAA2CE79-BA31-4701-835E-3D9478C3F4B2";
paths = (
{
closed = 1;
nodes = (
"722 -102 OFFCURVE",
"894 14 OFFCURVE",
"894 184 CURVE SMOOTH",
"894 284 OFFCURVE",
"844 352 OFFCURVE",
"770 402 CURVE",
"728 420 LINE",
"774 438 LINE",
"856 486 OFFCURVE",
"914 560 OFFCURVE",
"914 650 CURVE SMOOTH",
"914 996 OFFCURVE",
"314 956 OFFCURVE",
"314 1172 CURVE SMOOTH",
"314 1254 OFFCURVE",
"394 1298 OFFCURVE",
"524 1298 CURVE SMOOTH",
"590 1298 OFFCURVE",
"676 1286 OFFCURVE",
"778 1258 CURVE",
"832 1388 LINE",
"698 1428 OFFCURVE",
"590 1440 OFFCURVE",
"500 1440 CURVE SMOOTH",
"270 1440 OFFCURVE",
"134 1300 OFFCURVE",
"134 1170 CURVE SMOOTH",
"134 1068 OFFCURVE",
"190 1002 OFFCURVE",
"270 952 CURVE",
"312 934 LINE",
"260 914 LINE",
"162 858 OFFCURVE",
"114 778 OFFCURVE",
"114 704 CURVE SMOOTH",
"114 370 OFFCURVE",
"714 412 OFFCURVE",
"714 194 CURVE SMOOTH",
"714 104 OFFCURVE",
"644 42 OFFCURVE",
"482 42 CURVE SMOOTH",
"382 42 OFFCURVE",
"252 64 OFFCURVE",
"130 114 CURVE",
"72 -18 LINE",
"260 -94 OFFCURVE",
"388 -102 OFFCURVE",
"512 -102 CURVE SMOOTH"
);
},
{
closed = 1;
nodes = (
"452 550 OFFCURVE",
"284 592 OFFCURVE",
"284 706 CURVE SMOOTH",
"284 774 OFFCURVE",
"342 834 OFFCURVE",
"438 872 CURVE",
"590 812 OFFCURVE",
"744 768 OFFCURVE",
"744 660 CURVE SMOOTH",
"744 598 OFFCURVE",
"704 536 OFFCURVE",
"612 484 CURVE"
);
}
);
width = 1000;
},
{
layerId = "58254875-FB9E-4C1D-8B15-704836B9A7CF";
paths = (
{
closed = 1;
nodes = (
"734 -102 OFFCURVE",
"926 14 OFFCURVE",
"926 188 CURVE SMOOTH",
"926 284 OFFCURVE",
"880 352 OFFCURVE",
"816 406 CURVE",
"776 428 LINE",
"822 448 LINE",
"896 496 OFFCURVE",
"944 566 OFFCURVE",
"944 650 CURVE SMOOTH",
"944 996 OFFCURVE",
"344 956 OFFCURVE",
"344 1172 CURVE SMOOTH",
"344 1228 OFFCURVE",
"410 1258 OFFCURVE",
"524 1258 CURVE SMOOTH",
"590 1258 OFFCURVE",
"660 1248 OFFCURVE",
"762 1220 CURVE",
"832 1388 LINE",
"698 1428 OFFCURVE",
"590 1440 OFFCURVE",
"500 1440 CURVE SMOOTH",
"270 1440 OFFCURVE",
"104 1322 OFFCURVE",
"104 1170 CURVE SMOOTH",
"104 1070 OFFCURVE",
"152 1000 OFFCURVE",
"224 946 CURVE",
"264 926 LINE",
"222 908 LINE",
"144 856 OFFCURVE",
"86 780 OFFCURVE",
"86 704 CURVE SMOOTH",
"86 358 OFFCURVE",
"686 402 OFFCURVE",
"686 186 CURVE SMOOTH",
"686 110 OFFCURVE",
"594 80 OFFCURVE",
"480 80 CURVE SMOOTH",
"382 80 OFFCURVE",
"262 104 OFFCURVE",
"144 150 CURVE",
"74 -18 LINE",
"220 -86 OFFCURVE",
"414 -102 OFFCURVE",
"504 -102 CURVE SMOOTH"
);
},
{
closed = 1;
nodes = (
"472 576 OFFCURVE",
"318 618 OFFCURVE",
"318 714 CURVE SMOOTH",
"318 768 OFFCURVE",
"348 802 OFFCURVE",
"416 844 CURVE",
"564 784 OFFCURVE",
"712 744 OFFCURVE",
"712 660 CURVE SMOOTH {name = hr01;}",
"712 608 OFFCURVE",
"686 558 OFFCURVE",
"626 512 CURVE"
);
}
);
width = 1000;
}
);
unicode = 00A7;
},
{
color = 6;
glyphname = copyright;
layers = (
{
layerId = "BAA2CE79-BA31-4701-835E-3D9478C3F4B2";
paths = (
{
closed = 1;
nodes = (
"1098 62 OFFCURVE",
"1358 352 OFFCURVE",
"1358 714 CURVE SMOOTH",
"1358 1070 OFFCURVE",
"1098 1360 OFFCURVE",
"714 1360 CURVE {name = hr00;}",
"326 1360 OFFCURVE",
"64 1070 OFFCURVE",
"64 714 CURVE SMOOTH",
"64 352 OFFCURVE",
"326 62 OFFCURVE",
"714 62 CURVE SMOOTH"
);
},
{
closed = 1;
nodes = (
"796 352 OFFCURVE",
"864 362 OFFCURVE",
"938 398 CURVE",
"904 492 LINE",
"842 464 OFFCURVE",
"792 454 OFFCURVE",
"754 454 CURVE",
"652 454 OFFCURVE",
"564 538 OFFCURVE",
"564 714 CURVE",
"564 886 OFFCURVE",
"654 970 OFFCURVE",
"754 970 CURVE",
"794 970 OFFCURVE",
"838 966 OFFCURVE",
"886 950 CURVE",
"920 1046 LINE",
"864 1064 OFFCURVE",
"804 1074 OFFCURVE",
"754 1074 CURVE",
"580 1074 OFFCURVE",
"430 946 OFFCURVE",
"430 714 CURVE",
"430 480 OFFCURVE",
"576 352 OFFCURVE",
"754 352 CURVE"
);
},
{
closed = 1;
nodes = (
"412 180 OFFCURVE",
"208 394 OFFCURVE",
"208 708 CURVE SMOOTH",
"208 1026 OFFCURVE",
"412 1244 OFFCURVE",
"714 1246 CURVE",
"1010 1246 OFFCURVE",
"1214 1026 OFFCURVE",
"1214 714 CURVE SMOOTH",
"1214 394 OFFCURVE",
"1010 174 OFFCURVE",
"714 178 CURVE"
);
}
);
width = 1440;
},
{
layerId = "58254875-FB9E-4C1D-8B15-704836B9A7CF";
paths = (
{
closed = 1;
nodes = (
"1098 42 OFFCURVE",
"1378 352 OFFCURVE",
"1378 714 CURVE SMOOTH",
"1378 1100 OFFCURVE",
"1108 1380 OFFCURVE",
"714 1380 CURVE {name = hr00;}",
"326 1380 OFFCURVE",
"44 1070 OFFCURVE",
"44 714 CURVE SMOOTH",
"44 322 OFFCURVE",
"316 42 OFFCURVE",
"714 42 CURVE SMOOTH"
);
},
{
closed = 1;
nodes = (
"796 352 OFFCURVE",
"864 362 OFFCURVE",
"938 398 CURVE",
"896 518 LINE",
"834 490 OFFCURVE",
"792 484 OFFCURVE",
"754 484 CURVE",
"652 484 OFFCURVE",
"584 584 OFFCURVE",
"584 714 CURVE",
"584 842 OFFCURVE",
"654 940 OFFCURVE",
"754 940 CURVE",
"794 940 OFFCURVE",
"828 934 OFFCURVE",
"876 918 CURVE",
"920 1046 LINE",
"864 1064 OFFCURVE",
"804 1074 OFFCURVE",
"754 1074 CURVE",
"564 1074 OFFCURVE",
"408 946 OFFCURVE",
"408 714 CURVE",
"408 480 OFFCURVE",
"560 352 OFFCURVE",
"754 352 CURVE"
);
},
{
closed = 1;
nodes = (
"442 198 OFFCURVE",
"228 394 OFFCURVE",
"228 708 CURVE SMOOTH",
"228 1026 OFFCURVE",
"442 1226 OFFCURVE",
"714 1226 CURVE",
"980 1226 OFFCURVE",
"1194 1026 OFFCURVE",
"1194 714 CURVE SMOOTH",
"1194 394 OFFCURVE",
"980 198 OFFCURVE",
"714 198 CURVE"
);
}
);
width = 1440;
}
);
unicode = 00A9;
},
{
color = 6;
glyphname = registered;
layers = (
{
layerId = "BAA2CE79-BA31-4701-835E-3D9478C3F4B2";
paths = (
{
closed = 1;
nodes = (
"1098 62 OFFCURVE",
"1358 352 OFFCURVE",
"1358 714 CURVE SMOOTH",
"1358 1070 OFFCURVE",
"1098 1360 OFFCURVE",
"714 1360 CURVE {name = hr00;}",
"326 1360 OFFCURVE",
"64 1070 OFFCURVE",
"64 714 CURVE SMOOTH",
"64 352 OFFCURVE",
"326 62 OFFCURVE",
"714 62 CURVE SMOOTH"
);
},
{
closed = 1;
nodes = (
"412 180 OFFCURVE",
"208 394 OFFCURVE",
"208 708 CURVE SMOOTH",
"208 1026 OFFCURVE",
"412 1244 OFFCURVE",
"714 1246 CURVE",
"1010 1246 OFFCURVE",
"1214 1026 OFFCURVE",
"1214 714 CURVE SMOOTH",
"1214 394 OFFCURVE",
"1010 174 OFFCURVE",
"714 178 CURVE"
);
},
{
closed = 1;
nodes = (
"626 378 LINE",
"626 968 LINE",
"662 972 OFFCURVE",
"684 974 OFFCURVE",
"708 974 CURVE SMOOTH",
"788 974 OFFCURVE",
"846 922 OFFCURVE",
"846 862 CURVE SMOOTH",
"846 810 OFFCURVE",
"810 762 OFFCURVE",
"764 754 CURVE SMOOTH",
"706 746 OFFCURVE",
"688 698 OFFCURVE",
"672 666 CURVE",
"706 666 OFFCURVE",
"692 666 OFFCURVE",
"724 668 CURVE",
"822 630 OFFCURVE",
"816 486 OFFCURVE",
"866 378 CURVE",
"998 378 LINE",
"942 500 OFFCURVE",
"946 618 OFFCURVE",
"868 678 CURVE",
"850 690 LINE",
"874 702 LINE",
"936 736 OFFCURVE",
"976 790 OFFCURVE",
"976 862 CURVE",
"976 992 OFFCURVE",
"860 1072 OFFCURVE",
"708 1072 CURVE SMOOTH",
"638 1072 OFFCURVE",
"578 1064 OFFCURVE",
"502 1046 CURVE",
"502 378 LINE"
);
}
);
width = 1440;
},
{
layerId = "58254875-FB9E-4C1D-8B15-704836B9A7CF";
paths = (
{
closed = 1;
nodes = (
"1098 42 OFFCURVE",
"1378 352 OFFCURVE",
"1378 714 CURVE SMOOTH",
"1378 1100 OFFCURVE",
"1108 1380 OFFCURVE",
"714 1380 CURVE SMOOTH {name = hr00;}",
"326 1380 OFFCURVE",
"44 1070 OFFCURVE",
"44 714 CURVE SMOOTH",
"44 322 OFFCURVE",
"316 42 OFFCURVE",
"714 42 CURVE SMOOTH"
);
},
{
closed = 1;
nodes = (
"442 198 OFFCURVE",
"228 394 OFFCURVE",
"228 708 CURVE SMOOTH",
"228 1026 OFFCURVE",
"442 1226 OFFCURVE",
"714 1226 CURVE SMOOTH",
"980 1226 OFFCURVE",
"1194 1026 OFFCURVE",
"1194 714 CURVE SMOOTH",
"1194 394 OFFCURVE",
"980 198 OFFCURVE",
"714 198 CURVE SMOOTH"
);
},
{
closed = 1;
nodes = (
"646 378 LINE",
"646 938 LINE",
"682 942 OFFCURVE",
"684 944 OFFCURVE",
"708 944 CURVE SMOOTH",
"788 944 OFFCURVE",
"826 914 OFFCURVE",
"826 862 CURVE SMOOTH",
"826 816 OFFCURVE",
"810 782 OFFCURVE",
"764 770 CURVE SMOOTH",
"706 756 OFFCURVE",
"682 702 OFFCURVE",
"672 650 CURVE",
"688 650 OFFCURVE",
"704 650 OFFCURVE",
"720 650 CURVE",
"818 612 OFFCURVE",
"796 486 OFFCURVE",
"846 378 CURVE",
"1018 378 LINE",
"964 496 OFFCURVE",
"968 606 OFFCURVE",
"894 666 CURVE",
"856 686 LINE",
"900 694 LINE",
"964 728 OFFCURVE",
"996 790 OFFCURVE",
"996 862 CURVE SMOOTH",
"996 992 OFFCURVE",
"878 1072 OFFCURVE",
"708 1072 CURVE SMOOTH",
"638 1072 OFFCURVE",
"558 1060 OFFCURVE",
"482 1042 CURVE",
"482 378 LINE"
);
}
);
width = 1440;
}
);
unicode = 00AE;
},
{
color = 6;
glyphname = trademark;
layers = (
{
layerId = "BAA2CE79-BA31-4701-835E-3D9478C3F4B2";
paths = (
{
closed = 1;
nodes = (
"720 858 LINE",
"762 1304 LINE",
"764 1342 LINE",
"776 1304 LINE",
"926 868 LINE",
"1030 868 LINE",
"1180 1302 LINE",
"1192 1342 LINE",
"1192 1302 LINE",
"1238 858 LINE",
"1336 858 LINE",
"1270 1456 LINE",
"1132 1456 LINE",
"984 1020 LINE",
"978 992 LINE",
"972 1020 LINE",
"826 1456 LINE",
"678 1456 LINE",
"612 858 LINE"
);
},
{
closed = 1;
nodes = (
"346 858 LINE",
"346 1376 LINE",
"530 1376 LINE",
"530 1456 LINE",
"52 1456 LINE",
"52 1376 LINE {name = hr00;}",
"236 1376 LINE",
"236 858 LINE"
);
}
);
width = 1456;
},
{
layerId = "58254875-FB9E-4C1D-8B15-704836B9A7CF";
paths = (
{
closed = 1;
nodes = (
"738 858 LINE",
"768 1250 LINE",
"772 1284 LINE",
"780 1250 LINE",
"912 868 LINE",
"1044 868 LINE",
"1172 1250 LINE",
"1182 1284 LINE",
"1186 1250 LINE",
"1216 858 LINE",
"1364 858 LINE",
"1302 1456 LINE",
"1114 1456 LINE",
"984 1058 LINE",
"978 1032 LINE",
"972 1058 LINE",
"842 1456 LINE",
"654 1456 LINE",
"592 858 LINE"
);
},
{
closed = 1;
nodes = (
"368 858 LINE",
"368 1340 LINE",
"524 1340 LINE",
"524 1456 LINE",
"56 1456 LINE",
"56 1340 LINE {name = hr00;}",
"212 1340 LINE",
"212 858 LINE"
);
}
);
width = 1456;
}
);
unicode = 2122;
},
{
color = 6;
glyphname = degree;
layers = (
{
layerId = "BAA2CE79-BA31-4701-835E-3D9478C3F4B2";
paths = (
{
closed = 1;
nodes = (
"486 966 OFFCURVE",
"642 1066 OFFCURVE",
"642 1246 CURVE",
"642 1428 OFFCURVE",
"486 1526 OFFCURVE",
"350 1526 CURVE",
"184 1526 OFFCURVE",
"58 1396 OFFCURVE",
"58 1246 CURVE",
"58 1084 OFFCURVE",
"194 966 OFFCURVE",
"350 966 CURVE"
);
},
{
closed = 1;
nodes = (
"238 1066 OFFCURVE",
"184 1156 OFFCURVE",
"184 1246 CURVE",
"184 1330 OFFCURVE",
"238 1426 OFFCURVE",
"350 1426 CURVE {name = hr00;}",
"436 1426 OFFCURVE",
"518 1356 OFFCURVE",
"518 1246 CURVE",
"518 1174 OFFCURVE",
"468 1066 OFFCURVE",
"350 1066 CURVE"
);
}
);
width = 674;
},
{
layerId = "58254875-FB9E-4C1D-8B15-704836B9A7CF";
paths = (
{
closed = 1;
nodes = (
"512 946 OFFCURVE",
"662 1072 OFFCURVE",
"662 1246 CURVE SMOOTH",
"662 1430 OFFCURVE",
"512 1546 OFFCURVE",
"350 1546 CURVE SMOOTH",
"188 1546 OFFCURVE",
"38 1420 OFFCURVE",
"38 1246 CURVE SMOOTH",
"38 1062 OFFCURVE",
"188 946 OFFCURVE",
"350 946 CURVE SMOOTH"
);
},
{
closed = 1;
nodes = (
"272 1092 OFFCURVE",
"208 1146 OFFCURVE",
"208 1246 CURVE SMOOTH {name = hr00;}",
"208 1346 OFFCURVE",
"272 1402 OFFCURVE",
"350 1402 CURVE SMOOTH",
"428 1402 OFFCURVE",
"494 1346 OFFCURVE",
"494 1246 CURVE SMOOTH",
"494 1146 OFFCURVE",
"428 1092 OFFCURVE",
"350 1092 CURVE SMOOTH"
);
}
);
width = 674;
}
);
unicode = 00B0;
},
{
color = 6;
glyphname = bar;
layers = (
{
layerId = "BAA2CE79-BA31-4701-835E-3D9478C3F4B2";
paths = (
{
closed = 1;
nodes = (
"390 -586 LINE",
"390 1622 LINE",
"230 1622 LINE",
"230 -586 LINE {name = hr00;}"
);
}
);
width = 634;
},
{
layerId = "58254875-FB9E-4C1D-8B15-704836B9A7CF";
paths = (
{
closed = 1;
nodes = (
"482 -586 LINE",
"482 1622 LINE",
"230 1622 LINE",
"230 -586 LINE {name = hr00;}"
);
}
);
width = 634;
}
);
unicode = 007C;
},
{
color = 6;
glyphname = brokenbar;
layers = (
{
layerId = "BAA2CE79-BA31-4701-835E-3D9478C3F4B2";
paths = (
{
closed = 1;
nodes = (
"342 -586 LINE",
"342 282 LINE",
"182 282 LINE",
"182 -586 LINE"
);
},
{
closed = 1;
nodes = (
"342 774 LINE",
"342 1622 LINE",
"182 1622 LINE",
"182 774 LINE {name = hr00;}"
);
}
);
width = 508;
},
{
layerId = "58254875-FB9E-4C1D-8B15-704836B9A7CF";
paths = (
{
closed = 1;
nodes = (
"388 -586 LINE",
"388 282 LINE",
"136 282 LINE",
"136 -586 LINE"
);
},
{
closed = 1;
nodes = (
"388 774 LINE",
"388 1622 LINE",
"136 1622 LINE",
"136 774 LINE {name = hr00;}"
);
}
);
width = 508;
}
);
unicode = 00A6;
},
{
color = 6;
glyphname = dagger;
layers = (
{
layerId = "BAA2CE79-BA31-4701-835E-3D9478C3F4B2";
paths = (
{
closed = 1;
nodes = (
"622 -60 LINE {name = hr00;}",
"622 1394 LINE",
"474 1394 LINE",
"474 -60 LINE"
);
},
{
closed = 1;
nodes = (
"234 814 LINE",
"330 814 OFFCURVE",
"376 876 OFFCURVE",
"404 952 CURVE",
"44 952 LINE",
"44 814 LINE"
);
},
{
closed = 1;
nodes = (
"1052 814 LINE",
"1052 952 LINE",
"692 952 LINE",
"720 876 OFFCURVE",
"766 814 OFFCURVE",
"862 814 CURVE"
);
}
);
width = 1134;
},
{
layerId = "58254875-FB9E-4C1D-8B15-704836B9A7CF";
paths = (
{
closed = 1;
nodes = (
"668 -60 LINE {name = hr00;}",
"668 1394 LINE",
"428 1394 LINE",
"428 -60 LINE"
);
},
{
closed = 1;
nodes = (
"132 782 LINE",
"262 782 OFFCURVE",
"324 884 OFFCURVE",
"358 984 CURVE",
"-2 984 LINE",
"-2 782 LINE"
);
},
{
closed = 1;
nodes = (
"1098 782 LINE",
"1098 984 LINE",
"738 984 LINE",
"772 884 OFFCURVE",
"834 782 OFFCURVE",
"964 782 CURVE"
);
}
);
width = 1134;
}
);
unicode = 2020;
},
{
color = 6;
glyphname = daggerdbl;
layers = (
{
layerId = "BAA2CE79-BA31-4701-835E-3D9478C3F4B2";
paths = (
{
closed = 1;
nodes = (
"670 -60 LINE {name = hr00;}",
"670 1394 LINE",
"522 1394 LINE",
"522 -60 LINE"
);
},
{
closed = 1;
nodes = (
"282 342 LINE",
"378 342 OFFCURVE",
"424 404 OFFCURVE",
"452 480 CURVE",
"92 480 LINE",
"92 342 LINE"
);
},
{
closed = 1;
nodes = (
"282 854 LINE",
"378 854 OFFCURVE",
"424 916 OFFCURVE",
"452 992 CURVE",
"92 992 LINE",
"92 854 LINE"
);
},
{
closed = 1;
nodes = (
"1100 342 LINE",
"1100 480 LINE",
"740 480 LINE",
"768 404 OFFCURVE",
"814 342 OFFCURVE",
"910 342 CURVE"
);
},
{
closed = 1;
nodes = (
"1100 854 LINE",
"1100 992 LINE",
"740 992 LINE",
"768 916 OFFCURVE",
"814 854 OFFCURVE",
"910 854 CURVE"
);
}
);
width = 1222;
},
{
layerId = "58254875-FB9E-4C1D-8B15-704836B9A7CF";
paths = (
{
closed = 1;
nodes = (
"716 -60 LINE {name = hr00;}",
"716 1394 LINE",
"476 1394 LINE",
"476 -60 LINE"
);
},
{
closed = 1;
nodes = (
"180 310 LINE",
"310 310 OFFCURVE",
"372 412 OFFCURVE",
"406 512 CURVE",
"46 512 LINE",
"46 310 LINE"
);
},
{
closed = 1;
nodes = (
"180 822 LINE",
"310 822 OFFCURVE",
"372 924 OFFCURVE",
"406 1024 CURVE",
"46 1024 LINE",
"46 822 LINE"
);
},
{
closed = 1;
nodes = (
"1146 310 LINE",
"1146 512 LINE",
"786 512 LINE",
"820 412 OFFCURVE",
"882 310 OFFCURVE",
"1012 310 CURVE"
);
},
{
closed = 1;
nodes = (
"1146 822 LINE",
"1146 1024 LINE",
"786 1024 LINE",
"820 924 OFFCURVE",
"882 822 OFFCURVE",
"1012 822 CURVE"
);
}
);
width = 1222;
}
);
unicode = 2021;
},
{
color = 6;
glyphname = cent;
layers = (
{
layerId = "BAA2CE79-BA31-4701-835E-3D9478C3F4B2";
paths = (
{
closed = 1;
nodes = (
"628 -28 LINE",
"628 174 LINE",
"686 182 OFFCURVE",
"758 200 OFFCURVE",
"836 240 CURVE {name = hr00;}",
"786 372 LINE",
"694 330 OFFCURVE",
"624 314 OFFCURVE",
"566 314 CURVE SMOOTH",
"412 314 OFFCURVE",
"282 438 OFFCURVE",
"282 708 CURVE SMOOTH",
"282 976 OFFCURVE",
"414 1100 OFFCURVE",
"566 1100 CURVE SMOOTH",
"626 1100 OFFCURVE",
"688 1092 OFFCURVE",
"760 1070 CURVE",
"810 1202 LINE",
"752 1224 OFFCURVE",
"686 1236 OFFCURVE",
"628 1242 CURVE",
"628 1432 LINE",
"484 1432 LINE",
"484 1236 LINE",
"262 1200 OFFCURVE",
"84 1016 OFFCURVE",
"84 708 CURVE SMOOTH",
"84 396 OFFCURVE",
"254 210 OFFCURVE",
"484 176 CURVE",
"484 -28 LINE"
);
}
);
width = 854;
},
{
layerId = "58254875-FB9E-4C1D-8B15-704836B9A7CF";
paths = (
{
closed = 1;
nodes = (
"654 -28 LINE",
"654 170 LINE",
"714 180 OFFCURVE",
"786 200 OFFCURVE",
"862 236 CURVE",
"794 420 LINE",
"708 386 OFFCURVE",
"648 372 OFFCURVE",
"592 372 CURVE SMOOTH",
"448 372 OFFCURVE",
"352 500 OFFCURVE",
"352 710 CURVE SMOOTH",
"352 918 OFFCURVE",
"448 1046 OFFCURVE",
"592 1046 CURVE SMOOTH",
"636 1046 OFFCURVE",
"702 1038 OFFCURVE",
"766 1022 CURVE",
"834 1208 LINE",
"776 1230 OFFCURVE",
"712 1242 OFFCURVE",
"654 1248 CURVE {name = hr00;}",
"654 1432 LINE",
"458 1432 LINE",
"458 1236 LINE",
"236 1188 OFFCURVE",
"56 1012 OFFCURVE",
"56 710 CURVE SMOOTH",
"56 388 OFFCURVE",
"236 224 OFFCURVE",
"458 178 CURVE",
"458 -28 LINE"
);
}
);
width = 854;
}
);
unicode = 00A2;
},
{
color = 6;
glyphname = currency;
layers = (
{
layerId = "BAA2CE79-BA31-4701-835E-3D9478C3F4B2";
paths = (
{
closed = 1;
nodes = (
"280 356 LINE",
"334 306 OFFCURVE",
"426 276 OFFCURVE",
"508 276 CURVE SMOOTH",
"588 276 OFFCURVE",
"682 304 OFFCURVE",
"742 362 CURVE",
"888 216 LINE",
"968 296 LINE",
"818 444 LINE",
"854 494 OFFCURVE",
"888 580 OFFCURVE",
"888 690 CURVE SMOOTH",
"888 786 OFFCURVE",
"856 870 OFFCURVE",
"818 924 CURVE",
"974 1066 LINE",
"896 1148 LINE",
"744 1008 LINE",
"688 1056 OFFCURVE",
"606 1088 OFFCURVE",
"512 1088 CURVE {name = hr00;}",
"424 1088 OFFCURVE",
"340 1056 OFFCURVE",
"284 1006 CURVE",
"136 1148 LINE",
"58 1066 LINE",
"208 924 LINE",
"166 868 OFFCURVE",
"130 782 OFFCURVE",
"130 678 CURVE SMOOTH",
"130 580 OFFCURVE",
"164 490 OFFCURVE",
"204 438 CURVE",
"60 296 LINE",
"140 216 LINE"
);
},
{
closed = 1;
nodes = (
"406 394 OFFCURVE",
"272 486 OFFCURVE",
"272 680 CURVE SMOOTH",
"272 836 OFFCURVE",
"362 970 OFFCURVE",
"510 970 CURVE",
"664 970 OFFCURVE",
"746 826 OFFCURVE",
"746 688 CURVE SMOOTH",
"746 482 OFFCURVE",
"620 394 OFFCURVE",
"508 394 CURVE SMOOTH"
);
}
);
width = 1026;
},
{
layerId = "58254875-FB9E-4C1D-8B15-704836B9A7CF";
paths = (
{
closed = 1;
nodes = (
"298 340 LINE",
"350 302 OFFCURVE",
"424 272 OFFCURVE",
"512 272 CURVE SMOOTH",
"606 272 OFFCURVE",
"686 304 OFFCURVE",
"732 342 CURVE",
"886 200 LINE",
"986 306 LINE",
"828 452 LINE",
"860 498 OFFCURVE",
"888 586 OFFCURVE",
"888 682 CURVE",
"888 778 OFFCURVE",
"860 862 OFFCURVE",
"828 908 CURVE",
"986 1054 LINE",
"886 1160 LINE",
"732 1018 LINE",
"686 1056 OFFCURVE",
"606 1088 OFFCURVE",
"512 1088 CURVE SMOOTH",
"424 1088 OFFCURVE",
"350 1058 OFFCURVE",
"298 1020 CURVE",
"150 1162 LINE",
"42 1050 LINE",
"198 908 LINE",
"164 862 OFFCURVE",
"130 782 OFFCURVE",
"130 682 CURVE",
"130 578 OFFCURVE",
"164 498 OFFCURVE",
"198 452 CURVE",
"42 310 LINE",
"150 198 LINE"
);
},
{
closed = 1;
nodes = (
"402 420 OFFCURVE",
"304 524 OFFCURVE",
"304 680 CURVE",
"304 836 OFFCURVE",
"402 940 OFFCURVE",
"510 940 CURVE",
"624 940 OFFCURVE",
"716 818 OFFCURVE",
"716 680 CURVE {name = hr00;}",
"716 542 OFFCURVE",
"624 420 OFFCURVE",
"510 420 CURVE SMOOTH"
);
}
);
width = 1026;
}
);
unicode = 00A4;
},
{
color = 6;
glyphname = dollar;
layers = (
{
layerId = "BAA2CE79-BA31-4701-835E-3D9478C3F4B2";
paths = (
{
closed = 1;
nodes = (
"598 -214 LINE",
"598 -12 LINE",
"824 28 OFFCURVE",
"948 192 OFFCURVE",
"948 352 CURVE SMOOTH",
"948 790 OFFCURVE",
"304 784 OFFCURVE",
"304 1088 CURVE SMOOTH",
"304 1188 OFFCURVE",
"386 1276 OFFCURVE",
"520 1276 CURVE SMOOTH",
"596 1276 OFFCURVE",
"676 1266 OFFCURVE",
"792 1232 CURVE",
"848 1362 LINE",
"748 1392 OFFCURVE",
"674 1410 OFFCURVE",
"598 1418 CURVE",
"598 1620 LINE",
"454 1620 LINE",
"454 1422 LINE",
"252 1402 OFFCURVE",
"114 1260 OFFCURVE",
"114 1088 CURVE SMOOTH",
"114 652 OFFCURVE",
"752 688 OFFCURVE",
"752 356 CURVE SMOOTH",
"752 234 OFFCURVE",
"642 124 OFFCURVE",
"470 124 CURVE SMOOTH",
"374 124 OFFCURVE",
"266 146 OFFCURVE",
"142 202 CURVE",
"90 72 LINE",
"214 10 OFFCURVE",
"344 -16 OFFCURVE",
"454 -22 CURVE",
"454 -214 LINE {name = hr01;}"
);
}
);
width = 1028;
},
{
layerId = "58254875-FB9E-4C1D-8B15-704836B9A7CF";
paths = (
{
closed = 1;
nodes = (
"632 -214 LINE",
"632 -16 LINE",
"862 18 OFFCURVE",
"1012 148 OFFCURVE",
"1012 362 CURVE SMOOTH",
"1012 808 OFFCURVE",
"330 812 OFFCURVE",
"330 1074 CURVE SMOOTH",
"330 1160 OFFCURVE",
"408 1224 OFFCURVE",
"528 1224 CURVE SMOOTH {name = hr00;}",
"616 1224 OFFCURVE",
"710 1210 OFFCURVE",
"828 1178 CURVE",
"902 1360 LINE",
"790 1394 OFFCURVE",
"710 1410 OFFCURVE",
"632 1418 CURVE",
"632 1620 LINE",
"420 1620 LINE",
"420 1418 LINE",
"222 1392 OFFCURVE",
"70 1276 OFFCURVE",
"70 1058 CURVE SMOOTH",
"70 638 OFFCURVE",
"748 644 OFFCURVE",
"748 366 CURVE SMOOTH",
"748 266 OFFCURVE",
"644 182 OFFCURVE",
"502 182 CURVE SMOOTH",
"400 182 OFFCURVE",
"272 204 OFFCURVE",
"128 268 CURVE",
"52 80 LINE",
"194 18 OFFCURVE",
"318 -12 OFFCURVE",
"420 -22 CURVE",
"420 -214 LINE"
);
}
);
width = 1028;
}
);
unicode = 0024;
userData = {
com.typemytype.robofont.guides = (
{
angle = 0;
isGlobal = 0;
magnetic = 5;
x = 0;
y = 587;
}
);
};
},
{
color = 6;
glyphname = euro;
layers = (
{
layerId = "BAA2CE79-BA31-4701-835E-3D9478C3F4B2";
paths = (
{
closed = 1;
nodes = (
"820 -20 OFFCURVE",
"914 -2 OFFCURVE",
"1030 42 CURVE",
"978 176 LINE",
"870 136 OFFCURVE",
"802 124 OFFCURVE",
"708 124 CURVE SMOOTH",
"538 124 OFFCURVE",
"394 250 OFFCURVE",
"334 466 CURVE",
"326 498 LINE",
"360 498 LINE",
"864 498 LINE",
"864 628 LINE",
"306 628 LINE",
"304 650 OFFCURVE",
"304 676 OFFCURVE",
"304 700 CURVE SMOOTH",
"304 1058 OFFCURVE",
"484 1284 OFFCURVE",
"708 1284 CURVE SMOOTH",
"788 1284 OFFCURVE",
"866 1276 OFFCURVE",
"978 1234 CURVE",
"1030 1366 LINE",
"902 1414 OFFCURVE",
"820 1428 OFFCURVE",
"708 1428 CURVE SMOOTH",
"426 1428 OFFCURVE",
"220 1236 OFFCURVE",
"148 932 CURVE",
"-16 932 LINE",
"-16 802 LINE",
"128 802 LINE",
"124 768 OFFCURVE",
"124 736 OFFCURVE",
"124 700 CURVE SMOOTH {name = hr01;}",
"124 676 OFFCURVE",
"124 650 OFFCURVE",
"126 628 CURVE",
"-16 628 LINE {name = hr02;}",
"-16 498 LINE",
"144 498 LINE",
"210 180 OFFCURVE",
"418 -20 OFFCURVE",
"708 -20 CURVE SMOOTH"
);
},
{
closed = 1;
nodes = (
"864 802 LINE",
"864 932 LINE",
"552 932 LINE",
"458 932 OFFCURVE",
"410 878 OFFCURVE",
"384 802 CURVE"
);
}
);
width = 1180;
},
{
layerId = "58254875-FB9E-4C1D-8B15-704836B9A7CF";
paths = (
{
closed = 1;
nodes = (
"842 -24 OFFCURVE",
"958 4 OFFCURVE",
"1072 64 CURVE",
"1000 240 LINE",
"906 196 OFFCURVE",
"822 174 OFFCURVE",
"734 174 CURVE SMOOTH",
"558 174 OFFCURVE",
"448 296 OFFCURVE",
"396 458 CURVE",
"380 490 LINE",
"422 488 LINE",
"914 488 LINE",
"914 638 LINE",
"362 638 LINE",
"360 658 OFFCURVE",
"360 678 OFFCURVE",
"360 700 CURVE SMOOTH",
"360 966 OFFCURVE",
"478 1226 OFFCURVE",
"734 1226 CURVE SMOOTH",
"822 1226 OFFCURVE",
"890 1214 OFFCURVE",
"1002 1182 CURVE",
"1072 1358 LINE",
"950 1404 OFFCURVE",
"842 1424 OFFCURVE",
"734 1424 CURVE SMOOTH",
"374 1424 OFFCURVE",
"172 1210 OFFCURVE",
"98 942 CURVE",
"-66 942 LINE",
"-66 792 LINE {name = hr02;}",
"72 792 LINE",
"68 762 OFFCURVE",
"68 730 OFFCURVE",
"68 700 CURVE SMOOTH {name = hr01;}",
"68 678 OFFCURVE",
"68 658 OFFCURVE",
"70 638 CURVE",
"-66 638 LINE",
"-66 488 LINE",
"92 488 LINE",
"156 212 OFFCURVE",
"352 -24 OFFCURVE",
"734 -24 CURVE SMOOTH"
);
},
{
closed = 1;
nodes = (
"914 792 LINE",
"914 942 LINE",
"608 942 LINE",
"510 942 OFFCURVE",
"460 868 OFFCURVE",
"434 792 CURVE"
);
}
);
width = 1180;
}
);
unicode = 20AC;
userData = {
com.typemytype.robofont.guides = (
{
angle = 90;
isGlobal = 0;
magnetic = 5;
x = 343;
y = 0;
}
);
};
},
{
color = 6;
glyphname = sterling;
layers = (
{
layerId = "BAA2CE79-BA31-4701-835E-3D9478C3F4B2";
paths = (
{
closed = 1;
nodes = (
"966 0 LINE",
"966 160 LINE",
"408 160 LINE",
"354 156 LINE",
"396 192 LINE",
"452 250 OFFCURVE",
"492 316 OFFCURVE",
"512 394 CURVE",
"552 592 OFFCURVE",
"478 780 OFFCURVE",
"478 1022 CURVE SMOOTH",
"478 1174 OFFCURVE",
"554 1280 OFFCURVE",
"702 1280 CURVE SMOOTH",
"758 1280 OFFCURVE",
"856 1264 OFFCURVE",
"954 1216 CURVE",
"1004 1350 LINE",
"890 1404 OFFCURVE",
"796 1424 OFFCURVE",
"702 1424 CURVE",
"482 1424 OFFCURVE",
"302 1278 OFFCURVE",
"302 1024 CURVE SMOOTH",
"302 940 OFFCURVE",
"314 836 OFFCURVE",
"326 772 CURVE",
"154 772 LINE {name = hr01;}",
"154 642 LINE",
"346 642 LINE",
"356 586 OFFCURVE",
"358 536 OFFCURVE",
"358 484 CURVE SMOOTH {name = hr02;}",
"358 324 OFFCURVE",
"256 194 OFFCURVE",
"112 122 CURVE",
"112 0 LINE"
);
},
{
closed = 1;
nodes = (
"890 642 LINE",
"890 772 LINE",
"572 772 LINE",
"600 696 OFFCURVE",
"646 642 OFFCURVE",
"742 642 CURVE"
);
}
);
width = 1026;
},
{
layerId = "58254875-FB9E-4C1D-8B15-704836B9A7CF";
paths = (
{
closed = 1;
nodes = (
"966 0 LINE",
"966 224 LINE",
"506 224 LINE",
"462 220 LINE",
"498 260 LINE",
"528 304 OFFCURVE",
"546 336 OFFCURVE",
"558 394 CURVE",
"598 592 OFFCURVE",
"524 780 OFFCURVE",
"524 1022 CURVE SMOOTH",
"524 1150 OFFCURVE",
"600 1216 OFFCURVE",
"730 1216 CURVE SMOOTH",
"786 1216 OFFCURVE",
"880 1202 OFFCURVE",
"980 1160 CURVE",
"1050 1350 LINE",
"926 1406 OFFCURVE",
"824 1424 OFFCURVE",
"730 1424 CURVE",
"454 1424 OFFCURVE",
"258 1294 OFFCURVE",
"258 1024 CURVE SMOOTH {name = hr02;}",
"258 940 OFFCURVE",
"266 866 OFFCURVE",
"276 804 CURVE",
"110 804 LINE",
"110 610 LINE {name = hr01;}",
"308 610 LINE",
"312 560 OFFCURVE",
"314 524 OFFCURVE",
"314 484 CURVE SMOOTH",
"314 338 OFFCURVE",
"212 224 OFFCURVE",
"68 152 CURVE",
"68 0 LINE"
);
},
{
closed = 1;
nodes = (
"936 610 LINE",
"936 804 LINE",
"614 804 LINE",
"642 718 OFFCURVE",
"684 610 OFFCURVE",
"804 610 CURVE"
);
}
);
width = 1026;
}
);
unicode = 00A3;
},
{
color = 6;
glyphname = yen;
layers = (
{
layerId = "BAA2CE79-BA31-4701-835E-3D9478C3F4B2";
paths = (
{
closed = 1;
nodes = (
"740 0 LINE",
"740 276 LINE",
"1072 276 LINE",
"1072 370 LINE",
"740 370 LINE",
"740 520 LINE",
"1072 520 LINE",
"1072 614 LINE",
"740 618 LINE",
"740 674 LINE",
"272 1454 LINE",
"56 1454 LINE",
"554 618 LINE",
"554 614 LINE",
"222 614 LINE {name = hr00;}",
"222 520 LINE",
"554 520 LINE",
"554 370 LINE",
"222 370 LINE",
"222 276 LINE",
"554 276 LINE",
"554 0 LINE"
);
},
{
closed = 1;
nodes = (
"1224 1454 LINE",
"1014 1454 LINE",
"762 1004 LINE",
"708 910 OFFCURVE",
"748 814 OFFCURVE",
"796 752 CURVE"
);
}
);
width = 1320;
},
{
layerId = "58254875-FB9E-4C1D-8B15-704836B9A7CF";
paths = (
{
closed = 1;
nodes = (
"786 0 LINE",
"786 256 LINE",
"1072 256 LINE",
"1072 390 LINE",
"786 390 LINE",
"786 504 LINE",
"1072 504 LINE",
"1072 638 LINE",
"786 638 LINE",
"786 678 LINE {name = hr00;}",
"320 1454 LINE",
"8 1454 LINE",
"510 644 LINE",
"510 638 LINE",
"222 638 LINE",
"222 504 LINE",
"510 504 LINE",
"510 390 LINE",
"222 390 LINE",
"222 256 LINE",
"510 256 LINE",
"510 0 LINE"
);
},
{
closed = 1;
nodes = (
"1270 1454 LINE",
"962 1454 LINE",
"774 1114 LINE",
"706 986 OFFCURVE",
"794 822 OFFCURVE",
"846 754 CURVE"
);
}
);
width = 1320;
}
);
unicode = 00A5;
},
{
color = 6;
glyphname = plus;
layers = (
{
layerId = "BAA2CE79-BA31-4701-835E-3D9478C3F4B2";
paths = (
{
closed = 1;
nodes = (
"634 124 LINE",
"634 546 LINE",
"1030 546 LINE",
"1030 674 LINE",
"634 674 LINE",
"634 1092 LINE",
"488 1092 LINE",
"488 674 LINE",
"94 674 LINE {name = hr00;}",
"94 546 LINE",
"488 546 LINE",
"488 124 LINE"
);
}
);
width = 1136;
},
{
layerId = "58254875-FB9E-4C1D-8B15-704836B9A7CF";
paths = (
{
closed = 1;
nodes = (
"666 124 LINE",
"666 514 LINE",
"1030 514 LINE",
"1030 706 LINE",
"666 706 LINE",
"666 1092 LINE",
"454 1092 LINE",
"454 706 LINE",
"94 706 LINE {name = hr00;}",
"94 514 LINE",
"454 514 LINE",
"454 124 LINE"
);
}
);
width = 1136;
}
);
unicode = 002B;
},
{
glyphname = minus;
layers = (
{
layerId = "58254875-FB9E-4C1D-8B15-704836B9A7CF";
paths = (
{
closed = 1;
nodes = (
"830 514 LINE",
"830 706 LINE",
"94 706 LINE",
"94 514 LINE"
);
}
);
width = 936;
},
{
layerId = "BAA2CE79-BA31-4701-835E-3D9478C3F4B2";
paths = (
{
closed = 1;
nodes = (
"830 546 LINE",
"830 674 LINE",
"94 674 LINE {name = hr00;}",
"94 546 LINE"
);
}
);
width = 936;
}
);
unicode = 2212;
},
{
color = 6;
glyphname = multiply;
layers = (
{
layerId = "BAA2CE79-BA31-4701-835E-3D9478C3F4B2";
paths = (
{
closed = 1;
nodes = (
"562 520 LINE",
"924 158 LINE",
"1014 248 LINE",
"652 612 LINE",
"1010 972 LINE",
"920 1062 LINE",
"562 702 LINE",
"200 1062 LINE",
"108 972 LINE",
"470 612 LINE",
"108 248 LINE {name = hr00;}",
"198 158 LINE"
);
}
);
width = 1136;
},
{
layerId = "58254875-FB9E-4C1D-8B15-704836B9A7CF";
paths = (
{
closed = 1;
nodes = (
"562 460 LINE",
"894 128 LINE",
"1044 278 LINE",
"712 612 LINE",
"1040 942 LINE",
"890 1092 LINE",
"562 762 LINE",
"230 1092 LINE",
"78 942 LINE",
"410 612 LINE",
"78 278 LINE {name = hr00;}",
"228 128 LINE"
);
}
);
width = 1136;
}
);
unicode = 00D7;
userData = {
com.typemytype.robofont.guides = (
{
angle = 0;
isGlobal = 0;
magnetic = 5;
x = 0;
y = 305;
},
{
angle = 90;
isGlobal = 0;
magnetic = 5;
x = 280;
y = 0;
}
);
};
},
{
color = 6;
glyphname = divide;
layers = (
{
layerId = "BAA2CE79-BA31-4701-835E-3D9478C3F4B2";
paths = (
{
closed = 1;
nodes = (
"1030 546 LINE",
"1030 674 LINE",
"94 674 LINE {name = hr00;}",
"94 546 LINE"
);
},
{
closed = 1;
nodes = (
"620 124 OFFCURVE",
"664 166 OFFCURVE",
"664 224 CURVE SMOOTH",
"664 284 OFFCURVE",
"620 328 OFFCURVE",
"560 328 CURVE SMOOTH",
"502 328 OFFCURVE",
"460 284 OFFCURVE",
"460 224 CURVE SMOOTH",
"460 166 OFFCURVE",
"502 124 OFFCURVE",
"560 124 CURVE SMOOTH"
);
},
{
closed = 1;
nodes = (
"620 888 OFFCURVE",
"664 930 OFFCURVE",
"664 988 CURVE SMOOTH",
"664 1048 OFFCURVE",
"620 1092 OFFCURVE",
"560 1092 CURVE SMOOTH",
"502 1092 OFFCURVE",
"460 1048 OFFCURVE",
"460 988 CURVE SMOOTH",
"460 930 OFFCURVE",
"502 888 OFFCURVE",
"560 888 CURVE SMOOTH"
);
}
);
width = 1136;
},
{
layerId = "58254875-FB9E-4C1D-8B15-704836B9A7CF";
paths = (
{
closed = 1;
nodes = (
"1030 514 LINE",
"1030 706 LINE",
"94 706 LINE",
"94 514 LINE"
);
},
{
closed = 1;
nodes = (
"634 102 OFFCURVE",
"686 152 OFFCURVE",
"686 224 CURVE SMOOTH",
"686 298 OFFCURVE",
"634 350 OFFCURVE",
"560 350 CURVE SMOOTH",
"488 350 OFFCURVE",
"438 298 OFFCURVE",
"438 224 CURVE SMOOTH {name = hr00;}",
"438 152 OFFCURVE",
"488 102 OFFCURVE",
"560 102 CURVE SMOOTH"
);
},
{
closed = 1;
nodes = (
"632 868 OFFCURVE",
"684 918 OFFCURVE",
"684 988 CURVE SMOOTH",
"684 1060 OFFCURVE",
"632 1112 OFFCURVE",
"560 1112 CURVE SMOOTH",
"490 1112 OFFCURVE",
"440 1060 OFFCURVE",
"440 988 CURVE SMOOTH",
"440 918 OFFCURVE",
"490 868 OFFCURVE",
"560 868 CURVE SMOOTH"
);
}
);
width = 1136;
}
);
unicode = 00F7;
},
{
color = 6;
glyphname = equal;
layers = (
{
layerId = "BAA2CE79-BA31-4701-835E-3D9478C3F4B2";
paths = (
{
closed = 1;
nodes = (
"1078 794 LINE",
"1078 930 LINE",
"134 930 LINE",
"134 794 LINE"
);
},
{
closed = 1;
nodes = (
"1078 352 LINE",
"1078 488 LINE",
"134 488 LINE {name = hr00;}",
"134 352 LINE"
);
}
);
width = 1212;
},
{
layerId = "58254875-FB9E-4C1D-8B15-704836B9A7CF";
paths = (
{
closed = 1;
nodes = (
"1078 764 LINE",
"1078 960 LINE",
"134 960 LINE",
"134 764 LINE"
);
},
{
closed = 1;
nodes = (
"1078 322 LINE",
"1078 518 LINE",
"134 518 LINE {name = hr00;}",
"134 322 LINE"
);
}
);
width = 1212;
}
);
unicode = 003D;
},
{
color = 6;
glyphname = greater;
layers = (
{
layerId = "BAA2CE79-BA31-4701-835E-3D9478C3F4B2";
paths = (
{
closed = 1;
nodes = (
"1108 502 LINE",
"1108 602 LINE",
"74 1104 LINE",
"74 944 LINE",
"888 566 LINE",
"940 552 LINE",
"888 540 LINE {name = hr00;}",
"74 162 LINE",
"74 0 LINE"
);
}
);
width = 1226;
},
{
layerId = "58254875-FB9E-4C1D-8B15-704836B9A7CF";
paths = (
{
closed = 1;
nodes = (
"1144 462 LINE",
"1144 642 LINE",
"110 1104 LINE",
"110 844 LINE",
"804 566 LINE",
"856 552 LINE",
"804 540 LINE {name = hr00;}",
"110 262 LINE",
"110 0 LINE"
);
}
);
width = 1226;
}
);
unicode = 003E;
},
{
color = 6;
glyphname = less;
layers = (
{
layerId = "BAA2CE79-BA31-4701-835E-3D9478C3F4B2";
paths = (
{
closed = 1;
nodes = (
"1108 162 LINE {name = hr00;}",
"294 540 LINE",
"242 552 LINE",
"294 566 LINE",
"1108 944 LINE",
"1108 1104 LINE",
"74 602 LINE",
"74 502 LINE",
"1108 0 LINE"
);
}
);
width = 1226;
},
{
layerId = "58254875-FB9E-4C1D-8B15-704836B9A7CF";
paths = (
{
closed = 1;
nodes = (
"1108 262 LINE {name = hr00;}",
"414 540 LINE",
"362 552 LINE",
"414 566 LINE",
"1108 844 LINE",
"1108 1104 LINE",
"74 642 LINE",
"74 462 LINE",
"1108 0 LINE"
);
}
);
width = 1226;
}
);
unicode = 003C;
},
{
color = 6;
glyphname = plusminus;
layers = (
{
layerId = "BAA2CE79-BA31-4701-835E-3D9478C3F4B2";
paths = (
{
closed = 1;
nodes = (
"634 244 LINE",
"634 606 LINE",
"1030 606 LINE",
"1030 734 LINE",
"634 734 LINE",
"634 1092 LINE",
"488 1092 LINE",
"488 734 LINE",
"94 734 LINE {name = hr00;}",
"94 606 LINE",
"488 606 LINE",
"488 244 LINE"
);
},
{
closed = 1;
nodes = (
"1030 0 LINE",
"1030 126 LINE",
"94 126 LINE",
"94 0 LINE"
);
}
);
width = 1136;
},
{
layerId = "58254875-FB9E-4C1D-8B15-704836B9A7CF";
paths = (
{
closed = 1;
nodes = (
"666 284 LINE",
"666 574 LINE",
"1030 574 LINE",
"1030 766 LINE",
"666 766 LINE",
"666 1052 LINE",
"454 1052 LINE",
"454 766 LINE",
"94 766 LINE {name = hr00;}",
"94 574 LINE",
"454 574 LINE",
"454 284 LINE"
);
},
{
closed = 1;
nodes = (
"1030 0 LINE",
"1030 196 LINE",
"94 196 LINE",
"94 0 LINE"
);
}
);
width = 1136;
}
);
unicode = 00B1;
},
{
color = 6;
glyphname = logicalnot;
layers = (
{
layerId = "BAA2CE79-BA31-4701-835E-3D9478C3F4B2";
paths = (
{
closed = 1;
nodes = (
"1058 312 LINE",
"1058 876 LINE {name = hr00;}",
"86 876 LINE",
"86 748 LINE",
"912 748 LINE",
"912 312 LINE"
);
}
);
width = 1138;
},
{
layerId = "58254875-FB9E-4C1D-8B15-704836B9A7CF";
paths = (
{
closed = 1;
nodes = (
"1092 312 LINE",
"1092 910 LINE {name = hr00;}",
"86 910 LINE",
"86 714 LINE",
"878 714 LINE",
"878 312 LINE"
);
}
);
width = 1182;
}
);
unicode = 00AC;
},
{
color = 6;
glyphname = asciitilde;
layers = (
{
layerId = "BAA2CE79-BA31-4701-835E-3D9478C3F4B2";
paths = (
{
closed = 1;
nodes = (
"294 568 OFFCURVE",
"344 626 OFFCURVE",
"408 628 CURVE SMOOTH",
"490 628 OFFCURVE",
"546 588 OFFCURVE",
"612 544 CURVE SMOOTH",
"674 500 OFFCURVE",
"756 458 OFFCURVE",
"846 460 CURVE SMOOTH {name = hr01;}",
"1006 462 OFFCURVE",
"1124 526 OFFCURVE",
"1138 752 CURVE",
"976 768 LINE",
"968 668 OFFCURVE",
"932 596 OFFCURVE",
"868 596 CURVE SMOOTH",
"778 596 OFFCURVE",
"716 636 OFFCURVE",
"654 680 CURVE SMOOTH",
"592 724 OFFCURVE",
"512 764 OFFCURVE",
"426 764 CURVE SMOOTH {name = hr02;}",
"254 762 OFFCURVE",
"134 672 OFFCURVE",
"126 472 CURVE",
"286 456 LINE"
);
}
);
width = 1228;
},
{
layerId = "58254875-FB9E-4C1D-8B15-704836B9A7CF";
paths = (
{
closed = 1;
nodes = (
"372 548 OFFCURVE",
"428 578 OFFCURVE",
"472 578 CURVE SMOOTH {name = hr02;}",
"514 578 OFFCURVE",
"548 554 OFFCURVE",
"588 526 CURVE SMOOTH",
"646 484 OFFCURVE",
"716 434 OFFCURVE",
"842 434 CURVE SMOOTH",
"962 434 OFFCURVE",
"1126 526 OFFCURVE",
"1138 754 CURVE",
"908 770 LINE",
"898 698 OFFCURVE",
"864 648 OFFCURVE",
"810 648 CURVE SMOOTH {name = hr01;}",
"770 648 OFFCURVE",
"732 672 OFFCURVE",
"686 702 CURVE SMOOTH",
"622 744 OFFCURVE",
"546 792 OFFCURVE",
"438 792 CURVE",
"286 790 OFFCURVE",
"132 676 OFFCURVE",
"126 472 CURVE",
"362 456 LINE"
);
}
);
width = 1228;
}
);
unicode = 007E;
userData = {
com.typemytype.robofont.guides = (
{
angle = 0;
isGlobal = 0;
magnetic = 5;
x = 0;
y = 230;
}
);
};
},
{
color = 6;
glyphname = asciicircum;
layers = (
{
layerId = "BAA2CE79-BA31-4701-835E-3D9478C3F4B2";
paths = (
{
closed = 1;
nodes = (
"326 420 LINE {name = hr00;}",
"620 1160 LINE",
"632 1212 LINE",
"644 1160 LINE",
"940 420 LINE",
"1094 420 LINE",
"682 1454 LINE",
"580 1454 LINE",
"168 420 LINE"
);
}
);
width = 1256;
},
{
layerId = "58254875-FB9E-4C1D-8B15-704836B9A7CF";
paths = (
{
closed = 1;
nodes = (
"366 420 LINE {name = hr00;}",
"618 1086 LINE",
"632 1148 LINE",
"646 1086 LINE",
"900 420 LINE",
"1154 420 LINE",
"732 1454 LINE",
"530 1454 LINE",
"108 420 LINE"
);
}
);
width = 1256;
}
);
unicode = 005E;
},
{
color = 6;
glyphname = micro;
layers = (
{
layerId = "BAA2CE79-BA31-4701-835E-3D9478C3F4B2";
paths = (
{
closed = 1;
nodes = (
"320 -422 LINE",
"320 30 LINE",
"316 94 LINE",
"346 50 LINE",
"388 6 OFFCURVE",
"454 -20 OFFCURVE",
"530 -20 CURVE SMOOTH {name = hr01;}",
"662 -20 OFFCURVE",
"742 52 OFFCURVE",
"792 122 CURVE",
"816 170 LINE",
"824 122 LINE",
"850 20 OFFCURVE",
"918 -16 OFFCURVE",
"1000 -16 CURVE SMOOTH",
"1030 -16 OFFCURVE",
"1064 -10 OFFCURVE",
"1108 6 CURVE",
"1090 134 LINE",
"1008 130 OFFCURVE",
"980 170 OFFCURVE",
"980 282 CURVE SMOOTH",
"980 1034 LINE",
"794 1034 LINE",
"794 398 LINE SMOOTH",
"794 254 OFFCURVE",
"672 130 OFFCURVE",
"548 130 CURVE SMOOTH",
"400 130 OFFCURVE",
"332 262 OFFCURVE",
"332 420 CURVE SMOOTH",
"332 1034 LINE",
"148 1034 LINE",
"148 -422 LINE"
);
}
);
width = 1106;
},
{
layerId = "58254875-FB9E-4C1D-8B15-704836B9A7CF";
paths = (
{
closed = 1;
nodes = (
"356 -422 LINE",
"356 14 LINE",
"354 62 LINE",
"382 28 LINE",
"424 -4 OFFCURVE",
"486 -20 OFFCURVE",
"530 -20 CURVE SMOOTH",
"648 -20 OFFCURVE",
"722 22 OFFCURVE",
"780 104 CURVE",
"798 142 LINE",
"808 106 LINE",
"848 20 OFFCURVE",
"938 -16 OFFCURVE",
"1006 -16 CURVE SMOOTH",
"1036 -16 OFFCURVE",
"1106 -8 OFFCURVE",
"1150 10 CURVE",
"1126 180 LINE",
"1044 176 OFFCURVE",
"1016 216 OFFCURVE",
"1016 328 CURVE SMOOTH",
"1016 1034 LINE",
"758 1034 LINE",
"758 398 LINE SMOOTH",
"758 270 OFFCURVE",
"672 176 OFFCURVE",
"548 176 CURVE SMOOTH {name = hr01;}",
"442 176 OFFCURVE",
"368 262 OFFCURVE",
"368 420 CURVE SMOOTH",
"368 1034 LINE",
"112 1034 LINE",
"112 -422 LINE"
);
}
);
width = 1106;
}
);
unicode = 00B5;
},
